<svg id="Layer_1" data-name="Layer 1" xmlns="http://www.w3.org/2000/svg" viewBox="0 0 150 150"><defs><style>.cls-1{fill:#fff;}</style></defs><title>SPAAM-Avatar-White</title><path class="cls-1" d="M84.72,26.45A12.13,12.13,0,1,0,96.85,38.58,12.14,12.14,0,0,0,84.72,26.45Zm0,16.39A4.26,4.26,0,1,1,89,38.58,4.26,4.26,0,0,1,84.72,42.84Z"/><path class="cls-1" d="M94.89,98.34A12.13,12.13,0,1,0,107,110.47,12.15,12.15,0,0,0,94.89,98.34Zm0,16.39a4.26,4.26,0,1,1,4.25-4.26A4.26,4.26,0,0,1,94.89,114.73Z"/><path class="cls-1" d="M69.43,51a12.11,12.11,0,0,0-15.34-7.56c-10,3.41-23.59,12.76-28.95,27.92-3,8.55-3.18,18-.45,28a12.14,12.14,0,0,0,11.67,8.92A12.09,12.09,0,0,0,48,93.05c-5.15-18.92,10.7-25.56,13.91-26.69A12.13,12.13,0,0,0,69.43,51ZM59.34,58.93c-9.75,3.43-24.71,14.92-18.91,36.19a4.21,4.21,0,0,1-.41,3.2,4.17,4.17,0,0,1-2.55,2,4.22,4.22,0,0,1-5.18-3C30,88.88,30.08,81,32.56,74h0C37,61.53,48.29,53.78,56.63,50.94a4.22,4.22,0,1,1,2.71,8Z"/><path class="cls-1" d="M121.57,67.06C112.4,61.81,96.4,57.8,81.48,63.8,73.07,67.18,65.9,73.29,60.18,82a12.12,12.12,0,0,0,3.44,16.75,12.09,12.09,0,0,0,16.75-3.44c10.79-16.38,26.25-8.87,29.22-7.21a12.09,12.09,0,0,0,12-21Zm-2.35,12.58a4.26,4.26,0,0,1-5.77,1.57c-9-5-27.53-8.67-39.66,9.74a4.11,4.11,0,0,1-2.66,1.8,4.21,4.21,0,0,1-4.37-6.44C71.58,79,77.52,73.87,84.42,71.1A35,35,0,0,1,97.5,68.65a42,42,0,0,1,20.15,5.24A4.22,4.22,0,0,1,119.22,79.64Z"/><circle cx="75" cy="75" r="74.44"/><path class="cls-1" d="M85.5,22.54A13.12,13.12,0,1,0,98.61,35.66,13.13,13.13,0,0,0,85.5,22.54Zm0,17.72a4.6,4.6,0,1,1,4.6-4.6A4.61,4.61,0,0,1,85.5,40.26Z"/><path class="cls-1" d="M96.48,100.27a13.12,13.12,0,1,0,13.12,13.12A13.13,13.13,0,0,0,96.48,100.27Zm0,17.72a4.6,4.6,0,1,1,4.61-4.6A4.61,4.61,0,0,1,96.48,118Z"/><path class="cls-1" d="M69,49.13A13.09,13.09,0,0,0,52.38,41c-10.82,3.68-25.51,13.8-31.31,30.19-3.27,9.24-3.43,19.43-.48,30.27a13.07,13.07,0,0,0,16.05,9.18,13.09,13.09,0,0,0,9.18-16c-5.58-20.45,11.57-27.63,15-28.85A13.13,13.13,0,0,0,69,49.13ZM58.05,57.66C47.51,61.38,31.34,73.8,37.6,96.8a4.56,4.56,0,0,1-3.2,5.59,4.57,4.57,0,0,1-5.59-3.21C26.32,90,26.41,81.57,29.1,74h0c4.78-13.52,17-21.9,26-25a4.67,4.67,0,0,1,1.47-.24,4.59,4.59,0,0,1,2,.47,4.54,4.54,0,0,1,2.3,2.62A4.59,4.59,0,0,1,58.05,57.66Z"/><path class="cls-1" d="M125.34,66.45c-9.92-5.68-27.22-10-43.35-3.53-9.1,3.66-16.85,10.27-23,19.66a13.09,13.09,0,0,0,3.72,18.1,13,13,0,0,0,7.17,2.17,12.59,12.59,0,0,0,2.66-.28A12.9,12.9,0,0,0,80.79,97c11.67-17.7,28.38-9.59,31.6-7.79a13.08,13.08,0,0,0,13-22.72Zm-2.55,13.61a4.59,4.59,0,0,1-6.23,1.69c-9.76-5.45-29.77-9.37-42.88,10.53a4.56,4.56,0,1,1-7.61-5c5.21-7.91,11.64-13.44,19.1-16.44a37.81,37.81,0,0,1,14.14-2.65,45.25,45.25,0,0,1,21.79,5.67A4.56,4.56,0,0,1,122.79,80.06Z"/></svg>