<?xml version="1.0" encoding="UTF-8" standalone="no"?>
<svg
   id="Layer_1"
   data-name="Layer 1"
   viewBox="0 0 32.000615 9.4859411"
   version="1.1"
   sodipodi:docname="SPAAM-Logo-Full-Colour_mini.svg"
   width="32.000614"
   height="9.4859409"
   inkscape:version="1.1.1 (1:1.1+202109281949+c3084ef5ed)"
   xmlns:inkscape="http://www.inkscape.org/namespaces/inkscape"
   xmlns:sodipodi="http://sodipodi.sourceforge.net/DTD/sodipodi-0.dtd"
   xmlns="http://www.w3.org/2000/svg"
   xmlns:svg="http://www.w3.org/2000/svg"
   xmlns:rdf="http://www.w3.org/1999/02/22-rdf-syntax-ns#"
   xmlns:cc="http://creativecommons.org/ns#"
   xmlns:dc="http://purl.org/dc/elements/1.1/">
  <sodipodi:namedview
     id="namedview1311"
     pagecolor="#ffffff"
     bordercolor="#666666"
     borderopacity="1.0"
     inkscape:pageshadow="2"
     inkscape:pageopacity="0.0"
     inkscape:pagecheckerboard="0"
     showgrid="false"
     inkscape:zoom="2.7631228"
     inkscape:cx="16.104966"
     inkscape:cy="-2.3524108"
     inkscape:window-width="1920"
     inkscape:window-height="1016"
     inkscape:window-x="0"
     inkscape:window-y="27"
     inkscape:window-maximized="1"
     inkscape:current-layer="Layer_1"
     fit-margin-top="0"
     fit-margin-left="0"
     fit-margin-right="0"
     fit-margin-bottom="0" />
  <defs
     id="defs1172">
    <style
       id="style1170">.cls-1{fill:#020202;}.cls-2{fill:#2ab675;}.cls-3{fill:#ee4890;}.cls-4{fill:#fc6;}.cls-5{fill:#74d1f6;}</style>
  </defs>
  <title
     id="title1174">SPAAM-Logo-Full-Colour</title>
  <path
     class="cls-1"
     d="m 4.8744725,3.4682743 a 0.25918236,0.25918236 0 0 1 0.31102,-0.413766 1.3477483,1.3477483 0 0 0 0.87104,0.320275 c 0.33786,0 0.55539,-0.160137 0.55539,-0.39155 v -0.0083 c 0,-0.222156 -0.12404,-0.342491 -0.70164,-0.475785 -0.66277,-0.160137 -1.03581,-0.35545 -1.03581,-0.925651 v -0.01203 c 0,-0.533175 0.44432,-0.90251005 1.06173,-0.90251005 a 1.7124549,1.7124549 0 0 1 0.98767,0.288804 0.24714889,0.24714889 0 0 1 0.11941,0.21752805 0.2545541,0.2545541 0 0 1 -0.25734,0.253628 0.26288496,0.26288496 0 0 1 -0.14255,-0.0398 1.2959118,1.2959118 0 0 0 -0.71552,-0.236041 c -0.32028,0 -0.50726,0.164766 -0.50726,0.370261 v 0.0093 c 0,0.239744 0.14255,0.346194 0.74052,0.488744 0.65814,0.160138 0.996,0.395253 0.996,0.910841 v 0.0093 c 0,0.582235 -0.46283,0.925652 -1.11078,0.925652 a 1.9373881,1.9373881 0 0 1 -1.17188,-0.388774 z"
     id="path1176"
     style="stroke-width:0.0925651" />
  <path
     class="cls-1"
     d="m 8.0216925,0.97919825 a 0.27121583,0.27121583 0 0 1 0.27769,-0.277696 h 0.95157 c 0.72942,0 1.1820605,0.41376705 1.1820605,1.04043205 v 0.0083 c 0,0.697941 -0.5553905,1.062648 -1.2440705,1.062648 h -0.61834 v 0.750703 a 0.27769539,0.27769539 0 0 1 -0.54613,0 z m 1.18206,1.34126805 c 0.41376,0 0.67109,-0.231412 0.67109,-0.55539 v -0.0093 c 0,-0.364706 -0.26196,-0.555391 -0.67109,-0.555391 h -0.63593 v 1.120038 z"
     id="path1178"
     style="stroke-width:0.0925651" />
  <path
     class="cls-1"
     d="m 10.786613,3.4590183 1.15521,-2.57793905 a 0.34804488,0.34804488 0 0 1 0.32953,-0.222157 h 0.0268 a 0.33971402,0.33971402 0 0 1 0.32398,0.222157 l 1.15613,2.57793905 a 0.23789238,0.23789238 0 0 1 0.0305,0.115706 0.25547975,0.25547975 0 0 1 -0.25733,0.261959 0.27769539,0.27769539 0 0 1 -0.26659,-0.190684 l -0.25363,-0.585011 h -1.51159 l -0.26195,0.599822 a 0.26288496,0.26288496 0 0 1 -0.25363,0.173096 0.24992585,0.24992585 0 0 1 -0.25363,-0.252702 0.27769539,0.27769539 0 0 1 0.0361,-0.122186 z m 2.03643,-0.880295 -0.54613,-1.257034 -0.54706,1.257034 z"
     id="path1180"
     style="stroke-width:0.0925651" />
  <path
     class="cls-1"
     d="m 14.431823,3.4590183 1.15614,-2.57793905 a 0.34619358,0.34619358 0 0 1 0.32861,-0.222157 h 0.0231 a 0.33971402,0.33971402 0 0 1 0.32398,0.222157 l 1.15706,2.57793905 a 0.23789238,0.23789238 0 0 1 0.0306,0.115706 0.25547975,0.25547975 0 0 1 -0.257329,0.261959 0.27769539,0.27769539 0 0 1 -0.266591,-0.190684 l -0.24715,-0.585011 h -1.51529 l -0.261959,0.599822 a 0.26288496,0.26288496 0 0 1 -0.25363,0.173096 0.24992585,0.24992585 0 0 1 -0.2527,-0.252702 0.27769539,0.27769539 0 0 1 0.0352,-0.122186 z m 2.03644,-0.880295 -0.54614,-1.257034 -0.54706,1.257034 z"
     id="path1182"
     style="stroke-width:0.0925651" />
  <path
     class="cls-1"
     d="m 18.267723,0.96161025 a 0.27769539,0.27769539 0 0 1 0.2777,-0.277695 h 0.0583 a 0.2869519,0.2869519 0 0 1 0.25271,0.146253 l 0.94231,1.47641405 0.94694,-1.48104205 a 0.27769539,0.27769539 0 0 1 0.249,-0.141625 h 0.0574 a 0.27769539,0.27769539 0 0 1 0.2777,0.277695 V 2.7832923 a 0.27029018,0.27029018 0 0 1 -0.2777,0.271216 0.27769539,0.27769539 0 0 1 -0.27214,-0.271216 v -1.083938 l -0.76088,1.142254 a 0.25547975,0.25547975 0 0 1 -0.45728,0 l -0.75255,-1.133923 v 1.862411 a 0.26566192,0.26566192 0 0 1 -0.2777,0.266587 0.26195931,0.26195931 0 0 1 -0.26751,-0.266587 z"
     id="path1184"
     style="stroke-width:0.0925651" />
  <path
     class="cls-1"
     d="m 15.868433,9.4859333 a 0.23696673,0.23696673 0 0 1 -0.23696,-0.237892 V 6.0887933 H 0.2378925 a 0.2378925,0.2378925 0 0 1 0,-0.475785 H 15.868432 a 0.23789238,0.23789238 0 0 1 0.2379,0.237892 v 2.862114 l 3.36196,-3.038913 a 0.23881803,0.23881803 0 0 1 0.15921,-0.06109 h 3.46009 V 0.23682825 a 0.23789238,0.23789238 0 0 1 0.47578,0 V 5.8509033 a 0.23789238,0.23789238 0 0 1 -0.23789,0.237893 h -3.61004 l -3.691499,3.332345 a 0.23418978,0.23418978 0 0 1 -0.15551,0.0648 z"
     id="path1186"
     style="stroke-width:0.0925651" />
  <path
     class="cls-2"
     d="m 21.088183,3.6969103 a 0.16291463,0.16291463 0 1 0 0.16292,0.161989 0.16198897,0.16198897 0 0 0 -0.16292,-0.161989 z"
     id="path1188"
     style="stroke-width:0.0925651" />
  <path
     d="m 21.088183,3.3960733 a 0.46282564,0.46282564 0 1 0 0.46283,0.462826 0.46282564,0.46282564 0 0 0 -0.46283,-0.462826 z m 0,0.625741 a 0.16291463,0.16291463 0 1 1 0.16292,-0.162915 0.16198897,0.16198897 0 0 1 -0.16292,0.162915 z"
     id="path1190"
     style="stroke-width:0.0925651" />
  <path
     class="cls-3"
     d="m 2.3909525,0.68391525 a 0.16291463,0.16291463 0 1 0 0.16292,0.162915 0.16198897,0.16198897 0 0 0 -0.16292,-0.162915 z"
     id="path1192"
     style="stroke-width:0.0925651" />
  <path
     d="m 2.3909525,0.38307825 a 0.46282564,0.46282564 0 1 0 0.46283,0.462826 0.46282564,0.46282564 0 0 0 -0.46283,-0.462826 z m 0,0.62574105 a 0.16291463,0.16291463 0 1 1 0.16292,-0.16198905 0.16198897,0.16198897 0 0 1 -0.16292,0.16198905 z"
     id="path1194"
     style="stroke-width:0.0925651" />
  <path
     class="cls-4"
     d="m 2.7797325,3.4312483 a 0.16291463,0.16291463 0 1 0 0.16198,0.161989 0.16198897,0.16198897 0 0 0 -0.16198,-0.161989 z"
     id="path1196"
     style="stroke-width:0.0925651" />
  <path
     d="m 2.7797325,3.1294863 a 0.46282564,0.46282564 0 1 0 0.46282,0.462825 0.46282564,0.46282564 0 0 0 -0.46282,-0.462825 z m 0,0.62574 a 0.16291463,0.16291463 0 1 1 0.16198,-0.162915 0.16291463,0.16291463 0 0 1 -0.16198,0.162915 z"
     id="path1198"
     style="stroke-width:0.0925651" />
  <path
     class="cls-2"
     d="m 1.5217725,1.4188823 a 0.15921202,0.15921202 0 0 0 -0.0805,-0.09256 0.16384028,0.16384028 0 0 0 -0.0713,-0.01666 0.1425503,0.1425503 0 0 0 -0.0518,0.0093 1.5208451,1.5208451 0 0 0 -0.91917,0.882145 v 0 a 1.4662316,1.4662316 0 0 0 -0.0102,0.889551 0.16198897,0.16198897 0 0 0 0.19809,0.11293 0.15828637,0.15828637 0 0 0 0.0972,-0.07498 0.16106332,0.16106332 0 0 0 0.0157,-0.122186 c -0.21846,-0.812722 0.34897,-1.25148 0.72201,-1.382923 a 0.16106332,0.16106332 0 0 0 0.1,-0.204569 z"
     id="path1200"
     style="stroke-width:0.0925651" />
  <path
     d="m 1.8068725,1.3226143 a 0.46282564,0.46282564 0 0 0 -0.58502,-0.288803 c -0.38322,0.130517 -0.90158,0.487818 -1.11078,1.06635 a 1.765217,1.765217 0 0 0 -0.0167,1.070053 0.46282564,0.46282564 0 0 0 0.44617,0.339714 0.44801522,0.44801522 0 0 0 0.12033,-0.01574 0.46282564,0.46282564 0 0 0 0.3249,-0.567424 c -0.19716,-0.722008 0.40822,-0.975636 0.53133,-1.018216 a 0.46282564,0.46282564 0 0 0 0.28973,-0.585938 z m -0.38507,0.300837 c -0.37027,0.131443 -0.94417,0.570201 -0.72294,1.382923 a 0.16106332,0.16106332 0 0 1 -0.0157,0.122186 0.15828637,0.15828637 0 0 1 -0.0972,0.07498 0.16198897,0.16198897 0 0 1 -0.19716,-0.11293 1.4662316,1.4662316 0 0 1 0.0111,-0.889551 v 0 a 1.5208451,1.5208451 0 0 1 0.91454,-0.882145 0.1425503,0.1425503 0 0 1 0.0518,-0.0093 0.16384028,0.16384028 0 0 1 0.0713,0.01666 0.15921202,0.15921202 0 0 1 0.0805,0.09256 0.16106332,0.16106332 0 0 1 -0.0963,0.204569 z"
     id="path1202"
     style="stroke-width:0.0925651" />
  <path
     class="cls-5"
     d="m 3.6489125,2.1955043 a 1.5995254,1.5995254 0 0 0 -0.77014,-0.200867 1.3310865,1.3310865 0 0 0 -0.49893,0.09257 1.4680829,1.4680829 0 0 0 -0.6748,0.580384 0.16106332,0.16106332 0 0 0 0.0454,0.223082 0.16198897,0.16198897 0 0 0 0.22308,-0.04536 c 0.46283,-0.703495 1.17003,-0.564648 1.51529,-0.370261 a 0.16106332,0.16106332 0 1 0 0.16014,-0.277695 z"
     id="path1204"
     style="stroke-width:0.0925651" />
  <path
     d="m 3.7988725,1.9344703 c -0.35082,-0.200866 -0.96175,-0.354525 -1.53196,-0.124963 a 1.7707709,1.7707709 0 0 0 -0.81364,0.69609 0.46282564,0.46282564 0 0 0 0.13144,0.639625 0.45634608,0.45634608 0 0 0 0.25363,0.07683 0.46282564,0.46282564 0 0 0 0.0926,-0.0093 0.46282564,0.46282564 0 0 0 0.29251,-0.199015 c 0.41191,-0.624814 1.00248,-0.338788 1.11078,-0.277695 a 0.46321757,0.46321757 0 0 0 0.46283,-0.80254 z m -0.0926,0.480413 a 0.16291463,0.16291463 0 0 1 -0.2203,0.06017 c -0.34527,-0.192535 -1.05154,-0.331383 -1.51529,0.370261 a 0.16198897,0.16198897 0 0 1 -0.22309,0.04536 0.16106332,0.16106332 0 0 1 -0.0453,-0.223082 1.4680829,1.4680829 0 0 1 0.6748,-0.580384 1.3310865,1.3310865 0 0 1 0.49892,-0.09257 1.5995254,1.5995254 0 0 1 0.77015,0.200867 0.16198897,0.16198897 0 0 1 0.0629,0.217528 z"
     id="path1206"
     style="stroke-width:0.0925651" />
  <path
     class="cls-1"
     d="m 25.212883,0.90977425 a 0.05646473,0.05646473 0 0 1 -0.0222,-0.04443 0.05368777,0.05368777 0 0 1 0.0546,-0.05369 0.05276212,0.05276212 0 0 1 0.0333,0.01018 0.2869519,0.2869519 0 0 0 0.18513,0.06757 c 0.0713,0 0.11663,-0.03332 0.11663,-0.08238 v 0 c 0,-0.04721 -0.0268,-0.07313 -0.14903,-0.100896 -0.13978,-0.03425 -0.21938,-0.0759 -0.21938,-0.197164 v 0 a 0.20179198,0.20179198 0 0 1 0.22493,-0.190684 0.36007835,0.36007835 0 0 1 0.2092,0.06109 0.05276212,0.05276212 0 0 1 0.0259,0.04628 0.05461343,0.05461343 0 0 1 -0.0546,0.05369 0.05553908,0.05553908 0 0 1 -0.0305,-0.0083 0.27214148,0.27214148 0 0 0 -0.15181,-0.04998 c -0.0676,0 -0.10737,0.03425 -0.10737,0.07775 v 0 c 0,0.05091 0.0305,0.07313 0.15736,0.103673 0.12681,0.03055 0.21104,0.08331 0.21104,0.192535 v 0 c 0,0.124037 -0.0926,0.197164 -0.23511,0.197164 a 0.41191482,0.41191482 0 0 1 -0.248079,-0.08238 z"
     id="path1208"
     style="stroke-width:0.0925651" />
  <path
     class="cls-1"
     d="m 25.837703,0.84497825 v -0.261033 h -0.0185 a 0.04905952,0.04905952 0 0 1 -0.0491,-0.04906 0.04905952,0.04905952 0 0 1 0.0491,-0.04906 h 0.0185 v -0.08516 a 0.05739038,0.05739038 0 0 1 0.0574,-0.05647 0.05646473,0.05646473 0 0 1 0.0565,0.05647 v 0.08516 h 0.0926 a 0.04905952,0.04905952 0 0 1 0.05,0.04906 0.04998517,0.04998517 0 0 1 -0.05,0.04906 h -0.0926 v 0.243446 a 0.05461343,0.05461343 0 0 0 0.062,0.06202 0.26473627,0.26473627 0 0 0 0.0278,0 0.04720822,0.04720822 0 0 1 0.0481,0.04721 0.04905952,0.04905952 0 0 1 -0.0305,0.04443 0.22400761,0.22400761 0 0 1 -0.0778,0.01296 0.12773988,0.12773988 0 0 1 -0.14347,-0.14903 z"
     id="path1210"
     style="stroke-width:0.0925651" />
  <path
     class="cls-1"
     d="m 26.168163,0.83942425 v 0 c 0,-0.107375 0.0842,-0.160137 0.20549,-0.160137 a 0.39062484,0.39062484 0 0 1 0.13329,0.02129 v -0.01296 c 0,-0.07035 -0.0426,-0.107376 -0.12311,-0.107376 a 0.30083667,0.30083667 0 0 0 -0.11015,0.01944 h -0.0176 a 0.04720822,0.04720822 0 0 1 -0.0481,-0.04721 0.04998517,0.04998517 0 0 1 0.0315,-0.04536 0.42579959,0.42579959 0 0 1 0.15921,-0.0287 0.21937935,0.21937935 0 0 1 0.16477,0.05554 0.20364328,0.20364328 0 0 1 0.0537,0.153658 v 0.244372 a 0.05368777,0.05368777 0 0 1 -0.0555,0.05461 0.05183647,0.05183647 0 0 1 -0.0555,-0.04813 v -0.01851 a 0.20271763,0.20271763 0 0 1 -0.16199,0.0722 0.15921202,0.15921202 0 0 1 -0.17587,-0.152733 z m 0.34064,-0.03517 v -0.03425 a 0.31749839,0.31749839 0 0 0 -0.10923,-0.02314 c -0.0731,0 -0.11663,0.03055 -0.11663,0.08238 v 0 c 0,0.04813 0.0426,0.0759 0.0972,0.0759 0.0713,0.0056 0.12867,-0.03795 0.12867,-0.100896 z"
     id="path1212"
     style="stroke-width:0.0925651" />
  <path
     class="cls-1"
     d="m 26.754093,0.53766225 a 0.05553908,0.05553908 0 0 1 0.0565,-0.05739 0.05739038,0.05739038 0 0 1 0.0574,0.05739 v 0.02407 a 0.1786507,0.1786507 0 0 1 0.15551,-0.08609 0.17031984,0.17031984 0 0 1 0.176799,0.189759 v 0.266588 a 0.05739038,0.05739038 0 0 1 -0.113859,0 v -0.231413 c 0,-0.07775 -0.0389,-0.121261 -0.10645,-0.121261 a 0.1101525,0.1101525 0 0 0 -0.112,0.123112 v 0.229562 a 0.05646473,0.05646473 0 0 1 -0.0574,0.05646 0.05553908,0.05553908 0 0 1 -0.0565,-0.05646 z"
     id="path1214"
     style="stroke-width:0.0925651" />
  <path
     class="cls-1"
     d="m 27.826003,0.93199025 a 0.05739038,0.05739038 0 0 1 -0.11386,0 v -0.03147 a 0.19994068,0.19994068 0 0 1 -0.16939,0.09257 0.23881803,0.23881803 0 0 1 -0.23049,-0.258257 v 0 a 0.23696673,0.23696673 0 0 1 0.23049,-0.257331 0.20364328,0.20364328 0 0 1 0.16939,0.08701 v -0.217528 a 0.05739038,0.05739038 0 0 1 0.11386,0 z m -0.39896,-0.19809 v 0 a 0.14810421,0.14810421 0 0 0 0.14255,0.159212 0.14995551,0.14995551 0 0 0 0.1444,-0.159212 v 0 a 0.14995551,0.14995551 0 0 0 -0.1444,-0.159212 0.1462529,0.1462529 0 0 0 -0.14255,0.158287 z"
     id="path1216"
     style="stroke-width:0.0925651" />
  <path
     class="cls-1"
     d="m 27.936153,0.83942425 v 0 c 0,-0.107375 0.0833,-0.160137 0.2055,-0.160137 a 0.39432745,0.39432745 0 0 1 0.13329,0.02129 v -0.01296 c 0,-0.07035 -0.0435,-0.107376 -0.12311,-0.107376 a 0.29713406,0.29713406 0 0 0 -0.11016,0.01944 0.06386994,0.06386994 0 0 1 -0.0185,0 0.04720822,0.04720822 0 0 1 -0.0472,-0.04721 0.04998517,0.04998517 0 0 1 0.0306,-0.04536 0.43413045,0.43413045 0 0 1 0.16014,-0.0287 0.22215631,0.22215631 0 0 1 0.16476,0.05554 0.20364328,0.20364328 0 0 1 0.0537,0.153658 v 0.244372 a 0.05461343,0.05461343 0 0 1 -0.0555,0.05461 0.05091082,0.05091082 0 0 1 -0.0555,-0.04813 v -0.01851 a 0.20549459,0.20549459 0 0 1 -0.16199,0.0722 0.15828637,0.15828637 0 0 1 -0.17587,-0.152733 z m 0.34064,-0.03517 v -0.03425 a 0.321201,0.321201 0 0 0 -0.11293,-0.01944 c -0.0731,0 -0.11663,0.03055 -0.11663,0.08238 v 0 c 0,0.04813 0.0426,0.0759 0.0972,0.0759 0.075,0.0019 0.13237,-0.04165 0.13237,-0.104598 z"
     id="path1218"
     style="stroke-width:0.0925651" />
  <path
     class="cls-1"
     d="m 28.521163,0.53766225 a 0.05739038,0.05739038 0 1 1 0.113859,0 v 0.05091 a 0.15921202,0.15921202 0 0 1 0.12589,-0.109227 0.05276212,0.05276212 0 0 1 0.0565,0.05647 0.05461343,0.05461343 0 0 1 -0.0454,0.05461 c -0.0814,0.01389 -0.13699,0.0759 -0.13699,0.193461 v 0.148105 a 0.05646473,0.05646473 0 0 1 -0.0574,0.05646 0.05646473,0.05646473 0 0 1 -0.0565,-0.05646 z"
     id="path1220"
     style="stroke-width:0.0925651" />
  <path
     class="cls-1"
     d="m 29.384793,0.93199025 a 0.05785321,0.05785321 0 0 1 -0.115701,0 v -0.03147 a 0.19994068,0.19994068 0 0 1 -0.169399,0.09257 0.23881803,0.23881803 0 0 1 -0.231411,-0.258257 v 0 a 0.23696673,0.23696673 0 0 1 0.231411,-0.257331 0.20364328,0.20364328 0 0 1 0.169399,0.08423 v -0.214751 a 0.05646473,0.05646473 0 0 1 0.0565,-0.05646 0.05646473,0.05646473 0 0 1 0.0574,0.05646 z m -0.398951,-0.19809 v 0 a 0.14810421,0.14810421 0 0 0 0.14255,0.159212 0.14995551,0.14995551 0 0 0 0.1407,-0.158286 v 0 a 0.14995551,0.14995551 0 0 0 -0.144399,-0.159212 0.1462529,0.1462529 0 0 0 -0.13885,0.157361 z"
     id="path1222"
     style="stroke-width:0.0925651" />
  <path
     class="cls-1"
     d="m 29.508833,0.93199025 a 0.04443126,0.04443126 0 0 1 -0.0222,-0.0398 0.04628256,0.04628256 0 0 1 0.0463,-0.04628 0.04443126,0.04443126 0 0 1 0.025,0.0074 0.26381062,0.26381062 0 0 0 0.14255,0.04721 c 0.0491,0 0.0778,-0.02036 0.0778,-0.05369 v 0 c 0,-0.03795 -0.0528,-0.05184 -0.11108,-0.06942 -0.074,-0.02036 -0.15551,-0.05091 -0.15551,-0.146253 v 0 a 0.15828637,0.15828637 0 0 1 0.1768,-0.150881 0.34711923,0.34711923 0 0 1 0.15643,0.0398 0.04998517,0.04998517 0 0 1 0.0268,0.0435 0.04720822,0.04720822 0 0 1 -0.0694,0.04073 0.27769539,0.27769539 0 0 0 -0.11663,-0.03425 c -0.0444,0 -0.0694,0.02129 -0.0694,0.04906 v 0 c 0,0.03703 0.0537,0.05184 0.112,0.07128 0.0722,0.02222 0.15459,0.05554 0.15459,0.144401 v 0 c 0,0.104599 -0.0815,0.156435 -0.18514,0.156435 a 0.33693707,0.33693707 0 0 1 -0.18883,-0.05924 z"
     id="path1224"
     style="stroke-width:0.0925651" />
  <path
     class="cls-1"
     d="m 29.977213,1.0671353 a 0.08053166,0.08053166 0 0 0 0.0639,-0.08423 0.06942385,0.06942385 0 0 1 -0.0537,-0.06387 v -0.0074 a 0.06201864,0.06201864 0 0 1 0.0648,-0.06387 c 0.0417,0 0.0676,0.0324 0.0676,0.08331 v 0.01018 a 0.19160982,0.19160982 0 0 1 -0.0463,0.13792205 0.14532725,0.14532725 0 0 1 -0.0926,0.0398 0.02591824,0.02591824 0 0 1 -0.0287,-0.02592 0.02684389,0.02684389 0 0 1 0.025,-0.02592 z"
     id="path1226"
     style="stroke-width:0.0925651" />
  <path
     class="cls-1"
     d="m 25.230473,1.5114473 a 0.05739038,0.05739038 0 0 1 0.0583,-0.05832 h 0.20086 c 0.15459,0 0.25086,0.08794 0.25086,0.220305 v 0 c 0,0.148104 -0.11849,0.224934 -0.26381,0.224934 h -0.13052 v 0.159212 a 0.05831603,0.05831603 0 0 1 -0.11571,0 z m 0.24993,0.284175 c 0.0879,0 0.14255,-0.04906 0.14255,-0.117557 v 0 c 0,-0.07683 -0.0555,-0.117558 -0.14255,-0.117558 h -0.13422 v 0.236967 z"
     id="path1228"
     style="stroke-width:0.0925651" />
  <path
     class="cls-1"
     d="m 25.844183,1.6669573 a 0.05553908,0.05553908 0 0 1 0.0565,-0.05739 0.05739038,0.05739038 0 0 1 0.0574,0.05739 v 0.05091 a 0.15736072,0.15736072 0 0 1 0.12497,-0.109227 0.05276212,0.05276212 0 0 1 0.0565,0.05646 0.05368777,0.05368777 0 0 1 -0.0454,0.05461 c -0.0805,0.01389 -0.13607,0.0759 -0.13607,0.193461 v 0.147178 a 0.05646473,0.05646473 0 0 1 -0.0574,0.05647 0.05553908,0.05553908 0 0 1 -0.0565,-0.05647 z"
     id="path1230"
     style="stroke-width:0.0925651" />
  <path
     class="cls-1"
     d="m 26.444933,2.1233033 a 0.24807454,0.24807454 0 0 1 -0.25456,-0.257331 v 0 a 0.24714889,0.24714889 0 0 1 0.24252,-0.259183 0.23418978,0.23418978 0 0 1 0.23604,0.244372 0.05276212,0.05276212 0 0 1 -0.0537,0.05461 h -0.30825 a 0.13884769,0.13884769 0 0 0 0.14255,0.126814 0.17957635,0.17957635 0 0 0 0.11756,-0.04351 0.04628256,0.04628256 0 0 1 0.0296,-0.01018 0.04443126,0.04443126 0 0 1 0.0454,0.04536 0.04905952,0.04905952 0 0 1 -0.0148,0.03517 0.25547975,0.25547975 0 0 1 -0.18235,0.06387 z m 0.11293,-0.294357 a 0.12866553,0.12866553 0 0 0 -0.12589,-0.130517 0.13329378,0.13329378 0 0 0 -0.12497,0.130517 z"
     id="path1232"
     style="stroke-width:0.0925651" />
  <path
     class="cls-1"
     d="m 26.758723,1.8668973 v 0 a 0.25640541,0.25640541 0 0 1 0.25826,-0.260108 0.25177715,0.25177715 0 0 1 0.17495,0.06202 0.05368777,0.05368777 0 0 1 0.0176,0.0398 0.05183647,0.05183647 0 0 1 -0.0528,0.05184 0.06294429,0.06294429 0 0 1 -0.0342,-0.01203 0.15828637,0.15828637 0 0 0 -0.10645,-0.04165 0.14902986,0.14902986 0 0 0 -0.14347,0.15736 v 0 a 0.14995551,0.14995551 0 0 0 0.14903,0.158287 0.16939419,0.16939419 0 0 0 0.111079,-0.04351 0.04720822,0.04720822 0 0 1 0.0796,0.03703 0.04443126,0.04443126 0 0 1 -0.0157,0.0361 0.24344629,0.24344629 0 0 1 -0.18514,0.07035 0.25362845,0.25362845 0 0 1 -0.2527,-0.25548 z"
     id="path1234"
     style="stroke-width:0.0925651" />
  <path
     class="cls-1"
     d="m 27.290053,1.9687193 v 0 c 0,-0.107376 0.0842,-0.160138 0.205489,-0.160138 a 0.41376612,0.41376612 0 0 1 0.13329,0.02129 v -0.01203 c 0,-0.07127 -0.0426,-0.108301 -0.12311,-0.108301 a 0.30083667,0.30083667 0 0 0 -0.11015,0.01944 h -0.0176 a 0.04720822,0.04720822 0 0 1 -0.0481,-0.04721 0.05091082,0.05091082 0 0 1 0.0315,-0.04536 0.42579959,0.42579959 0 0 1 0.15921,-0.02869 0.21937935,0.21937935 0 0 1 0.16477,0.05554 0.20456893,0.20456893 0 0 1 0.0537,0.153658 v 0.244372 a 0.05368777,0.05368777 0 0 1 -0.0555,0.05461 0.05183647,0.05183647 0 0 1 -0.0555,-0.04813 v -0.01851 a 0.19994068,0.19994068 0 0 1 -0.16199,0.0722 0.15921202,0.15921202 0 0 1 -0.17587,-0.152732 z m 0.34064,-0.03517 v -0.03425 a 0.31749839,0.31749839 0 0 0 -0.11293,-0.01944 c -0.0731,0 -0.11664,0.03055 -0.11664,0.08238 v 0 c 0,0.04813 0.0426,0.0759 0.0972,0.0759 0.075,0.0046 0.132371,-0.04165 0.132371,-0.104599 z"
     id="path1236"
     style="stroke-width:0.0925651" />
  <path
     class="cls-1"
     d="m 28.317523,2.0603583 a 0.05646473,0.05646473 0 0 1 -0.0574,0.05647 0.05646473,0.05646473 0 0 1 -0.0574,-0.05647 v -0.02499 a 0.18513026,0.18513026 0 0 1 -0.15551,0.08701 0.17031984,0.17031984 0 0 1 -0.1768,-0.190684 v -0.264736 a 0.05646473,0.05646473 0 0 1 0.0565,-0.05739 0.05739038,0.05739038 0 0 1 0.0574,0.05739 v 0.230487 c 0,0.07683 0.038,0.120335 0.10645,0.120335 a 0.1101525,0.1101525 0 0 0 0.11201,-0.122186 v -0.228636 a 0.05646473,0.05646473 0 0 1 0.0574,-0.05739 0.05739038,0.05739038 0 0 1 0.0574,0.05739 z"
     id="path1238"
     style="stroke-width:0.0925651" />
  <path
     class="cls-1"
     d="m 28.483213,1.9742733 v -0.261034 h -0.0194 a 0.04905952,0.04905952 0 0 1 -0.0491,-0.04906 0.04905952,0.04905952 0 0 1 0.0491,-0.04906 h 0.0194 v -0.08516 a 0.05739038,0.05739038 0 0 1 0.113859,0 v 0.08516 h 0.0926 a 0.04905952,0.04905952 0 0 1 0.05,0.04906 0.04998517,0.04998517 0 0 1 -0.05,0.04906 h -0.0926 v 0.243447 a 0.05368777,0.05368777 0 0 0 0.0611,0.06202 0.26473627,0.26473627 0 0 0 0.0278,0 0.04813387,0.04813387 0 0 1 0.0481,0.04721 0.04998517,0.04998517 0 0 1 -0.0296,0.04443 0.23326412,0.23326412 0 0 1 -0.0787,0.01296 0.12773988,0.12773988 0 0 1 -0.14255,-0.14903 z"
     id="path1240"
     style="stroke-width:0.0925651" />
  <path
     class="cls-1"
     d="m 28.844213,1.4818263 a 0.06572124,0.06572124 0 0 1 0.1296,0 v 0.0056 a 0.06572124,0.06572124 0 0 1 -0.1296,0 z m 0.008,0.185131 a 0.05739038,0.05739038 0 1 1 0.11385,0 v 0.393401 a 0.05739038,0.05739038 0 0 1 -0.11385,0 z"
     id="path1242"
     style="stroke-width:0.0925651" />
  <path
     class="cls-1"
     d="m 29.083963,1.8668973 v 0 a 0.26566192,0.26566192 0 0 1 0.530399,0 v 0 a 0.26010801,0.26010801 0 0 1 -0.26659,0.258257 0.25733106,0.25733106 0 0 1 -0.263809,-0.258257 z m 0.41654,0 v 0 a 0.15365811,0.15365811 0 0 0 -0.15273,-0.160137 0.14902986,0.14902986 0 0 0 -0.14996,0.15736 v 0 a 0.15365811,0.15365811 0 0 0 0.15181,0.158287 0.14902986,0.14902986 0 0 0 0.15458,-0.15551 z"
     id="path1244"
     style="stroke-width:0.0925651" />
  <path
     class="cls-1"
     d="m 29.731913,1.6669573 a 0.05553908,0.05553908 0 0 1 0.0565,-0.05739 0.05739038,0.05739038 0 0 1 0.0574,0.05739 v 0.02407 a 0.18513026,0.18513026 0 0 1 0.15551,-0.08609 0.17031984,0.17031984 0 0 1 0.176799,0.18513 v 0.265662 a 0.05739038,0.05739038 0 0 1 -0.113859,0 v -0.225859 c 0,-0.07775 -0.0389,-0.12126 -0.10645,-0.12126 a 0.11107815,0.11107815 0 0 0 -0.112,0.123112 v 0.228635 a 0.05646473,0.05646473 0 0 1 -0.0574,0.05647 0.05553908,0.05553908 0 0 1 -0.0565,-0.05647 z"
     id="path1246"
     style="stroke-width:0.0925651" />
  <path
     class="cls-1"
     d="m 30.298413,2.0622103 a 0.04350561,0.04350561 0 0 1 -0.0213,-0.0398 0.04443126,0.04443126 0 0 1 0.0454,-0.04536 0.04998517,0.04998517 0 0 1 0.025,0.0065 0.26751322,0.26751322 0 0 0 0.14255,0.04813 c 0.0491,0 0.0778,-0.02129 0.0778,-0.05369 v 0 c 0,-0.03888 -0.0528,-0.05184 -0.11108,-0.07035 -0.074,-0.02036 -0.15551,-0.05091 -0.15551,-0.145327 v 0 a 0.15828637,0.15828637 0 0 1 0.1768,-0.151807 0.33693707,0.33693707 0 0 1 0.15643,0.04073 0.04720822,0.04720822 0 0 1 0.0268,0.04258 0.04720822,0.04720822 0 0 1 -0.0694,0.04073 0.27769539,0.27769539 0 0 0 -0.11663,-0.03425 c -0.0444,0 -0.0694,0.02129 -0.0694,0.04906 v 0 c 0,0.03703 0.0537,0.05184 0.112,0.07127 0.0583,0.01944 0.15459,0.05554 0.15459,0.144401 v 0 c 0,0.104599 -0.0815,0.156435 -0.18513,0.156435 a 0.33693707,0.33693707 0 0 1 -0.18884,-0.05924 z"
     id="path1248"
     style="stroke-width:0.0925651" />
  <path
     class="cls-1"
     d="m 31.523973,2.1038643 -0.0685,-0.06942 a 0.2869519,0.2869519 0 0 1 -0.20365,0.08701 0.19438677,0.19438677 0 0 1 -0.21567,-0.18513 v 0 a 0.19808937,0.19808937 0 0 1 0.1407,-0.18513 0.20919719,0.20919719 0 0 1 -0.0546,-0.136996 v 0 a 0.17217114,0.17217114 0 0 1 0.18513,-0.165692 0.16198897,0.16198897 0 0 1 0.18328,0.152732 v 0 c 0,0.08609 -0.0574,0.137922 -0.14347,0.171246 l 0.111999,0.113855 a 0.90528696,0.90528696 0 0 0 0.0546,-0.09257 0.04813387,0.04813387 0 0 1 0.0426,-0.02684 0.04998517,0.04998517 0 0 1 0.05,0.04906 0.05924168,0.05924168 0 0 1 -0.006,0.02499 1.0182164,1.0182164 0 0 1 -0.0713,0.115707 l 0.0731,0.07405 a 0.05183647,0.05183647 0 0 1 0.0185,0.03888 0.04998517,0.04998517 0 0 1 -0.0509,0.05184 0.05183647,0.05183647 0 0 1 -0.0454,-0.01759 z m -0.13607,-0.136996 -0.14625,-0.14903 a 0.12403727,0.12403727 0 0 0 -0.0926,0.110152 v 0 a 0.09997034,0.09997034 0 0 0 0.11015,0.09257 0.17957635,0.17957635 0 0 0 0.12866,-0.05369 z m -0.005,-0.357302 v 0 a 0.0703495,0.0703495 0 0 0 -0.0741,-0.07405 0.07497775,0.07497775 0 0 0 -0.0787,0.07868 v 0 a 0.140699,0.140699 0 0 0 0.0491,0.09812 c 0.0685,-0.02499 0.10368,-0.05461 0.10368,-0.102748 z"
     id="path1250"
     style="stroke-width:0.0925651" />
  <path
     class="cls-1"
     d="m 25.196223,3.1665123 0.24437,-0.546134 a 0.0740521,0.0740521 0 0 1 0.0704,-0.04721 h 0.006 a 0.0722008,0.0722008 0 0 1 0.0685,0.04721 l 0.24437,0.546134 a 0.04998517,0.04998517 0 0 1 0.006,0.02407 0.05368777,0.05368777 0 0 1 -0.0546,0.05554 0.06016733,0.06016733 0 0 1 -0.0565,-0.04073 l -0.0528,-0.123111 h -0.32028 l -0.0555,0.127739 a 0.05553908,0.05553908 0 0 1 -0.0537,0.0361 0.05276212,0.05276212 0 0 1 -0.0537,-0.05369 0.05831603,0.05831603 0 0 1 0.007,-0.02592 z m 0.43136,-0.18513 -0.11571,-0.265662 -0.11571,0.265662 z"
     id="path1252"
     style="stroke-width:0.0925651" />
  <path
     class="cls-1"
     d="m 26.419013,3.1896533 a 0.05739038,0.05739038 0 0 1 -0.11386,0 v -0.03055 a 0.19901503,0.19901503 0 0 1 -0.16939,0.09256 0.23789238,0.23789238 0 0 1 -0.23049,-0.257331 v 0 a 0.23789238,0.23789238 0 0 1 0.23049,-0.258257 0.20456893,0.20456893 0 0 1 0.16939,0.09256 v -0.222142 a 0.05553908,0.05553908 0 0 1 0.0565,-0.05647 0.05646473,0.05646473 0 0 1 0.0574,0.05647 z m -0.39896,-0.197164 v 0 a 0.14810421,0.14810421 0 0 0 0.14255,0.161064 0.14995551,0.14995551 0 0 0 0.1444,-0.159212 v 0 a 0.14902986,0.14902986 0 0 0 -0.1444,-0.159212 0.14532725,0.14532725 0 0 0 -0.14255,0.15736 z"
     id="path1254"
     style="stroke-width:0.0925651" />
  <path
     class="cls-1"
     d="m 26.769833,3.2507463 h -0.006 a 0.06942385,0.06942385 0 0 1 -0.0648,-0.04998 l -0.16569,-0.378592 a 0.09997034,0.09997034 0 0 1 -0.006,-0.02869 0.05739038,0.05739038 0 0 1 0.11293,-0.01296 l 0.12959,0.329532 0.12959,-0.331383 a 0.05739038,0.05739038 0 0 1 0.0537,-0.0398 0.05368777,0.05368777 0 0 1 0.0555,0.05461 0.07682906,0.07682906 0 0 1 -0.006,0.02777 l -0.165691,0.379517 a 0.0703495,0.0703495 0 0 1 -0.0667,0.04998 z"
     id="path1256"
     style="stroke-width:0.0925651" />
  <path
     class="cls-1"
     d="m 27.066043,3.0989393 v 0 c 0,-0.10645 0.0842,-0.159212 0.20549,-0.159212 a 0.41654308,0.41654308 0 0 1 0.133299,0.02036 v -0.01203 c 0,-0.07127 -0.0426,-0.108301 -0.12311,-0.108301 a 0.30083667,0.30083667 0 0 0 -0.11016,0.01944 h -0.0176 a 0.04720822,0.04720822 0 0 1 -0.0481,-0.04721 0.04813387,0.04813387 0 0 1 0.0315,-0.04443 0.40728657,0.40728657 0 0 1 0.15922,-0.02962 0.21937935,0.21937935 0 0 1 0.16476,0.05554 0.20642024,0.20642024 0 0 1 0.0537,0.153658 v 0.244372 a 0.05368777,0.05368777 0 0 1 -0.0555,0.05461 0.05183647,0.05183647 0 0 1 -0.0555,-0.04813 v -0.01851 a 0.19994068,0.19994068 0 0 1 -0.161991,0.0722 0.15921202,0.15921202 0 0 1 -0.17587,-0.152733 z m 0.34064,-0.0361 v -0.03425 a 0.31749839,0.31749839 0 0 0 -0.11293,-0.01944 c -0.0731,0 -0.11663,0.03055 -0.11663,0.08238 v 0 c 0,0.04813 0.0426,0.0759 0.0972,0.0759 0.075,0.0019 0.13237,-0.04165 0.13237,-0.106449 z"
     id="path1258"
     style="stroke-width:0.0925651" />
  <path
     class="cls-1"
     d="m 27.651983,2.7962513 a 0.05553908,0.05553908 0 0 1 0.0565,-0.05739 0.05739038,0.05739038 0 0 1 0.0574,0.05739 v 0.02499 a 0.1786507,0.1786507 0 0 1 0.155509,-0.08701 0.17031984,0.17031984 0 0 1 0.1768,0.189758 v 0.265662 a 0.05739038,0.05739038 0 0 1 -0.11386,0 v -0.230487 c 0,-0.07683 -0.0389,-0.12126 -0.10645,-0.12126 a 0.11107815,0.11107815 0 0 0 -0.111999,0.123111 v 0.228636 a 0.05646473,0.05646473 0 0 1 -0.0574,0.05647 0.05553908,0.05553908 0 0 1 -0.0565,-0.05647 z"
     id="path1260"
     style="stroke-width:0.0925651" />
  <path
     class="cls-1"
     d="m 28.208293,2.9961923 v 0 a 0.25640541,0.25640541 0 0 1 0.25826,-0.260108 0.24714889,0.24714889 0 0 1 0.17402,0.06202 0.05091082,0.05091082 0 0 1 0.0185,0.0398 0.05276212,0.05276212 0 0 1 -0.0528,0.05184 0.05461343,0.05461343 0 0 1 -0.0342,-0.01203 0.15828637,0.15828637 0 0 0 -0.10645,-0.04165 0.14995551,0.14995551 0 0 0 -0.14347,0.158287 v 0 a 0.15088116,0.15088116 0 0 0 0.1481,0.159212 0.16661723,0.16661723 0 0 0 0.11108,-0.04443 0.05461343,0.05461343 0 0 1 0.0315,-0.01296 0.04998517,0.04998517 0 0 1 0.0491,0.04999 0.04443126,0.04443126 0 0 1 -0.0157,0.0361 0.24344629,0.24344629 0 0 1 -0.18514,0.07035 0.25362845,0.25362845 0 0 1 -0.2527,-0.256405 z"
     id="path1262"
     style="stroke-width:0.0925651" />
  <path
     class="cls-1"
     d="m 28.991393,3.2525973 a 0.24807454,0.24807454 0 0 1 -0.25548,-0.257331 v 0 a 0.24714889,0.24714889 0 0 1 0.24252,-0.259182 0.23511543,0.23511543 0 0 1 0.23697,0.244372 0.05368777,0.05368777 0 0 1 -0.0537,0.05461 h -0.31194 a 0.13884769,0.13884769 0 0 0 0.14162,0.124963 0.18513026,0.18513026 0 0 0 0.11756,-0.0435 0.04165431,0.04165431 0 0 1 0.0287,-0.01018 0.04443126,0.04443126 0 0 1 0.0389,0.04721 0.04905952,0.04905952 0 0 1 -0.0148,0.03517 0.2545541,0.2545541 0 0 1 -0.17032,0.06387 z m 0.11293,-0.294357 a 0.12959118,0.12959118 0 0 0 -0.12681,-0.130517 0.13421944,0.13421944 0 0 0 -0.12867,0.130517 z"
     id="path1264"
     style="stroke-width:0.0925651" />
  <path
     class="cls-1"
     d="m 29.307973,3.1915043 a 0.04350561,0.04350561 0 0 1 -0.0213,-0.0398 0.04535691,0.04535691 0 0 1 0.0463,-0.04536 0.04905952,0.04905952 0 0 1 0.0241,0.0065 0.26843887,0.26843887 0 0 0 0.14347,0.04813 c 0.0491,0 0.0768,-0.02129 0.0768,-0.05369 v 0 c 0,-0.03888 -0.0528,-0.05184 -0.11108,-0.07035 -0.0731,-0.02036 -0.15551,-0.05091 -0.15551,-0.145328 v 0 a 0.15921202,0.15921202 0 0 1 0.1768,-0.151806 0.33693707,0.33693707 0 0 1 0.15644,0.04073 0.04720822,0.04720822 0 0 1 0.0278,0.04258 0.04628256,0.04628256 0 0 1 -0.0472,0.04628 0.04443126,0.04443126 0 0 1 -0.0222,-0.0056 0.27769539,0.27769539 0 0 0 -0.11755,-0.03332 c -0.0435,0 -0.0694,0.02036 -0.0694,0.04813 v 0 c 0,0.0361 0.0537,0.05091 0.11201,0.07035 0.0731,0.02222 0.15458,0.05554 0.15458,0.144401 v 0 c 0,0.104599 -0.0805,0.156435 -0.18513,0.156435 a 0.33971402,0.33971402 0 0 1 -0.18883,-0.05832 z"
     id="path1266"
     style="stroke-width:0.0925651" />
  <path
     class="cls-1"
     d="m 30.079033,2.6111213 a 0.06572124,0.06572124 0 0 1 0.12959,0 v 0.0056 a 0.06572124,0.06572124 0 0 1 -0.12959,0 z m 0.008,0.18513 a 0.05739038,0.05739038 0 1 1 0.11386,0 v 0.393402 a 0.05739038,0.05739038 0 0 1 -0.11386,0 z"
     id="path1268"
     style="stroke-width:0.0925651" />
  <path
     class="cls-1"
     d="m 30.350253,2.7962513 a 0.05553908,0.05553908 0 0 1 0.0565,-0.05739 0.05739038,0.05739038 0 0 1 0.0574,0.05739 v 0.02499 a 0.1786507,0.1786507 0 0 1 0.15551,-0.08701 0.17031984,0.17031984 0 0 1 0.176799,0.189758 v 0.265662 a 0.05739038,0.05739038 0 0 1 -0.11385,0 v -0.230487 c 0,-0.07683 -0.0389,-0.12126 -0.10645,-0.12126 a 0.11107815,0.11107815 0 0 0 -0.11201,0.123111 v 0.228636 a 0.05646473,0.05646473 0 0 1 -0.0574,0.05647 0.05553908,0.05553908 0 0 1 -0.0565,-0.05647 z"
     id="path1270"
     style="stroke-width:0.0925651" />
  <path
     class="cls-1"
     d="m 25.196223,4.2958063 0.24437,-0.546134 a 0.0740521,0.0740521 0 0 1 0.0704,-0.04721 h 0.006 a 0.0722008,0.0722008 0 0 1 0.0685,0.04721 l 0.24437,0.546134 a 0.04998517,0.04998517 0 0 1 0.006,0.02407 0.05368777,0.05368777 0 0 1 -0.0546,0.05554 0.06109298,0.06109298 0 0 1 -0.0565,-0.0398 l -0.0528,-0.124037 h -0.32028 l -0.0555,0.12774 a 0.05553908,0.05553908 0 0 1 -0.0537,0.0361 0.05276212,0.05276212 0 0 1 -0.0537,-0.05369 0.05831603,0.05831603 0 0 1 0.007,-0.02592 z m 0.43136,-0.18513 -0.11571,-0.266587 -0.11571,0.266587 z"
     id="path1272"
     style="stroke-width:0.0925651" />
  <path
     class="cls-1"
     d="m 25.944153,3.9255463 a 0.05739038,0.05739038 0 1 1 0.11385,0 v 0.02499 a 0.18513026,0.18513026 0 0 1 0.15551,-0.08701 0.17031984,0.17031984 0 0 1 0.176799,0.190684 v 0.264737 a 0.05461343,0.05461343 0 0 1 -0.0565,0.05646 0.05646473,0.05646473 0 0 1 -0.0574,-0.05646 v -0.230488 c 0,-0.07683 -0.0379,-0.12126 -0.10645,-0.12126 a 0.11107815,0.11107815 0 0 0 -0.11201,0.123112 v 0.228636 a 0.05739038,0.05739038 0 0 1 -0.11385,0 z"
     id="path1274"
     style="stroke-width:0.0925651" />
  <path
     class="cls-1"
     d="m 26.500473,4.1254873 v 0 a 0.26381062,0.26381062 0 0 1 0.4332,-0.19809 0.05553908,0.05553908 0 0 1 0.0176,0.0398 0.05183647,0.05183647 0 0 1 -0.0528,0.05184 0.05739038,0.05739038 0 0 1 -0.0333,-0.01111 0.15643507,0.15643507 0 0 0 -0.10645,-0.04258 0.14995551,0.14995551 0 0 0 -0.1444,0.158286 v 0 a 0.15088116,0.15088116 0 0 0 0.14903,0.159212 0.16846853,0.16846853 0 0 0 0.11108,-0.04443 0.04813387,0.04813387 0 0 1 0.0796,0.03795 0.04350561,0.04350561 0 0 1 -0.0157,0.03517 0.24252064,0.24252064 0 0 1 -0.1805,0.07035 0.25362845,0.25362845 0 0 1 -0.25733,-0.256405 z"
     id="path1276"
     style="stroke-width:0.0925651" />
  <path
     class="cls-1"
     d="m 27.063263,3.7404163 a 0.06572124,0.06572124 0 0 1 0.130519,0 v 0.0056 a 0.06572124,0.06572124 0 0 1 -0.130519,0 z m 0.008,0.18513 a 0.05739038,0.05739038 0 1 1 0.11386,0 v 0.393402 a 0.05739038,0.05739038 0 0 1 -0.11386,0 z"
     id="path1278"
     style="stroke-width:0.0925651" />
  <path
     class="cls-1"
     d="m 27.562193,4.3818923 a 0.24714889,0.24714889 0 0 1 -0.25456,-0.257331 v 0 a 0.24622324,0.24622324 0 0 1 0.24252,-0.259183 0.23511543,0.23511543 0 0 1 0.2379,0.243447 0.05276212,0.05276212 0 0 1 -0.0537,0.05369 h -0.31657 a 0.13884769,0.13884769 0 0 0 0.14255,0.126814 0.17957635,0.17957635 0 0 0 0.11755,-0.04351 0.04628256,0.04628256 0 0 1 0.0296,-0.01018 0.04535691,0.04535691 0 0 1 0.0454,0.04628 0.04628256,0.04628256 0 0 1 -0.0157,0.03425 0.2508515,0.2508515 0 0 1 -0.17495,0.06572 z m 0.11293,-0.294357 a 0.12866553,0.12866553 0 0 0 -0.12589,-0.130517 0.13421944,0.13421944 0 0 0 -0.13144,0.130517 z"
     id="path1280"
     style="stroke-width:0.0925651" />
  <path
     class="cls-1"
     d="m 27.902833,3.9255463 a 0.05739038,0.05739038 0 1 1 0.11385,0 v 0.02499 a 0.18513026,0.18513026 0 0 1 0.15551,-0.08701 0.17031984,0.17031984 0 0 1 0.1768,0.190684 v 0.264737 a 0.05461343,0.05461343 0 0 1 -0.0565,0.05646 0.05646473,0.05646473 0 0 1 -0.0574,-0.05646 v -0.230488 c 0,-0.07683 -0.038,-0.12126 -0.10645,-0.12126 a 0.11107815,0.11107815 0 0 0 -0.11201,0.123112 v 0.228636 a 0.05739038,0.05739038 0 0 1 -0.113851,0 z"
     id="path1282"
     style="stroke-width:0.0925651" />
  <path
     class="cls-1"
     d="m 28.510053,4.2337883 v -0.26196 h -0.0185 a 0.04813387,0.04813387 0 0 1 -0.0491,-0.04906 0.04905952,0.04905952 0 0 1 0.0491,-0.04906 h 0.0185 v -0.08423 a 0.05739038,0.05739038 0 0 1 0.11386,0 v 0.08423 h 0.0926 a 0.04998517,0.04998517 0 0 1 0.05,0.04906 0.04998517,0.04998517 0 0 1 -0.05,0.04906 h -0.0926 v 0.243447 a 0.05461343,0.05461343 0 0 0 0.0611,0.06294 c 0.013,0 0.025,0 0.0287,0 a 0.04813387,0.04813387 0 0 1 0.0481,0.04628 0.04905952,0.04905952 0 0 1 -0.0306,0.04443 0.22863587,0.22863587 0 0 1 -0.0778,0.01296 0.12681423,0.12681423 0 0 1 -0.14348,-0.148104 z"
     id="path1284"
     style="stroke-width:0.0925651" />
  <path
     class="cls-1"
     d="m 25.230473,4.8956283 a 0.05831603,0.05831603 0 0 1 0.0583,-0.05832 h 0.012 a 0.06201864,0.06201864 0 0 1 0.0537,0.03147 l 0.199009,0.312871 0.198091,-0.313796 a 0.05924168,0.05924168 0 0 1 0.0528,-0.03055 h 0.012 a 0.05831603,0.05831603 0 0 1 0.0583,0.05832 v 0.555391 a 0.05646473,0.05646473 0 0 1 -0.0583,0.05739 0.05831603,0.05831603 0 0 1 -0.0574,-0.05739 v -0.398951 l -0.161059,0.242521 a 0.05553908,0.05553908 0 0 1 -0.0491,0.02962 0.05553908,0.05553908 0 0 1 -0.0472,-0.02962 l -0.16014,-0.240669 v 0.394327 a 0.05646473,0.05646473 0 0 1 -0.0574,0.05647 0.05461343,0.05461343 0 0 1 -0.0565,-0.05647 z"
     id="path1286"
     style="stroke-width:0.0925651" />
  <path
     class="cls-1"
     d="m 26.261653,5.5121123 a 0.24807454,0.24807454 0 0 1 -0.25548,-0.258257 v 0 a 0.24714889,0.24714889 0 0 1 0.24344,-0.259182 0.23511543,0.23511543 0 0 1 0.23604,0.245298 0.05368777,0.05368777 0 0 1 -0.0537,0.05461 h -0.3101 a 0.13977334,0.13977334 0 0 0 0.14348,0.125889 0.17494809,0.17494809 0 0 0 0.11571,-0.04536 0.04257996,0.04257996 0 0 1 0.0296,-0.01018 0.04535691,0.04535691 0 0 1 0.0454,0.04628 0.04998517,0.04998517 0 0 1 -0.0157,0.03425 0.2545541,0.2545541 0 0 1 -0.17865,0.06665 z m 0.11293,-0.295283 a 0.12866553,0.12866553 0 0 0 -0.12589,-0.130516 0.13607074,0.13607074 0 0 0 -0.12959,0.130516 z"
     id="path1288"
     style="stroke-width:0.0925651" />
  <path
     class="cls-1"
     d="m 26.625433,5.3630823 v -0.265662 h -0.0185 a 0.04905952,0.04905952 0 0 1 -0.0491,-0.04906 0.04905952,0.04905952 0 0 1 0.0491,-0.04906 h 0.0185 v -0.08423 a 0.05739038,0.05739038 0 0 1 0.11478,0 v 0.08979 h 0.0926 a 0.04998517,0.04998517 0 0 1 0.05,0.04906 0.04905952,0.04905952 0 0 1 -0.05,0.04906 h -0.0926 v 0.244372 a 0.05461343,0.05461343 0 0 0 0.0611,0.06202 0.26473627,0.26473627 0 0 0 0.0278,0 0.04720822,0.04720822 0 0 1 0.0176,0.09257 0.22400761,0.22400761 0 0 1 -0.0778,0.01389 0.12773988,0.12773988 0 0 1 -0.14347,-0.152733 z"
     id="path1290"
     style="stroke-width:0.0925651" />
  <path
     class="cls-1"
     d="m 26.954963,5.3575283 v 0 c 0,-0.107375 0.0842,-0.160137 0.20549,-0.160137 a 0.41654308,0.41654308 0 0 1 0.1333,0.02036 v -0.01203 c 0,-0.07035 -0.0426,-0.108302 -0.12311,-0.108302 a 0.30083667,0.30083667 0 0 0 -0.11016,0.01944 0.06664689,0.06664689 0 0 1 -0.0176,0 0.04720822,0.04720822 0 0 1 -0.0481,-0.04721 0.04905952,0.04905952 0 0 1 0.0315,-0.04536 0.42487394,0.42487394 0 0 1 0.15921,-0.02962 0.22308196,0.22308196 0 0 1 0.16476,0.05554 0.20642024,0.20642024 0 0 1 0.0537,0.153658 v 0.245298 a 0.05368777,0.05368777 0 0 1 -0.0555,0.05369 0.05183647,0.05183647 0 0 1 -0.0555,-0.04721 v -0.01944 a 0.19994068,0.19994068 0 0 1 -0.16106,0.07313 0.15921202,0.15921202 0 0 1 -0.1768,-0.151807 z m 0.34064,-0.0361 v -0.03332 a 0.29713406,0.29713406 0 0 0 -0.11293,-0.02036 c -0.0731,0 -0.11663,0.03147 -0.11663,0.08331 v 0 c 0,0.04813 0.0426,0.07498 0.0972,0.07498 0.0759,0.0019 0.1333,-0.04166 0.1333,-0.104599 z"
     id="path1292"
     style="stroke-width:0.0925651" />
  <path
     class="cls-1"
     d="m 27.570523,5.6083803 a 0.04628256,0.04628256 0 0 1 -0.0315,-0.04443 0.04720822,0.04720822 0 0 1 0.0481,-0.04721 0.04443126,0.04443126 0 0 1 0.0204,0 0.30916753,0.30916753 0 0 0 0.15274,0.03888 0.13884769,0.13884769 0 0 0 0.15736,-0.151807 v -0.03888 a 0.20919719,0.20919719 0 0 1 -0.17588,0.09256 0.22400761,0.22400761 0 0 1 -0.22586,-0.233264 v 0 a 0.22400761,0.22400761 0 0 1 0.22586,-0.233265 0.21567675,0.21567675 0 0 1 0.17495,0.08516 v -0.02407 a 0.05646473,0.05646473 0 0 1 0.0565,-0.05646 0.05739038,0.05739038 0 0 1 0.0574,0.05739 v 0.344342 a 0.25362845,0.25362845 0 0 1 -0.0639,0.185131 0.27769539,0.27769539 0 0 1 -0.20365,0.06665 0.42672524,0.42672524 0 0 1 -0.19253,-0.04073 z m 0.34804,-0.381368 v 0 a 0.13884769,0.13884769 0 0 0 -0.146251,-0.136071 0.13514509,0.13514509 0 0 0 -0.141619,0.136071 v 0 a 0.13514509,0.13514509 0 0 0 0.141619,0.136996 0.13977334,0.13977334 0 0 0 0.146251,-0.136996 z"
     id="path1294"
     style="stroke-width:0.0925651" />
  <path
     class="cls-1"
     d="m 28.400833,5.5121123 a 0.24807454,0.24807454 0 0 1 -0.25456,-0.258257 v 0 a 0.24622324,0.24622324 0 0 1 0.24252,-0.259182 0.23511543,0.23511543 0 0 1 0.23234,0.243446 0.05368777,0.05368777 0 0 1 -0.0537,0.05461 h -0.30731 a 0.13884769,0.13884769 0 0 0 0.14255,0.125888 0.17494809,0.17494809 0 0 0 0.11756,-0.0435 0.04443126,0.04443126 0 0 1 0.0296,-0.01018 0.04535691,0.04535691 0 0 1 0.0453,0.04628 0.04628256,0.04628256 0 0 1 -0.0157,0.03425 0.25177715,0.25177715 0 0 1 -0.17865,0.06665 z m 0.11293,-0.295283 a 0.12866553,0.12866553 0 0 0 -0.12589,-0.130516 0.13421944,0.13421944 0 0 0 -0.12867,0.130516 z"
     id="path1296"
     style="stroke-width:0.0925651" />
  <path
     class="cls-1"
     d="m 28.741473,5.0548403 a 0.05739038,0.05739038 0 1 1 0.11385,0 v 0.02499 a 0.18513026,0.18513026 0 0 1 0.15551,-0.08701 0.17031984,0.17031984 0 0 1 0.1768,0.190684 v 0.264736 a 0.05461343,0.05461343 0 0 1 -0.0565,0.05647 0.05646473,0.05646473 0 0 1 -0.0574,-0.05647 v -0.230487 c 0,-0.07683 -0.0389,-0.12126 -0.10645,-0.12126 a 0.11107815,0.11107815 0 0 0 -0.11201,0.123111 v 0.228636 a 0.05739038,0.05739038 0 0 1 -0.113851,0 z"
     id="path1298"
     style="stroke-width:0.0925651" />
  <path
     class="cls-1"
     d="m 29.297783,5.2547813 v 0 a 0.26566192,0.26566192 0 0 1 0.530399,0 v 0 a 0.26010801,0.26010801 0 0 1 -0.26659,0.259182 0.25733106,0.25733106 0 0 1 -0.263809,-0.259182 z m 0.41655,0 v 0 a 0.15365811,0.15365811 0 0 0 -0.15274,-0.157361 0.14902986,0.14902986 0 0 0 -0.14995,0.158287 v 0 a 0.15365811,0.15365811 0 0 0 0.15181,0.159212 0.14902986,0.14902986 0 0 0 0.15088,-0.160138 z"
     id="path1300"
     style="stroke-width:0.0925651" />
  <path
     class="cls-1"
     d="m 29.943893,5.0548403 a 0.05646473,0.05646473 0 0 1 0.0565,-0.05739 0.05739038,0.05739038 0 0 1 0.0574,0.05739 v 0.02407 a 0.1767994,0.1767994 0 0 1 0.15088,-0.08608 0.15736072,0.15736072 0 0 1 0.14903,0.08794 0.20086633,0.20086633 0 0 1 0.16755,-0.08794 0.16661723,0.16661723 0 0 1 0.17402,0.190684 v 0.264736 a 0.05461343,0.05461343 0 0 1 -0.0565,0.05647 0.05646473,0.05646473 0 0 1 -0.0574,-0.05647 v -0.230487 c 0,-0.07868 -0.0361,-0.12126 -0.10089,-0.12126 -0.0648,0 -0.10645,0.0435 -0.10645,0.123111 v 0.228636 a 0.05553908,0.05553908 0 0 1 -0.0565,0.05647 0.05646473,0.05646473 0 0 1 -0.0574,-0.05647 v -0.231413 c 0,-0.07683 -0.037,-0.120334 -0.1,-0.120334 a 0.1083012,0.1083012 0 0 0 -0.10645,0.123111 v 0.228636 a 0.05646473,0.05646473 0 0 1 -0.0574,0.05647 0.05553908,0.05553908 0 0 1 -0.0565,-0.05647 z"
     id="path1302"
     style="stroke-width:0.0925651" />
  <path
     class="cls-1"
     d="m 30.835293,4.8697103 a 0.06572124,0.06572124 0 0 1 0.130519,0 v 0.0056 a 0.06572124,0.06572124 0 0 1 -0.130519,0 z m 0.009,0.18513 a 0.05646473,0.05646473 0 0 1 0.0565,-0.05739 0.05739038,0.05739038 0 0 1 0.0574,0.05739 v 0.393402 a 0.05646473,0.05646473 0 0 1 -0.0574,0.05647 0.05553908,0.05553908 0 0 1 -0.0565,-0.05647 z"
     id="path1304"
     style="stroke-width:0.0925651" />
  <path
     class="cls-1"
     d="m 31.079663,5.2547813 v 0 a 0.26381062,0.26381062 0 0 1 0.43321,-0.198089 0.05553908,0.05553908 0 0 1 0.0176,0.0398 0.05183647,0.05183647 0 0 1 -0.0528,0.05184 0.06294429,0.06294429 0 0 1 -0.0343,-0.01111 0.15458376,0.15458376 0 0 0 -0.10645,-0.04258 0.14995551,0.14995551 0 0 0 -0.14347,0.158287 v 0 a 0.14995551,0.14995551 0 0 0 0.14903,0.159212 0.16569158,0.16569158 0 0 0 0.11108,-0.04443 0.04813387,0.04813387 0 0 1 0.0796,0.03795 0.04350561,0.04350561 0 0 1 -0.0157,0.03518 0.24437194,0.24437194 0 0 1 -0.185129,0.07127 0.25362845,0.25362845 0 0 1 -0.252711,-0.257331 z"
     id="path1306"
     style="stroke-width:0.0925651" />
  <path
     class="cls-1"
     d="m 31.625803,5.4510193 a 0.04443126,0.04443126 0 0 1 -0.0222,-0.0398 0.04628256,0.04628256 0 0 1 0.0463,-0.04628 0.04905952,0.04905952 0 0 1 0.0259,0.01018 0.26010801,0.26010801 0 0 0 0.14348,0.04813 c 0.0491,0 0.0768,-0.02036 0.0768,-0.05369 v 0 c 0,-0.03888 -0.0528,-0.05184 -0.11108,-0.06942 -0.0731,-0.02129 -0.15459,-0.05091 -0.15459,-0.146253 v 0 a 0.15828637,0.15828637 0 0 1 0.1768,-0.151807 0.34804488,0.34804488 0 0 1 0.15644,0.04073 0.04813387,0.04813387 0 0 1 0.0268,0.04351 0.04628256,0.04628256 0 0 1 -0.0472,0.04628 0.04443126,0.04443126 0 0 1 -0.0222,-0.0056 0.26658757,0.26658757 0 0 0 -0.11663,-0.03425 c -0.0444,0 -0.0704,0.02036 -0.0704,0.04906 v 0 c 0,0.0361 0.0537,0.05184 0.112,0.07035 0.0731,0.02222 0.15459,0.05554 0.15459,0.145327 v 0 c 0,0.104599 -0.0805,0.156435 -0.18513,0.156435 a 0.34434228,0.34434228 0 0 1 -0.18976,-0.06294 z"
     id="path1308"
     style="stroke-width:0.0925651" />
  <metadata
     id="metadata1484">
    <rdf:RDF>
      <cc:Work
         rdf:about="">
        <dc:title>SPAAM-Logo-Full-Colour</dc:title>
      </cc:Work>
    </rdf:RDF>
  </metadata>
</svg>
