<?xml version="1.0" encoding="UTF-8" standalone="no"?>
<svg
   id="Layer_1"
   data-name="Layer 1"
   viewBox="0 0 150 150"
   version="1.1"
   sodipodi:docname="SPAAM-Avatar-Colour.svg"
   inkscape:export-filename="/home/jfellows/Documents/git/spaam-community/spaam-community.github.io/_media/SPAAM-Avatar-Colour.png"
   inkscape:export-xdpi="26.155663"
   inkscape:export-ydpi="26.155663"
   inkscape:version="1.1 (1:1.1+202105261517+ce6663b3b7)"
   xmlns:inkscape="http://www.inkscape.org/namespaces/inkscape"
   xmlns:sodipodi="http://sodipodi.sourceforge.net/DTD/sodipodi-0.dtd"
   xmlns="http://www.w3.org/2000/svg"
   xmlns:svg="http://www.w3.org/2000/svg">
  <sodipodi:namedview
     id="namedview1165"
     pagecolor="#ffffff"
     bordercolor="#666666"
     borderopacity="1.0"
     inkscape:pageshadow="2"
     inkscape:pageopacity="0.0"
     inkscape:pagecheckerboard="0"
     showgrid="false"
     inkscape:zoom="5.7266667"
     inkscape:cx="74.912689"
     inkscape:cy="75"
     inkscape:window-width="1920"
     inkscape:window-height="1016"
     inkscape:window-x="1920"
     inkscape:window-y="1107"
     inkscape:window-maximized="1"
     inkscape:current-layer="Layer_1" />
  <defs
     id="defs1144">
    <style
       id="style1142">.cls-1{fill:#ee4890;}.cls-2{fill:#fc6;}.cls-3{fill:#2ab675;}.cls-4{fill:#74d1f6;}</style>
  </defs>
  <title
     id="title1146">SPAAM-Avatar-Colour</title>
  <path
     class="cls-1"
     d="M85.91,28.48a4.88,4.88,0,1,0,4.88,4.88A4.89,4.89,0,0,0,85.91,28.48Z"
     id="path1148" />
  <path
     d="M85.91,19.47A13.89,13.89,0,1,0,99.8,33.36,13.9,13.9,0,0,0,85.91,19.47Zm0,18.77a4.88,4.88,0,1,1,4.88-4.88A4.89,4.89,0,0,1,85.91,38.24Z"
     id="path1150" />
  <path
     class="cls-2"
     d="M97.55,110.81a4.88,4.88,0,1,0,4.87,4.88A4.89,4.89,0,0,0,97.55,110.81Z"
     id="path1152" />
  <path
     d="M97.55,101.8a13.89,13.89,0,1,0,13.89,13.89A13.9,13.9,0,0,0,97.55,101.8Zm0,18.77a4.88,4.88,0,1,1,4.87-4.88A4.89,4.89,0,0,1,97.55,120.57Z"
     id="path1154" />
  <path
     class="cls-3"
     d="M59.86,50.52a4.85,4.85,0,0,0-4.57-3.27,5,5,0,0,0-1.56.26C44.19,50.76,31.24,59.64,26.17,74h0c-2.84,8-3,17-.31,26.69a4.82,4.82,0,0,0,8.85,1.12,4.78,4.78,0,0,0,.47-3.66C28.54,73.75,45.67,60.6,56.83,56.66A4.86,4.86,0,0,0,59.86,50.52Z"
     id="path1156" />
  <path
     d="M68.4,47.63A13.85,13.85,0,0,0,50.83,39c-11.46,3.89-27,14.61-33.16,32C14.2,80.74,14,91.53,17.16,103a13.85,13.85,0,0,0,26.72-7.28C38,74.07,56.13,66.47,59.81,65.17A13.9,13.9,0,0,0,68.4,47.63Zm-11.57,9C45.67,60.6,28.54,73.75,35.18,98.11A4.85,4.85,0,0,1,31.79,104a4.85,4.85,0,0,1-5.93-3.39C23.22,91,23.33,82,26.17,74h0c5.07-14.32,18-23.2,27.56-26.45a5,5,0,0,1,1.56-.26,4.83,4.83,0,0,1,1.54,9.41Z"
     id="path1158" />
  <path
     class="cls-4"
     d="M123.62,73.8a48,48,0,0,0-23.08-6,40.13,40.13,0,0,0-15,2.81c-7.9,3.18-14.71,9-20.23,17.42a4.83,4.83,0,0,0,5,7.38,4.75,4.75,0,0,0,3-2.07c13.89-21.08,35.09-16.93,45.42-11.15a4.83,4.83,0,1,0,4.81-8.38Z"
     id="path1160" />
  <path
     d="M128.11,66c-10.5-6-28.82-10.61-45.91-3.74-9.64,3.87-17.85,10.87-24.4,20.82a13.86,13.86,0,0,0,11.54,21.47,14.28,14.28,0,0,0,2.82-.29,13.76,13.76,0,0,0,8.77-5.95C93.28,79.54,111,88.13,114.39,90A13.85,13.85,0,0,0,128.11,66Zm-2.69,14.4a4.88,4.88,0,0,1-6.61,1.8c-10.33-5.78-31.53-9.93-45.42,11.15a4.82,4.82,0,0,1-6.68,1.37A4.83,4.83,0,0,1,65.33,88c5.52-8.38,12.33-14.24,20.23-17.42a40.13,40.13,0,0,1,15-2.81,48,48,0,0,1,23.08,6A4.83,4.83,0,0,1,125.42,80.38Z"
     id="path1162" />
</svg>
