<svg id="Layer_1" data-name="Layer 1" xmlns="http://www.w3.org/2000/svg" viewBox="0 0 375.3 134.17"><defs><style>.cls-1{fill:#020202;}.cls-2{fill:#2ab675;}.cls-3{fill:#ee4890;}.cls-4{fill:#fc6;}.cls-5{fill:#74d1f6;}</style></defs><title>SPAAM-Logo-Full-Colour</title><path class="cls-1" d="M67.46,60.4a2.8,2.8,0,0,1,3.36-4.47,14.56,14.56,0,0,0,9.41,3.46c3.65,0,6-1.73,6-4.23v-.09c0-2.4-1.34-3.7-7.58-5.14-7.16-1.73-11.19-3.84-11.19-10V39.8c0-5.76,4.8-9.75,11.47-9.75a18.5,18.5,0,0,1,10.67,3.12,2.67,2.67,0,0,1,1.29,2.35,2.75,2.75,0,0,1-2.78,2.74,2.84,2.84,0,0,1-1.54-.43,14,14,0,0,0-7.73-2.55c-3.46,0-5.48,1.78-5.48,4v.1c0,2.59,1.54,3.74,8,5.28,7.11,1.73,10.76,4.27,10.76,9.84v.1c0,6.29-5,10-12,10A20.93,20.93,0,0,1,67.46,60.4Z"/><path class="cls-1" d="M101.46,33.51a2.93,2.93,0,0,1,3-3h10.28c7.88,0,12.77,4.47,12.77,11.24v.09c0,7.54-6,11.48-13.44,11.48h-6.68v8.11a3,3,0,0,1-5.9,0ZM114.23,48c4.47,0,7.25-2.5,7.25-6v-.1c0-3.94-2.83-6-7.25-6h-6.87V48Z"/><path class="cls-1" d="M131.33,60.3l12.48-27.85a3.76,3.76,0,0,1,3.56-2.4h.29a3.67,3.67,0,0,1,3.5,2.4L163.65,60.3a2.57,2.57,0,0,1,.33,1.25,2.76,2.76,0,0,1-2.78,2.83,3,3,0,0,1-2.88-2.06L155.58,56H139.25l-2.83,6.48a2.84,2.84,0,0,1-2.74,1.87,2.7,2.7,0,0,1-2.74-2.73A3,3,0,0,1,131.33,60.3Zm22-9.51-5.9-13.58-5.91,13.58Z"/><path class="cls-1" d="M170.71,60.3,183.2,32.45a3.74,3.74,0,0,1,3.55-2.4H187a3.67,3.67,0,0,1,3.5,2.4L203,60.3a2.57,2.57,0,0,1,.33,1.25,2.76,2.76,0,0,1-2.78,2.83,3,3,0,0,1-2.88-2.06L195,56H178.63l-2.83,6.48a2.84,2.84,0,0,1-2.74,1.87,2.7,2.7,0,0,1-2.73-2.73A3,3,0,0,1,170.71,60.3Zm22-9.51-5.9-13.58-5.91,13.58Z"/><path class="cls-1" d="M212.15,33.32a3,3,0,0,1,3-3h.63a3.1,3.1,0,0,1,2.73,1.58l10.18,15.95,10.23-16a3,3,0,0,1,2.69-1.53h.62a3,3,0,0,1,3,3V53a2.92,2.92,0,0,1-3,2.93A3,3,0,0,1,239.29,53V41.29l-8.22,12.34a2.76,2.76,0,0,1-4.94,0L218,41.38V61.5A2.87,2.87,0,0,1,215,64.38a2.83,2.83,0,0,1-2.89-2.88Z"/><path class="cls-1" d="M186.23,125.41a2.56,2.56,0,0,1-2.56-2.57V88.71H17.37a2.57,2.57,0,0,1,0-5.14H186.23a2.57,2.57,0,0,1,2.57,2.57v30.92l36.32-32.83a2.58,2.58,0,0,1,1.72-.66h37.38V25.49a2.57,2.57,0,0,1,5.14,0V86.14a2.57,2.57,0,0,1-2.57,2.57h-39l-39.88,36A2.53,2.53,0,0,1,186.23,125.41Z"/><path class="cls-2" d="M242.62,62.87a1.76,1.76,0,1,0,1.76,1.75A1.75,1.75,0,0,0,242.62,62.87Z"/><path d="M242.62,59.62a5,5,0,1,0,5,5A5,5,0,0,0,242.62,59.62Zm0,6.76a1.76,1.76,0,1,1,1.76-1.76A1.75,1.75,0,0,1,242.62,66.38Z"/><path class="cls-3" d="M40.63,30.32a1.76,1.76,0,1,0,1.76,1.76A1.75,1.75,0,0,0,40.63,30.32Z"/><path d="M40.63,27.07a5,5,0,1,0,5,5A5,5,0,0,0,40.63,27.07Zm0,6.76a1.76,1.76,0,1,1,1.76-1.75A1.75,1.75,0,0,1,40.63,33.83Z"/><path class="cls-4" d="M44.83,60a1.76,1.76,0,1,0,1.75,1.75A1.75,1.75,0,0,0,44.83,60Z"/><path d="M44.83,56.74a5,5,0,1,0,5,5A5,5,0,0,0,44.83,56.74Zm0,6.76a1.76,1.76,0,1,1,1.75-1.76A1.76,1.76,0,0,1,44.83,63.5Z"/><path class="cls-2" d="M31.24,38.26a1.72,1.72,0,0,0-.87-1,1.77,1.77,0,0,0-.77-.18,1.54,1.54,0,0,0-.56.1,16.43,16.43,0,0,0-9.93,9.53h0A15.84,15.84,0,0,0,19,56.32a1.75,1.75,0,0,0,2.14,1.22,1.71,1.71,0,0,0,1.05-.81,1.74,1.74,0,0,0,.17-1.32C20,46.63,26.13,41.89,30.16,40.47A1.74,1.74,0,0,0,31.24,38.26Z"/><path d="M34.32,37.22A5,5,0,0,0,28,34.1C23.86,35.51,18.26,39.37,16,45.62a19.07,19.07,0,0,0-.18,11.56,5,5,0,0,0,4.82,3.67,4.84,4.84,0,0,0,1.3-.17,5,5,0,0,0,3.51-6.13c-2.13-7.8,4.41-10.54,5.74-11A5,5,0,0,0,34.32,37.22Zm-4.16,3.25c-4,1.42-10.2,6.16-7.81,14.94a1.74,1.74,0,0,1-.17,1.32,1.71,1.71,0,0,1-1.05.81A1.75,1.75,0,0,1,19,56.32a15.84,15.84,0,0,1,.12-9.61h0A16.43,16.43,0,0,1,29,37.18a1.54,1.54,0,0,1,.56-.1,1.77,1.77,0,0,1,.77.18,1.72,1.72,0,0,1,.87,1A1.74,1.74,0,0,1,30.16,40.47Z"/><path class="cls-5" d="M54.22,46.65a17.28,17.28,0,0,0-8.32-2.17,14.38,14.38,0,0,0-5.39,1,15.86,15.86,0,0,0-7.29,6.27,1.74,1.74,0,0,0,.49,2.41,1.75,1.75,0,0,0,2.41-.49c5-7.6,12.64-6.1,16.37-4a1.74,1.74,0,1,0,1.73-3Z"/><path d="M55.84,43.83C52.05,41.66,45.45,40,39.29,42.48A19.13,19.13,0,0,0,30.5,50a5,5,0,0,0,1.42,6.91,4.93,4.93,0,0,0,2.74.83,5,5,0,0,0,1-.1,5,5,0,0,0,3.16-2.15c4.45-6.75,10.83-3.66,12-3a5,5,0,0,0,5-8.67Zm-1,5.19a1.76,1.76,0,0,1-2.38.65c-3.73-2.08-11.36-3.58-16.37,4a1.75,1.75,0,0,1-2.41.49,1.74,1.74,0,0,1-.49-2.41,15.86,15.86,0,0,1,7.29-6.27,14.38,14.38,0,0,1,5.39-1,17.28,17.28,0,0,1,8.32,2.17A1.75,1.75,0,0,1,54.87,49Z"/><path class="cls-1" d="M287.18,32.76a.61.61,0,0,1-.24-.48.58.58,0,0,1,.59-.58.57.57,0,0,1,.36.11,3.1,3.1,0,0,0,2,.73c.77,0,1.26-.36,1.26-.89v0c0-.51-.29-.79-1.61-1.09-1.51-.37-2.37-.82-2.37-2.13v0a2.18,2.18,0,0,1,2.43-2.06,3.89,3.89,0,0,1,2.26.66.57.57,0,0,1,.28.5.59.59,0,0,1-.59.58.6.6,0,0,1-.33-.09,2.94,2.94,0,0,0-1.64-.54c-.73,0-1.16.37-1.16.84v0c0,.55.33.79,1.7,1.12s2.28.9,2.28,2.08v0c0,1.34-1,2.13-2.54,2.13A4.45,4.45,0,0,1,287.18,32.76Z"/><path class="cls-1" d="M293.93,32.06V29.24h-.2a.53.53,0,0,1-.53-.53.53.53,0,0,1,.53-.53h.2v-.92a.62.62,0,0,1,.62-.61.61.61,0,0,1,.61.61v.92h1a.53.53,0,0,1,.54.53.54.54,0,0,1-.54.53h-1v2.63a.59.59,0,0,0,.67.67,2.86,2.86,0,0,0,.3,0,.51.51,0,0,1,.52.51.53.53,0,0,1-.33.48,2.42,2.42,0,0,1-.84.14A1.38,1.38,0,0,1,293.93,32.06Z"/><path class="cls-1" d="M297.5,32v0c0-1.16.91-1.73,2.22-1.73a4.22,4.22,0,0,1,1.44.23v-.14c0-.76-.46-1.16-1.33-1.16a3.25,3.25,0,0,0-1.19.21l-.19,0a.51.51,0,0,1-.52-.51.54.54,0,0,1,.34-.49,4.6,4.6,0,0,1,1.72-.31,2.37,2.37,0,0,1,1.78.6,2.2,2.2,0,0,1,.58,1.66V33a.58.58,0,0,1-.6.59.56.56,0,0,1-.6-.52v-.2a2.19,2.19,0,0,1-1.75.78A1.72,1.72,0,0,1,297.5,32Zm3.68-.38v-.37A3.43,3.43,0,0,0,300,31c-.79,0-1.26.33-1.26.89v0c0,.52.46.82,1.05.82C300.56,32.77,301.18,32.3,301.18,31.62Z"/><path class="cls-1" d="M303.83,28.74a.6.6,0,0,1,.61-.62.62.62,0,0,1,.62.62V29a1.93,1.93,0,0,1,1.68-.93,1.84,1.84,0,0,1,1.91,2.05V33a.62.62,0,0,1-1.23,0V30.5c0-.84-.42-1.31-1.15-1.31a1.19,1.19,0,0,0-1.21,1.33V33a.61.61,0,0,1-.62.61.6.6,0,0,1-.61-.61Z"/><path class="cls-1" d="M315.41,33a.62.62,0,0,1-1.23,0v-.34a2.16,2.16,0,0,1-1.83,1,2.58,2.58,0,0,1-2.49-2.79v0a2.56,2.56,0,0,1,2.49-2.78,2.2,2.2,0,0,1,1.83.94V26.68a.62.62,0,0,1,1.23,0Zm-4.31-2.14v0a1.6,1.6,0,0,0,1.54,1.72,1.62,1.62,0,0,0,1.56-1.72v0a1.62,1.62,0,0,0-1.56-1.72A1.58,1.58,0,0,0,311.1,30.85Z"/><path class="cls-1" d="M316.6,32v0c0-1.16.9-1.73,2.22-1.73a4.26,4.26,0,0,1,1.44.23v-.14c0-.76-.47-1.16-1.33-1.16a3.21,3.21,0,0,0-1.19.21.69.69,0,0,1-.2,0,.51.51,0,0,1-.51-.51.54.54,0,0,1,.33-.49,4.69,4.69,0,0,1,1.73-.31,2.4,2.4,0,0,1,1.78.6,2.2,2.2,0,0,1,.58,1.66V33a.59.59,0,0,1-.6.59.55.55,0,0,1-.6-.52v-.2a2.22,2.22,0,0,1-1.75.78A1.71,1.71,0,0,1,316.6,32Zm3.68-.38v-.37a3.47,3.47,0,0,0-1.22-.21c-.79,0-1.26.33-1.26.89v0c0,.52.46.82,1.05.82C319.66,32.77,320.28,32.3,320.28,31.62Z"/><path class="cls-1" d="M322.92,28.74a.62.62,0,1,1,1.23,0v.55a1.72,1.72,0,0,1,1.36-1.18.57.57,0,0,1,.61.61.59.59,0,0,1-.49.59c-.88.15-1.48.82-1.48,2.09V33a.61.61,0,0,1-.62.61.61.61,0,0,1-.61-.61Z"/><path class="cls-1" d="M332.25,33A.62.62,0,0,1,331,33v-.34a2.16,2.16,0,0,1-1.83,1,2.58,2.58,0,0,1-2.5-2.79v0a2.56,2.56,0,0,1,2.5-2.78A2.2,2.2,0,0,1,331,29V26.68a.61.61,0,0,1,.61-.61.61.61,0,0,1,.62.61Zm-4.31-2.14v0a1.6,1.6,0,0,0,1.54,1.72A1.62,1.62,0,0,0,331,30.87v0a1.62,1.62,0,0,0-1.56-1.72A1.58,1.58,0,0,0,327.94,30.85Z"/><path class="cls-1" d="M333.59,33a.48.48,0,0,1-.24-.43.5.5,0,0,1,.5-.5.48.48,0,0,1,.27.08,2.85,2.85,0,0,0,1.54.51c.53,0,.84-.22.84-.58v0c0-.41-.57-.56-1.2-.75-.8-.22-1.68-.55-1.68-1.58v0a1.71,1.71,0,0,1,1.91-1.63,3.75,3.75,0,0,1,1.69.43.54.54,0,0,1,.29.47.51.51,0,0,1-.75.44,3,3,0,0,0-1.26-.37c-.48,0-.75.23-.75.53v0c0,.4.58.56,1.21.77.78.24,1.67.6,1.67,1.56v0c0,1.13-.88,1.69-2,1.69A3.64,3.64,0,0,1,333.59,33Z"/><path class="cls-1" d="M338.65,34.46a.87.87,0,0,0,.69-.91.75.75,0,0,1-.58-.69v-.08a.67.67,0,0,1,.7-.69c.45,0,.73.35.73.9v.11a2.07,2.07,0,0,1-.5,1.49,1.57,1.57,0,0,1-1,.43.28.28,0,0,1-.31-.28A.29.29,0,0,1,338.65,34.46Z"/><path class="cls-1" d="M287.37,39.26a.62.62,0,0,1,.63-.63h2.17c1.67,0,2.71.95,2.71,2.38v0c0,1.6-1.28,2.43-2.85,2.43h-1.41v1.72a.63.63,0,0,1-1.25,0Zm2.7,3.07c.95,0,1.54-.53,1.54-1.27v0c0-.83-.6-1.27-1.54-1.27h-1.45v2.56Z"/><path class="cls-1" d="M294,40.94a.6.6,0,0,1,.61-.62.62.62,0,0,1,.62.62v.55a1.7,1.7,0,0,1,1.35-1.18.57.57,0,0,1,.61.61.58.58,0,0,1-.49.59c-.87.15-1.47.82-1.47,2.09v1.59a.61.61,0,0,1-.62.61.6.6,0,0,1-.61-.61Z"/><path class="cls-1" d="M300.49,45.87a2.68,2.68,0,0,1-2.75-2.78v0a2.67,2.67,0,0,1,2.62-2.8,2.53,2.53,0,0,1,2.55,2.64.57.57,0,0,1-.58.59H299a1.5,1.5,0,0,0,1.54,1.37,1.94,1.94,0,0,0,1.27-.47.5.5,0,0,1,.32-.11.48.48,0,0,1,.49.49.53.53,0,0,1-.16.38A2.76,2.76,0,0,1,300.49,45.87Zm1.22-3.18a1.39,1.39,0,0,0-1.36-1.41A1.44,1.44,0,0,0,299,42.69Z"/><path class="cls-1" d="M303.88,43.1v0a2.77,2.77,0,0,1,2.79-2.81,2.72,2.72,0,0,1,1.89.67.58.58,0,0,1,.19.43.56.56,0,0,1-.57.56.68.68,0,0,1-.37-.13,1.71,1.71,0,0,0-1.15-.45,1.61,1.61,0,0,0-1.55,1.7v0a1.62,1.62,0,0,0,1.61,1.71,1.83,1.83,0,0,0,1.2-.47.51.51,0,0,1,.86.4.48.48,0,0,1-.17.39,2.63,2.63,0,0,1-2,.76A2.74,2.74,0,0,1,303.88,43.1Z"/><path class="cls-1" d="M309.62,44.2v0c0-1.16.91-1.73,2.22-1.73a4.47,4.47,0,0,1,1.44.23v-.13c0-.77-.46-1.17-1.33-1.17a3.25,3.25,0,0,0-1.19.21l-.19,0a.51.51,0,0,1-.52-.51.55.55,0,0,1,.34-.49,4.6,4.6,0,0,1,1.72-.31,2.37,2.37,0,0,1,1.78.6,2.21,2.21,0,0,1,.58,1.66v2.64a.58.58,0,0,1-.6.59.56.56,0,0,1-.6-.52v-.2a2.16,2.16,0,0,1-1.75.78A1.72,1.72,0,0,1,309.62,44.2Zm3.68-.38v-.37a3.43,3.43,0,0,0-1.22-.21c-.79,0-1.26.33-1.26.89v0c0,.52.46.82,1.05.82C312.68,45,313.3,44.5,313.3,43.82Z"/><path class="cls-1" d="M320.72,45.19a.61.61,0,0,1-.62.61.61.61,0,0,1-.62-.61v-.27a2,2,0,0,1-1.68.94,1.84,1.84,0,0,1-1.91-2.06V40.94a.61.61,0,0,1,.61-.62.62.62,0,0,1,.62.62v2.49c0,.83.41,1.3,1.15,1.3a1.19,1.19,0,0,0,1.21-1.32V40.94a.61.61,0,0,1,.62-.62.62.62,0,0,1,.62.62Z"/><path class="cls-1" d="M322.51,44.26V41.44h-.21a.53.53,0,0,1-.53-.53.53.53,0,0,1,.53-.53h.21v-.92a.62.62,0,0,1,1.23,0v.92h1a.53.53,0,0,1,.54.53.54.54,0,0,1-.54.53h-1v2.63a.58.58,0,0,0,.66.67,2.86,2.86,0,0,0,.3,0,.52.52,0,0,1,.52.51.54.54,0,0,1-.32.48,2.52,2.52,0,0,1-.85.14A1.38,1.38,0,0,1,322.51,44.26Z"/><path class="cls-1" d="M326.41,38.94a.71.71,0,0,1,1.4,0V39a.71.71,0,0,1-1.4,0Zm.09,2a.62.62,0,1,1,1.23,0v4.25a.62.62,0,0,1-1.23,0Z"/><path class="cls-1" d="M329,43.1v0a2.87,2.87,0,0,1,5.73,0v0a2.81,2.81,0,0,1-2.88,2.79A2.78,2.78,0,0,1,329,43.1Zm4.5,0v0a1.66,1.66,0,0,0-1.65-1.73,1.61,1.61,0,0,0-1.62,1.7v0a1.66,1.66,0,0,0,1.64,1.71A1.61,1.61,0,0,0,333.54,43.1Z"/><path class="cls-1" d="M336,40.94a.6.6,0,0,1,.61-.62.62.62,0,0,1,.62.62v.26a2,2,0,0,1,1.68-.93,1.84,1.84,0,0,1,1.91,2v2.87a.62.62,0,0,1-1.23,0V42.7c0-.84-.42-1.31-1.15-1.31a1.2,1.2,0,0,0-1.21,1.33v2.47a.61.61,0,0,1-.62.61.6.6,0,0,1-.61-.61Z"/><path class="cls-1" d="M342.12,45.21a.47.47,0,0,1-.23-.43.48.48,0,0,1,.49-.49.54.54,0,0,1,.27.07,2.89,2.89,0,0,0,1.54.52c.53,0,.84-.23.84-.58v0c0-.42-.57-.56-1.2-.76-.8-.22-1.68-.55-1.68-1.57v0a1.71,1.71,0,0,1,1.91-1.64,3.64,3.64,0,0,1,1.69.44.51.51,0,0,1,.29.46.51.51,0,0,1-.75.44,3,3,0,0,0-1.26-.37c-.48,0-.75.23-.75.53v0c0,.4.58.56,1.21.77s1.67.6,1.67,1.56v0c0,1.13-.88,1.69-2,1.69A3.64,3.64,0,0,1,342.12,45.21Z"/><path class="cls-1" d="M355.36,45.66l-.74-.75a3.1,3.1,0,0,1-2.2.94,2.1,2.1,0,0,1-2.33-2v0a2.14,2.14,0,0,1,1.52-2,2.26,2.26,0,0,1-.59-1.48v0a1.86,1.86,0,0,1,2-1.79A1.75,1.75,0,0,1,355,40.23v0c0,.93-.62,1.49-1.55,1.85l1.21,1.23a9.78,9.78,0,0,0,.59-1,.52.52,0,0,1,.46-.29.54.54,0,0,1,.54.53.64.64,0,0,1-.07.27,11,11,0,0,1-.77,1.25l.79.8a.56.56,0,0,1,.2.42.54.54,0,0,1-.55.56A.56.56,0,0,1,355.36,45.66Zm-1.47-1.48-1.58-1.61a1.34,1.34,0,0,0-1,1.19v0a1.08,1.08,0,0,0,1.19,1A1.94,1.94,0,0,0,353.89,44.18Zm-.05-3.86v0a.76.76,0,0,0-.8-.8.81.81,0,0,0-.85.85v0a1.52,1.52,0,0,0,.53,1.06C353.46,41.16,353.84,40.84,353.84,40.32Z"/><path class="cls-1" d="M287,57.14l2.64-5.9a.8.8,0,0,1,.76-.51h.06a.78.78,0,0,1,.74.51l2.64,5.9a.54.54,0,0,1,.07.26.58.58,0,0,1-.59.6.65.65,0,0,1-.61-.44l-.57-1.33h-3.46l-.6,1.38a.6.6,0,0,1-.58.39.57.57,0,0,1-.58-.58A.63.63,0,0,1,287,57.14Zm4.66-2-1.25-2.87-1.25,2.87Z"/><path class="cls-1" d="M300.21,57.39a.62.62,0,0,1-1.23,0v-.33a2.15,2.15,0,0,1-1.83,1,2.57,2.57,0,0,1-2.49-2.78v0a2.57,2.57,0,0,1,2.49-2.79,2.21,2.21,0,0,1,1.83,1V51.09a.6.6,0,0,1,.61-.61.61.61,0,0,1,.62.61Zm-4.31-2.13v0A1.6,1.6,0,0,0,297.44,57,1.62,1.62,0,0,0,299,55.28v0a1.61,1.61,0,0,0-1.56-1.72A1.57,1.57,0,0,0,295.9,55.26Z"/><path class="cls-1" d="M304,58.05h-.06a.75.75,0,0,1-.7-.54l-1.79-4.09a1.08,1.08,0,0,1-.07-.31.62.62,0,0,1,1.22-.14L304,56.53l1.4-3.58a.62.62,0,0,1,.58-.43.58.58,0,0,1,.6.59.83.83,0,0,1-.07.3l-1.79,4.1A.76.76,0,0,1,304,58.05Z"/><path class="cls-1" d="M307.2,56.41v0c0-1.15.91-1.72,2.22-1.72a4.5,4.5,0,0,1,1.44.22v-.13c0-.77-.46-1.17-1.33-1.17a3.25,3.25,0,0,0-1.19.21l-.19,0a.51.51,0,0,1-.52-.51.52.52,0,0,1,.34-.48,4.4,4.4,0,0,1,1.72-.32,2.37,2.37,0,0,1,1.78.6,2.23,2.23,0,0,1,.58,1.66v2.64a.58.58,0,0,1-.6.59.56.56,0,0,1-.6-.52v-.2a2.16,2.16,0,0,1-1.75.78A1.72,1.72,0,0,1,307.2,56.41Zm3.68-.39v-.37a3.43,3.43,0,0,0-1.22-.21c-.79,0-1.26.33-1.26.89v0c0,.52.46.82,1.05.82C310.26,57.17,310.88,56.7,310.88,56Z"/><path class="cls-1" d="M313.53,53.14a.6.6,0,0,1,.61-.62.62.62,0,0,1,.62.62v.27a1.93,1.93,0,0,1,1.68-.94,1.84,1.84,0,0,1,1.91,2.05v2.87a.62.62,0,0,1-1.23,0V54.9c0-.83-.42-1.31-1.15-1.31a1.2,1.2,0,0,0-1.21,1.33v2.47a.61.61,0,0,1-.62.61.6.6,0,0,1-.61-.61Z"/><path class="cls-1" d="M319.54,55.3v0a2.77,2.77,0,0,1,2.79-2.81,2.67,2.67,0,0,1,1.88.67.55.55,0,0,1,.2.43.57.57,0,0,1-.57.56.59.59,0,0,1-.37-.13,1.71,1.71,0,0,0-1.15-.45,1.62,1.62,0,0,0-1.55,1.71v0a1.63,1.63,0,0,0,1.6,1.72,1.8,1.8,0,0,0,1.2-.48.59.59,0,0,1,.34-.14.54.54,0,0,1,.53.54.48.48,0,0,1-.17.39,2.63,2.63,0,0,1-2,.76A2.74,2.74,0,0,1,319.54,55.3Z"/><path class="cls-1" d="M328,58.07a2.68,2.68,0,0,1-2.76-2.78v0a2.67,2.67,0,0,1,2.62-2.8,2.54,2.54,0,0,1,2.56,2.64.58.58,0,0,1-.58.59h-3.37A1.5,1.5,0,0,0,328,57.07a2,2,0,0,0,1.27-.47.45.45,0,0,1,.31-.11A.48.48,0,0,1,330,57a.53.53,0,0,1-.16.38A2.75,2.75,0,0,1,328,58.07Zm1.22-3.18a1.4,1.4,0,0,0-1.37-1.41,1.45,1.45,0,0,0-1.39,1.41Z"/><path class="cls-1" d="M331.42,57.41a.47.47,0,0,1-.23-.43.49.49,0,0,1,.5-.49.53.53,0,0,1,.26.07,2.9,2.9,0,0,0,1.55.52c.53,0,.83-.23.83-.58v0c0-.42-.57-.56-1.2-.76-.79-.22-1.68-.55-1.68-1.57v0a1.72,1.72,0,0,1,1.91-1.64,3.64,3.64,0,0,1,1.69.44.51.51,0,0,1,.3.46.5.5,0,0,1-.51.5.48.48,0,0,1-.24-.06,3,3,0,0,0-1.27-.36c-.47,0-.75.22-.75.52v0c0,.39.58.55,1.21.76.79.24,1.67.6,1.67,1.56v0c0,1.13-.87,1.69-2,1.69A3.67,3.67,0,0,1,331.42,57.41Z"/><path class="cls-1" d="M339.75,51.14a.71.71,0,0,1,1.4,0v.06a.71.71,0,0,1-1.4,0Zm.09,2a.62.62,0,1,1,1.23,0v4.25a.62.62,0,0,1-1.23,0Z"/><path class="cls-1" d="M342.68,53.14a.6.6,0,0,1,.61-.62.62.62,0,0,1,.62.62v.27a1.93,1.93,0,0,1,1.68-.94,1.84,1.84,0,0,1,1.91,2.05v2.87a.62.62,0,0,1-1.23,0V54.9c0-.83-.42-1.31-1.15-1.31a1.2,1.2,0,0,0-1.21,1.33v2.47a.61.61,0,0,1-.62.61.6.6,0,0,1-.61-.61Z"/><path class="cls-1" d="M287,69.34l2.64-5.9a.8.8,0,0,1,.76-.51h.06a.78.78,0,0,1,.74.51l2.64,5.9a.54.54,0,0,1,.07.26.58.58,0,0,1-.59.6.66.66,0,0,1-.61-.43l-.57-1.34h-3.46l-.6,1.38a.6.6,0,0,1-.58.39.57.57,0,0,1-.58-.58A.63.63,0,0,1,287,69.34Zm4.66-2-1.25-2.88-1.25,2.88Z"/><path class="cls-1" d="M295.08,65.34a.62.62,0,1,1,1.23,0v.27a2,2,0,0,1,1.68-.94,1.84,1.84,0,0,1,1.91,2.06v2.86a.59.59,0,0,1-.61.61.61.61,0,0,1-.62-.61V67.1c0-.83-.41-1.31-1.15-1.31a1.2,1.2,0,0,0-1.21,1.33v2.47a.62.62,0,0,1-1.23,0Z"/><path class="cls-1" d="M301.09,67.5v0a2.85,2.85,0,0,1,4.68-2.14.6.6,0,0,1,.19.43.56.56,0,0,1-.57.56.62.62,0,0,1-.36-.12,1.69,1.69,0,0,0-1.15-.46,1.62,1.62,0,0,0-1.56,1.71v0a1.63,1.63,0,0,0,1.61,1.72,1.82,1.82,0,0,0,1.2-.48.52.52,0,0,1,.86.41.47.47,0,0,1-.17.38,2.62,2.62,0,0,1-1.95.76A2.74,2.74,0,0,1,301.09,67.5Z"/><path class="cls-1" d="M307.17,63.34a.71.71,0,0,1,1.41,0v.06a.71.71,0,0,1-1.41,0Zm.09,2a.62.62,0,1,1,1.23,0v4.25a.62.62,0,0,1-1.23,0Z"/><path class="cls-1" d="M312.56,70.27a2.67,2.67,0,0,1-2.75-2.78v0a2.66,2.66,0,0,1,2.62-2.8A2.54,2.54,0,0,1,315,67.32a.57.57,0,0,1-.58.58H311a1.5,1.5,0,0,0,1.54,1.37,1.94,1.94,0,0,0,1.27-.47.5.5,0,0,1,.32-.11.49.49,0,0,1,.49.5.5.5,0,0,1-.17.37A2.71,2.71,0,0,1,312.56,70.27Zm1.22-3.18a1.39,1.39,0,0,0-1.36-1.41A1.45,1.45,0,0,0,311,67.09Z"/><path class="cls-1" d="M316.24,65.34a.62.62,0,1,1,1.23,0v.27a2,2,0,0,1,1.68-.94,1.84,1.84,0,0,1,1.91,2.06v2.86a.59.59,0,0,1-.61.61.61.61,0,0,1-.62-.61V67.1c0-.83-.41-1.31-1.15-1.31a1.2,1.2,0,0,0-1.21,1.33v2.47a.62.62,0,0,1-1.23,0Z"/><path class="cls-1" d="M322.8,68.67V65.84h-.2a.52.52,0,0,1-.53-.53.53.53,0,0,1,.53-.53h.2v-.91a.62.62,0,0,1,1.23,0v.91h1a.54.54,0,0,1,.54.53.54.54,0,0,1-.54.53h-1v2.63a.59.59,0,0,0,.66.68c.14,0,.27,0,.31,0a.52.52,0,0,1,.52.5.53.53,0,0,1-.33.48,2.47,2.47,0,0,1-.84.14A1.37,1.37,0,0,1,322.8,68.67Z"/><path class="cls-1" d="M287.37,75.82a.63.63,0,0,1,.63-.63h.13a.67.67,0,0,1,.58.34l2.15,3.38L293,75.52a.64.64,0,0,1,.57-.33h.13a.63.63,0,0,1,.63.63v6a.61.61,0,0,1-.63.62.63.63,0,0,1-.62-.62V77.51l-1.74,2.62a.6.6,0,0,1-.53.32.6.6,0,0,1-.51-.32l-1.73-2.6v4.26a.61.61,0,0,1-.62.61.59.59,0,0,1-.61-.61Z"/><path class="cls-1" d="M298.51,82.48a2.68,2.68,0,0,1-2.76-2.79v0a2.67,2.67,0,0,1,2.63-2.8,2.54,2.54,0,0,1,2.55,2.65.58.58,0,0,1-.58.59H297a1.51,1.51,0,0,0,1.55,1.36A1.89,1.89,0,0,0,299.8,81a.46.46,0,0,1,.32-.11.49.49,0,0,1,.49.5.54.54,0,0,1-.17.37A2.75,2.75,0,0,1,298.51,82.48Zm1.22-3.19a1.39,1.39,0,0,0-1.36-1.41,1.47,1.47,0,0,0-1.4,1.41Z"/><path class="cls-1" d="M302.44,80.87V78h-.2a.53.53,0,0,1-.53-.53.53.53,0,0,1,.53-.53h.2v-.91a.62.62,0,0,1,1.24,0V77h1a.54.54,0,0,1,.54.53.53.53,0,0,1-.54.53h-1v2.64a.59.59,0,0,0,.66.67,2.86,2.86,0,0,0,.3,0,.51.51,0,0,1,.19,1,2.42,2.42,0,0,1-.84.15A1.38,1.38,0,0,1,302.44,80.87Z"/><path class="cls-1" d="M306,80.81v0c0-1.16.91-1.73,2.22-1.73a4.5,4.5,0,0,1,1.44.22v-.13c0-.76-.46-1.17-1.33-1.17a3.25,3.25,0,0,0-1.19.21.72.72,0,0,1-.19,0,.51.51,0,0,1-.52-.51.53.53,0,0,1,.34-.49,4.59,4.59,0,0,1,1.72-.32,2.41,2.41,0,0,1,1.78.6,2.23,2.23,0,0,1,.58,1.66v2.65a.58.58,0,0,1-.6.58.56.56,0,0,1-.6-.51v-.21a2.16,2.16,0,0,1-1.74.79A1.72,1.72,0,0,1,306,80.81Zm3.68-.39v-.36a3.21,3.21,0,0,0-1.22-.22c-.79,0-1.26.34-1.26.9v0c0,.52.46.81,1.05.81C309.07,81.57,309.69,81.1,309.69,80.42Z"/><path class="cls-1" d="M312.65,83.52a.5.5,0,0,1-.34-.48.51.51,0,0,1,.52-.51.48.48,0,0,1,.22,0,3.34,3.34,0,0,0,1.65.42,1.5,1.5,0,0,0,1.7-1.64v-.42a2.26,2.26,0,0,1-1.9,1,2.42,2.42,0,0,1-2.44-2.52v0a2.42,2.42,0,0,1,2.44-2.52,2.33,2.33,0,0,1,1.89.92v-.26a.61.61,0,0,1,.61-.61.62.62,0,0,1,.62.62v3.72a2.74,2.74,0,0,1-.69,2,3,3,0,0,1-2.2.72A4.61,4.61,0,0,1,312.65,83.52Zm3.76-4.12v0a1.5,1.5,0,0,0-1.58-1.47,1.46,1.46,0,0,0-1.53,1.47v0a1.46,1.46,0,0,0,1.53,1.48A1.51,1.51,0,0,0,316.41,79.4Z"/><path class="cls-1" d="M321.62,82.48a2.68,2.68,0,0,1-2.75-2.79v0a2.66,2.66,0,0,1,2.62-2.8A2.54,2.54,0,0,1,324,79.52a.58.58,0,0,1-.58.59H320.1a1.5,1.5,0,0,0,1.54,1.36,1.89,1.89,0,0,0,1.27-.47.48.48,0,0,1,.32-.11.49.49,0,0,1,.49.5.5.5,0,0,1-.17.37A2.72,2.72,0,0,1,321.62,82.48Zm1.22-3.19a1.39,1.39,0,0,0-1.36-1.41,1.45,1.45,0,0,0-1.39,1.41Z"/><path class="cls-1" d="M325.3,77.54a.62.62,0,1,1,1.23,0v.27a2,2,0,0,1,1.68-.94,1.84,1.84,0,0,1,1.91,2.06v2.86a.59.59,0,0,1-.61.61.61.61,0,0,1-.62-.61V79.3c0-.83-.42-1.31-1.15-1.31a1.2,1.2,0,0,0-1.21,1.33v2.47a.62.62,0,0,1-1.23,0Z"/><path class="cls-1" d="M331.31,79.7v0a2.87,2.87,0,0,1,5.73,0v0a2.81,2.81,0,0,1-2.88,2.8A2.78,2.78,0,0,1,331.31,79.7Zm4.5,0v0A1.66,1.66,0,0,0,334.16,78a1.61,1.61,0,0,0-1.62,1.71v0a1.66,1.66,0,0,0,1.64,1.72A1.61,1.61,0,0,0,335.81,79.7Z"/><path class="cls-1" d="M338.29,77.54a.61.61,0,0,1,.61-.62.62.62,0,0,1,.62.62v.26a1.91,1.91,0,0,1,1.63-.93,1.7,1.7,0,0,1,1.61.95,2.17,2.17,0,0,1,1.81-.95,1.8,1.8,0,0,1,1.88,2.06v2.86a.59.59,0,0,1-.61.61.61.61,0,0,1-.62-.61V79.3c0-.85-.39-1.31-1.09-1.31s-1.15.47-1.15,1.33v2.47a.6.6,0,0,1-.61.61.61.61,0,0,1-.62-.61v-2.5c0-.83-.4-1.3-1.08-1.3a1.17,1.17,0,0,0-1.15,1.33v2.47a.61.61,0,0,1-.62.61.6.6,0,0,1-.61-.61Z"/><path class="cls-1" d="M347.92,75.54a.71.71,0,0,1,1.41,0v.06a.71.71,0,0,1-1.41,0Zm.1,2a.61.61,0,0,1,.61-.62.62.62,0,0,1,.62.62v4.25a.61.61,0,0,1-.62.61.6.6,0,0,1-.61-.61Z"/><path class="cls-1" d="M350.56,79.7v0a2.85,2.85,0,0,1,4.68-2.14.6.6,0,0,1,.19.43.56.56,0,0,1-.57.56.68.68,0,0,1-.37-.12,1.67,1.67,0,0,0-1.15-.46,1.62,1.62,0,0,0-1.55,1.71v0a1.62,1.62,0,0,0,1.61,1.72,1.79,1.79,0,0,0,1.2-.48.52.52,0,0,1,.86.41.47.47,0,0,1-.17.38,2.64,2.64,0,0,1-2,.77A2.74,2.74,0,0,1,350.56,79.7Z"/><path class="cls-1" d="M356.46,81.82a.48.48,0,0,1-.24-.43.5.5,0,0,1,.5-.5A.53.53,0,0,1,357,81a2.81,2.81,0,0,0,1.55.52c.53,0,.83-.22.83-.58v0c0-.42-.57-.56-1.2-.75-.79-.23-1.67-.55-1.67-1.58v0a1.71,1.71,0,0,1,1.91-1.64,3.76,3.76,0,0,1,1.69.44.52.52,0,0,1,.29.47.5.5,0,0,1-.51.5.48.48,0,0,1-.24-.06,2.88,2.88,0,0,0-1.26-.37c-.48,0-.76.22-.76.53v0c0,.39.58.56,1.21.76.79.24,1.67.6,1.67,1.57v0c0,1.13-.87,1.69-2,1.69A3.72,3.72,0,0,1,356.46,81.82Z"/></svg>