<?xml version="1.0" encoding="UTF-8" standalone="no"?>
<svg
   width="28"
   height="28"
   version="1.1"
   id="svg1"
   sodipodi:docname="bluesky.svg"
   inkscape:version="1.3.2 (1:1.3.2+202311252150+091e20ef0f)"
   xmlns:inkscape="http://www.inkscape.org/namespaces/inkscape"
   xmlns:sodipodi="http://sodipodi.sourceforge.net/DTD/sodipodi-0.dtd"
   xmlns="http://www.w3.org/2000/svg"
   xmlns:svg="http://www.w3.org/2000/svg">
  <defs
     id="defs1" />
  <sodipodi:namedview
     id="namedview1"
     pagecolor="#505050"
     bordercolor="#ffffff"
     borderopacity="1"
     inkscape:showpageshadow="0"
     inkscape:pageopacity="0"
     inkscape:pagecheckerboard="1"
     inkscape:deskcolor="#d1d1d1"
     inkscape:zoom="1.5566038"
     inkscape:cx="13.169697"
     inkscape:cy="11.884848"
     inkscape:current-layer="svg1" />
  <path
     d="m 6.27956,3.6154902 c 3.12505,2.3461 6.4864,7.1029898 7.72052,9.6558208 1.23421,-2.552641 4.59537,-7.3097708 7.72052,-9.6558208 2.25487,-1.69284 5.90835,-3.00266998 5.90835,1.16527 0,0.8324 -0.47725,6.9925498 -0.75715,7.9926308 -0.97296,3.47696 -4.5184,4.36378 -7.67212,3.82703 5.51264,0.93823 6.91501,4.04599 3.88644,7.15375 -5.75185,5.90224 -8.26709,-1.48089 -8.91187,-3.37272 -0.11815,-0.34682 -0.17344,-0.50906 -0.17425,-0.3711 -8.2e-4,-0.13797 -0.0561,0.0243 -0.17425,0.3711 -0.6445,1.89183 -3.15969,9.27515 -8.91187,3.37272 -3.02862,-3.10776 -1.6263,-6.2157 3.88644,-7.15375 C 5.6465,17.137171 2.10102,16.250341 1.1282,12.773391 0.84829,11.77322 0.37105,5.6130602 0.37105,4.7807602 c 0,-4.16793998 3.65357,-2.85811 5.90835,-1.16527 z"
     fill="#1185fe"
     id="path1"
     style="fill:#ffffff;stroke-width:0.0469961" />
</svg>
