<?xml version="1.0" encoding="UTF-8" standalone="no"?>
<!-- Generator: Adobe Illustrator 25.0.0, SVG Export Plug-In . SVG Version: 6.00 Build 0)  -->

<svg
   version="1.1"
   id="图层_1"
   x="0px"
   y="0px"
   viewBox="0 0 24 24"
   style="enable-background:new 0 0 24 24;"
   xml:space="preserve"
   sodipodi:docname="email.svg"
   inkscape:version="1.1.1 (1:1.1+202109281949+c3084ef5ed)"
   xmlns:inkscape="http://www.inkscape.org/namespaces/inkscape"
   xmlns:sodipodi="http://sodipodi.sourceforge.net/DTD/sodipodi-0.dtd"
   xmlns="http://www.w3.org/2000/svg"
   xmlns:svg="http://www.w3.org/2000/svg"><defs
   id="defs13" /><sodipodi:namedview
   id="namedview11"
   pagecolor="#ffffff"
   bordercolor="#666666"
   borderopacity="1.0"
   inkscape:pageshadow="2"
   inkscape:pageopacity="0.0"
   inkscape:pagecheckerboard="0"
   showgrid="false"
   inkscape:zoom="12.81631"
   inkscape:cx="3.6281893"
   inkscape:cy="11.8989"
   inkscape:window-width="1920"
   inkscape:window-height="1016"
   inkscape:window-x="0"
   inkscape:window-y="27"
   inkscape:window-maximized="1"
   inkscape:current-layer="图层_1" />
<style
   type="text/css"
   id="style2">
	.st0{fill:none;}
</style>

<g
   id="g8"
   style="fill:#ffffff"
   transform="matrix(1.4375,0,0,1.4375,-5.25,-5.1625)">
	<path
   d="M 12,12.6 5.3,6.5 C 5.6,6.4 5.7,6.3 6,6.3 h 12.1 c 0.3,0 0.5,0.1 0.8,0.3 z m 7.7,-5.4 -7.1,6.6 c -0.3,0.3 -0.5,0.3 -0.8,0 L 4.6,7.2 C 4.5,7.5 4.3,7.7 4.3,8 v 7.7 c 0,0.9 0.8,1.6 1.6,1.6 h 12 c 0.9,0 1.6,-0.8 1.6,-1.6 V 8 c 0.2,-0.3 0.2,-0.5 0.2,-0.8 z"
   id="path6"
   style="fill:#ffffff" />
</g>
</svg>
