<?xml version="1.0" encoding="UTF-8"?>
<svg id="Layer_1" data-name="Layer 1" xmlns="http://www.w3.org/2000/svg" viewBox="0 0 778.67 974.8">
  <defs>
    <style>
      .cls-1 {
        fill: #fff;
      }

      .cls-1, .cls-2, .cls-3 {
        stroke-width: 0px;
      }

      .cls-2 {
        fill: #fff1aa;
      }

      .cls-3 {
        fill: #c2bdde;
      }
    </style>
  </defs>
  <path class="cls-3" d="M342.27,1.03c-26.2,3.1-62.3,11.4-88.6,20.6-27.2,9.5-63.7,28.8-88.8,46.9-37.5,27.2-62.1,50.7-87.2,83.3C32.47,210.33,6.07,279.33.67,352.83c-1.3,16.8-.6,59.1,1.1,77,2.4,24.1,7.6,49.7,15.1,73.7,1.7,5.4,3.5,11.4,4.1,13.3,2,7,12.2,30.8,18.4,43.2,15,29.9,26.7,48.1,46.3,72.3,19.3,23.8,61,61.3,77.8,70,3.2,1.7,9.1,5.2,13.2,7.9,7.6,5,27.5,14.9,44.6,22.1,8.8,3.7,26.5,9.4,32.5,10.5,3.6.6,8.5,1.9,11,3,2.5,1,9.2,2.4,15,3,5.8.7,11.9,1.7,13.5,2.2,1.7.5,7.1,1.2,12.1,1.5,8.1.5,10.2.2,20.4-2.6,14-3.9,39.7-14.1,58.5-23,14.6-7,46.2-25.8,62.6-37.3,24.1-16.9,55.6-45.7,74.5-68.3,43.8-52.3,72.7-103.6,93.8-166.8,6.5-19.4,11.1-41.3,14.5-69.3,2.8-23.3.4-72.7-5-100.4-.6-3-1.5-7.8-2-10.5-4-20.3-13-53.7-16.9-62-.5-1.1-1.9-4.5-3.1-7.5-5.9-15.4-17.7-36.6-28-50.1-24.1-31.7-51.1-52.5-90.9-70.2-6.2-2.7-33.3-11.4-41-13.1-30.8-6.8-70.5-7.4-103.3-1.5-39.4,7.1-71.2,21.1-95.9,42.1-23.2,19.8-37.2,35.6-54.4,61.4-29.6,44.6-49.2,97.4-55.6,149.9-1.8,14.9-1.8,70.2,0,85,6.1,49.7,13.1,74.3,31.9,111.9,8.5,16.9,19.3,33.1,32.8,49.1,6.7,7.9,20,20.9,25,24.3,2.2,1.5,7.2,5.3,11,8.4,12.2,9.9,36,23.3,51,28.8,23,8.4,36.9,12.1,57.5,15.2,11.7,1.8,68.3,1.8,80.5,0,25-3.7,44.7-9.4,62-18.2,12.4-6.3,13.5-6.7,13.5-5,0,1.9-18.3,20.1-24.2,24.1-8.6,5.9-27.5,14.9-38.3,18.2-19.9,6.2-35.4,8.1-64,8-27.1-.1-40.8-1.6-61.7-6.8-14.2-3.6-46.7-14.9-50.3-17.5-.5-.4-2.3-1-4-1.4-5.7-1.4-33.1-15.3-42.5-21.5-13.8-9.2-26.8-19.9-39.5-32.5-13.1-13.1-16.4-16.8-29.4-34.1-14.2-18.9-23.6-35.3-32.5-56.7-10.1-24.3-18.8-54.9-23.5-82.8-4.9-28.5-5.6-37.9-5.5-74.5.1-32,.3-36.7,2.7-55,3-22,5.6-35.7,8.8-45.3,2.1-6.3,1.8-9.5-.4-5.7-3.1,5.3-13.9,33.6-18.5,48.5-3.5,11.2-10.2,48.9-12.7,70.5-.1,1.6-.6,9.2-1,16.7-.4,7.6-1.1,13.8-1.6,13.8s-.9.8-1,1.7c-.1,1.2-.4,1-.9-.7-1.2-3.6-1.2-27.2,0-41.3,2.1-24.7,4.3-38.9,8.2-52.2,1.6-5.5,4.1-13.8,5.4-18.5,6.8-23.2,11.3-34.8,21.5-55.2,12.1-24.4,28-49.4,41.8-66,18.1-21.6,47.7-50.1,60.6-58.3,3.3-2.1,6.2-4.1,6.5-4.4,1.5-1.8,19.7-14.5,27.1-19,10.7-6.3,31.9-16.5,45.9-21.9,23.7-9.2,55-16,83-18.2,83.6-6.3,157,15.6,224.5,67,13.6,10.4,41.2,37.8,52.9,52.5,33.8,42.5,59.6,98.6,70.6,153.5,2.2,10.8,2.3,12.9,4,57.3,1.5,40-1.4,65.5-11.7,105.7-5.8,22.7-5.7,22.3-12.5,39.1-5.8,14.7-7.5,14.8-3.4.3,6.9-24.5,15.4-74.1,16.1-94.4.3-6.9.7-15,1-18,.5-6.7-1-10.4-1.9-4.4-1.9,13.2-4.9,25.7-15.2,63.4-9.8,36.2-28.1,74.3-55.9,117-25.5,39-70,84.6-110.5,113.2-10.2,7.2-49.3,31-76.5,46.5-3.3,1.9-12.1,6.4-19.5,10-48.2,23.4-83.9,37.3-125,48.7-15.3,4.3-18.2,5.1-31,8-9.7,2.3-38.3,7.3-48.5,8.5-4.9.6-13.5,1.6-19,2.3-5.9.7-26.5,1.2-50.5,1.4-25.9.1-41.7.5-43.9,1.2-1.8.6-4.8,2.3-6.7,3.7-10.4,8-10.5,27.1-.2,34.8,6.6,4.9,10.8,5.6,52.7,8.7,15,1.1,13.5.2,20.4,11.3,4,6.6,4.4,9.2,2.6,17.9-3.9,18.6-17.9,33.9-35,38.3-15.5,4-30.4,2.5-44.9-4.6-11-5.5-24.6-18.7-30.1-29.4-7.2-13.9-10.5-27.9-9.6-41.8,1.1-17.8,7.2-33.2,18-45.1,12-13.4,26.2-20.3,46.7-22.7,18.5-2.1,26-8.7,26-22.8-.1-10.3-6.7-17.8-19.1-21.8-8.6-2.7-15.3-2.9-26-.8-33.6,6.4-63.8,30.3-80.4,63.5-6.8,13.6-9.9,24.5-12,42.5-1.1,10.2-1.1,13.7,0,23.5,2.1,17.5,5.1,27.4,12.4,41,6.2,11.6,13.3,21.3,22.5,30.6,31.6,31.9,77.8,42.8,116.8,27.6,15.8-6.1,27.6-14.4,38.1-26.7,11.4-13.3,18.4-30,20.7-49.5,1.3-10.4.8-16.5-2.6-32.2-.7-3-1.2-2.9,11.6-4.8,37.4-5.5,53.6-9.5,99.9-24.5,8.4-2.8,10.8-3.2,12.5-2.3,2.6,1.4,6,3.9,20.7,15.3,6.3,5,13.8,10.4,16.5,11.9,2.7,1.6,7.8,5.4,11.4,8.6,9.5,8.2,16.7,13.4,23.7,16.9,3.4,1.7,7.4,4.7,9,6.6,7.5,9.5,50.6,34.9,77.1,45.4,30.1,11.9,56.1,16.6,92.2,16.6,28.4,0,42.1-1.5,64-7.2,33-8.6,66.6-29,88.1-53.6,19.1-21.9,31.7-46.9,35.8-71.2,3.5-20.6,3.8-28.6,1.6-44-6.2-43.8-32.8-80.5-67.3-93.3-15-5.5-35.1-8.2-46-6.2-22,4.1-33.8,8-48.4,16.1-13.9,7.7-17.5,10.4-27.3,20.3-10.5,10.7-15.5,17.7-20.9,30.1l-4,9-.1,13.5c0,20.5.9,23.8,11.2,40.3,4.2,6.7,17.3,14.3,28.7,16.7s28.3-1.6,37.9-8.9c5.8-4.4,11.2-12.1,12.8-18.5s.7-17-2.1-23.4c-3.6-8.2-12.6-15-21.5-15.9-5.8-.7-14.9,3-20.7,8.5-2.6,2.5-4.8,4.1-4.8,3.6,0-.4-.5-.3-1.2.4-2.3,2.3-2.8,1.1-2.8-6.8,0-6.7.5-9.1,2.8-14.3,13.2-28.6,53.3-41.9,82.7-27.3,39.4,19.6,53.8,73.5,31.4,117.8-6.9,13.8-25,33.8-39.1,43.6-13.3,9.1-31.4,17.4-44.8,20.5-14.9,3.4-18.3,3.9-36,4.4-35.8,1.1-60.2-3.3-91-16.4-13.3-5.7-22.3-10.6-38-20.8-29.2-19-74-53.4-74-56.9,0-.6,2.8-2.2,6.3-3.5,15-5.7,44.9-18.8,56.5-24.8,20-10.3,31.9-17.2,62.7-36.2,7.7-4.8,14.9-9.1,15.9-9.7,1.1-.5,2.4-3,3-5.5.7-2.5,2.9-7.6,5-11.4,15.2-27.6,49.2-55.1,82.4-66.4,10.3-3.6,27.4-7.1,34.1-7.1,4.4,0,4.8-.3,15.1-10.7,19.5-19.7,39.2-48.6,53-77.6,21.1-44.5,31.4-82,38.2-138.7,1.6-13.7,1.5-56-.1-72-2.9-28.2-8.8-57.4-16.1-79-34.8-103.8-112.3-189.6-211-233.8-25.4-11.4-33.2-14.1-56.5-20.2-23.6-6-39.9-9.1-64.1-11.9-10.8-1.3-65.5-1.2-76.9.1ZM411.77,106.33c34.8,6.2,61.3,19.4,85.3,42.4,17.7,17,31.6,38,45,68.1,8.1,17.9,17.3,49.7,21.8,75,2.3,12.7,3,18.4,4.4,35.5,3.5,42.8.6,95.1-7,128.5-16.5,72-46.1,119.1-89.6,142.8-13.5,7.4-33.3,13.6-53.7,16.9-15,2.4-57.3,2.3-72.2-.1-28.6-4.6-48-11.9-69.5-26.1-25.6-16.9-41.4-34.3-55.9-61.8-15.8-29.8-25.1-62.9-30.2-107.2-2.2-19-2.5-73.4-.6-93.5,3.3-34,5-44.6,10.8-67,7.5-28.9,17.8-53.3,32.4-77,11.3-18.4,29.4-37.9,45.3-48.8,23-15.9,51.8-25.8,85.7-29.6,7.3-.9,39.9.5,48,1.9Z"/>
  <path class="cls-1" d="M278.47,254.93c-5.8,1.4-11.5,4.6-17,9.7-10.3,9.7-14.7,19.4-14.7,32.5,0,16.5,6.9,29.3,20.3,37.9,7.2,4.6,11,5.8,20.3,6.5,21.2,1.5,39.3-11.8,45-33.2,5.9-21.9-9.3-47-32.1-53.1-5.6-1.5-16-1.7-21.8-.3ZM309.77,268.53c4,5.2.9,11.7-5.6,11.7s-9.5-6.5-5.3-11.8c2.9-3.7,8-3.6,10.9.1Z"/>
  <path class="cls-1" d="M455.17,255.33c-8.8,2.8-17.6,9.5-23.4,18-15.5,22.7-5.5,55.5,20,65.7,6.8,2.7,22.9,3.1,30,.9,10.1-3.3,20.5-12.3,25-21.7,5.2-10.6,6.1-19.9,3.2-30.5-4.3-15.3-15.5-27-31-32.1-6.4-2.1-17.6-2.3-23.8-.3ZM490.77,268.83c4.5,4.5,1.1,12-5.4,12-3.7,0-7.6-3.6-7.6-7,0-1,.9-2.9,2.1-4.4,2.6-3.3,7.9-3.6,10.9-.6Z"/>
  <path class="cls-1" d="M495.27,394.33c-2.2.8-5.3,2.9-6.8,4.7-2.8,3.4-3.2,4.3-6.7,18.8-1.2,4.7-2.8,9.8-3.5,11.5-.8,1.6-2.7,6-4.3,9.7-4.5,10.1-10.9,19.4-20.2,29.1-10.1,10.7-17.1,16.2-26.8,21.2-26.9,13.7-66.4,13.8-95.2.4-28.2-13.3-50.7-43.5-57.5-77.1-2.1-10.2-4.3-14.1-9.9-16.7-6.1-3-12.2-2.8-17.7.8-6,3.8-9,8.7-9.6,16-.6,6.8,2.5,17.5,10.8,37,19.3,45.1,55.4,74.6,102.4,83.7,13.7,2.7,46.5,2.5,60.1-.4,14.3-3,24.3-6.5,36.4-12.9,18.9-9.9,32.7-22.2,46-40.8,14.2-20,29.7-59,27.6-69.6-1.1-6.1-6.7-12.4-13.1-14.8-6.5-2.4-6.7-2.5-12-.6Z"/>
  <path class="cls-2" d="M736.17,628.23c-4.5,2-6.4,5.3-6.4,10.9,0,4.2.5,5.4,3.4,8.3s4.1,3.4,7.9,3.4c5.7,0,10.2-3.5,11.7-9,2.6-9.6-7.4-17.8-16.6-13.6Z"/>
  <path class="cls-2" d="M764.57,655.03c-2.4,2-2.8,4.4-1.2,6.7,1.8,2.5,6.5,2.8,8.8.5,4.4-4.4-2.7-11.1-7.6-7.2Z"/>
  <path class="cls-2" d="M8.67,673.73c-6.8,6.8-.4,17.3,9.5,15.4,3.5-.7,7.6-5.7,7.6-9.3,0-1.9-1.1-3.7-3.5-5.9-4.8-4.2-9.5-4.2-13.6-.2Z"/>
</svg>