<?xml version="1.0" standalone="no"?>
<!DOCTYPE svg PUBLIC "-//W3C//DTD SVG 20010904//EN"
 "http://www.w3.org/TR/2001/REC-SVG-20010904/DTD/svg10.dtd">
<svg version="1.0" xmlns="http://www.w3.org/2000/svg"
 width="780.000000pt" height="780.000000pt" viewBox="0 0 780.000000 780.000000"
 preserveAspectRatio="xMidYMid meet">

<g transform="translate(0.000000,780.000000) scale(0.100000,-0.100000)"
fill="#000000" stroke="none">
<path d="M3605 5750 c-286 -59 -505 -164 -731 -352 -277 -230 -460 -541 -536
-906 -30 -143 -32 -424 -4 -582 37 -213 128 -443 247 -619 98 -148 292 -339
418 -413 190 -112 435 -195 583 -197 82 -2 338 109 507 219 339 221 611 581
744 985 55 168 71 267 70 435 -1 294 -78 593 -198 775 -138 208 -375 355 -638
396 -150 24 -412 -3 -542 -56 -187 -75 -353 -230 -478 -444 -74 -126 -146
-325 -173 -474 -20 -113 -23 -369 -5 -482 49 -315 180 -562 382 -716 207 -158
415 -219 701 -206 144 7 260 33 349 78 33 16 59 25 59 21 0 -19 -100 -102
-157 -130 -82 -42 -152 -61 -266 -71 -181 -17 -339 10 -548 94 -154 61 -247
122 -359 235 -186 185 -283 376 -344 675 -44 216 -34 581 20 763 15 49 -37
-65 -61 -133 -31 -89 -75 -331 -75 -412 0 -33 -4 -53 -12 -53 -13 0 -5 169 13
280 16 104 76 288 125 386 162 329 449 597 764 713 146 54 223 65 440 65 182
0 216 -2 299 -23 492 -122 856 -490 997 -1006 32 -115 48 -373 33 -515 -16
-151 -88 -434 -106 -417 -2 3 5 45 16 93 31 139 51 280 50 347 -1 34 -4 51 -6
37 -7 -41 -63 -251 -79 -300 -89 -259 -246 -504 -454 -709 -250 -245 -719
-501 -1128 -615 -202 -57 -509 -94 -660 -80 -83 8 -146 -8 -168 -42 -33 -50
-13 -116 42 -134 18 -6 80 -15 139 -20 85 -6 109 -12 121 -27 35 -45 30 -116
-13 -177 -50 -71 -143 -100 -243 -76 -75 18 -159 98 -190 180 -45 120 -11 265
80 342 44 38 122 68 177 68 25 0 43 8 64 29 39 39 39 80 0 123 -28 32 -32 33
-108 33 -67 0 -87 -5 -143 -31 -157 -75 -263 -226 -284 -405 -23 -190 96 -396
279 -484 65 -32 88 -37 168 -42 78 -4 102 -2 156 17 35 12 83 34 105 50 110
75 174 222 154 354 -8 59 -5 66 30 66 47 1 253 47 352 79 52 17 101 31 109 31
14 0 142 -90 212 -149 20 -17 57 -43 83 -57 25 -14 49 -31 53 -38 21 -33 169
-122 284 -171 148 -64 224 -79 404 -79 185 -1 260 13 390 74 190 88 326 241
374 418 80 297 -77 586 -342 632 -133 23 -303 -37 -412 -145 -92 -91 -126
-180 -105 -278 36 -168 217 -232 332 -117 35 35 38 42 38 94 0 47 -4 60 -29
88 -40 45 -101 47 -152 4 l-34 -29 -3 28 c-5 44 6 73 45 116 47 52 103 80 173
86 141 13 260 -87 296 -247 31 -135 -11 -258 -128 -374 -128 -128 -258 -172
-473 -163 -218 10 -354 69 -615 265 -145 109 -146 110 -135 121 6 5 59 30 119
56 126 53 196 91 351 186 100 62 112 72 129 115 23 56 120 163 196 214 72 48
173 88 252 99 60 8 65 11 116 67 331 363 452 995 287 1499 -129 396 -455 762
-839 940 -129 60 -222 90 -370 120 -110 22 -153 25 -309 24 -135 0 -205 -5
-272 -19z m352 -411 c163 -18 277 -68 384 -167 121 -112 211 -277 262 -482 44
-174 50 -237 44 -475 -4 -189 -8 -235 -30 -325 -81 -340 -230 -540 -461 -617
-77 -26 -91 -27 -271 -28 -171 0 -197 2 -260 23 -147 48 -283 146 -358 259
-122 185 -177 405 -177 716 0 413 85 693 271 891 108 115 253 186 419 205 41
5 76 9 78 10 1 0 46 -4 99 -10z"/>
<path d="M3440 4719 c-32 -13 -78 -57 -96 -91 -24 -46 -18 -128 13 -175 98
-152 326 -83 325 98 -1 93 -70 167 -163 175 -30 2 -65 -1 -79 -7z m148 -67 c4
-28 -24 -40 -45 -19 -14 13 -14 19 -3 32 18 22 44 15 48 -13z"/>
<path d="M4165 4716 c-95 -43 -133 -160 -82 -257 34 -64 85 -91 164 -86 81 4
129 40 157 116 18 50 18 55 2 106 -33 104 -148 162 -241 121z m165 -51 c18
-21 5 -47 -22 -43 -26 3 -37 36 -16 49 18 12 24 11 38 -6z"/>
<path d="M3345 4150 c-11 -4 -29 -17 -39 -29 -54 -60 49 -293 182 -411 95 -85
204 -127 347 -136 217 -14 403 76 516 249 45 69 99 206 99 251 0 66 -91 107
-130 58 -10 -11 -20 -39 -24 -62 -11 -70 -66 -169 -129 -231 -94 -93 -193
-126 -341 -115 -186 14 -325 136 -380 333 -19 67 -25 78 -51 89 -17 6 -39 8
-50 4z"/>
<path d="M5332 3184 c-12 -8 -22 -26 -22 -38 0 -54 77 -64 95 -12 8 24 6 31
-14 47 -28 23 -31 23 -59 3z"/>
<path d="M5453 3074 c-8 -20 8 -36 26 -25 15 10 8 41 -9 41 -6 0 -13 -7 -17
-16z"/>
<path d="M2350 3005 c-26 -32 13 -81 48 -59 24 16 27 45 6 61 -23 17 -39 16
-54 -2z"/>
</g>
</svg>
