<?xml version="1.0" encoding="utf-8"?>
<!-- Generator: Adobe Illustrator 24.3.1, SVG Export Plug-In . SVG Version: 6.00 Build 0)  -->
<svg version="1.1" id="Layer_1" xmlns="http://www.w3.org/2000/svg" xmlns:xlink="http://www.w3.org/1999/xlink" x="0px" y="0px"
	 viewBox="0 0 595.28 841.89" style="enable-background:new 0 0 595.28 841.89;" xml:space="preserve">
<style type="text/css">
	.st0{fill:#FFFFFF;}
	.st1{fill:none;stroke:#6699FF;stroke-width:28;stroke-miterlimit:10;}
	.st2{fill:#6699FF;stroke:#FFFFFF;stroke-width:28;stroke-miterlimit:10;}
	.st3{fill:#6699FF;}
	.st4{fill:#6699FF;stroke:#FFFFFF;stroke-width:8;stroke-miterlimit:10;}
	.st5{fill:#FFFFFF;stroke:#FFFFFF;stroke-width:28;stroke-miterlimit:10;}
	.st6{fill:none;stroke:#FFFFFF;stroke-width:28;stroke-linecap:round;stroke-miterlimit:10;}
	.st7{fill:none;}
</style>
<path class="st0" d="M1484.56-1120.6v-85.89c0-17.99-14.58-32.57-32.57-32.57H-574.3c-17.99,0-32.57,14.58-32.57,32.57v75.5
	l13.51,37.64c0,0,118.26,189.73,0,523.75c0,0-598.03,1449.38,1037.27,1450.88c1635.3-1.5,1037.27-1450.88,1037.27-1450.88h0.95
	c-118.26-334.02,0-523.75,0-523.75L1484.56-1120.6z"/>
<line class="st1" x1="-338.64" y1="-820.13" x2="90.94" y2="-656.59"/>
<line class="st1" x1="-200" y1="-364.32" x2="465.02" y2="-1032.41"/>
<circle class="st2" cx="-200" cy="-364.32" r="101.19"/>
<circle class="st2" cx="393.76" cy="-960.56" r="101.19"/>
<circle class="st2" cx="90.94" cy="-656.59" r="151.79"/>
<circle class="st2" cx="-338.64" cy="-820.13" r="101.19"/>
<g>
	<path class="st3" d="M363.4,462.3c0,0,123.64-157.42,332.95-80.3l-2.61-2.62c77.02,209.35-80.46,332.91-80.46,332.91"/>
	<path class="st3" d="M1012.6,60.99c81.63,221.98-24.49,304.47-24.49,304.47S905.67,459.12,696.35,382l-2.61-2.62
		c-77.02-209.35,16.67-291.75,16.67-291.75s82.54-106.09,304.48-24.35L1012.6,60.99z"/>
	<path class="st3" d="M1074.32-270.12c0,0-145.33,103.77-61.72,331.11l2.29,2.29c227.3,83.71,331.14-61.57,331.14-61.57"/>
</g>
<path class="st2" d="M1058.19-669.29c0,0,169.6,166.2,62.4,277.28c0,0-50.17,50.25-93.4,10.93s16.82-87.55,16.82-87.55
	s34.99-19.44-56.89-112.11"/>
<path class="st2" d="M1260.82-933.72l-237.4,237.29c-7.48,7.47-19.59,7.47-27.07-0.01l-73.34-73.38
	c-7.47-7.48-7.47-19.59,0.01-27.07l237.4-237.29c7.48-7.47,19.59-7.47,27.07,0.01l73.34,73.38
	C1268.3-953.31,1268.3-941.19,1260.82-933.72z"/>
<polyline class="st4" points="-180.47,429.08 -344.12,571.78 -198.21,402.05 "/>
<path class="st2" d="M64.99,201.46l-222.57,222.47c-7.1,7.1-18.62,7.1-25.72-0.01l-15.79-15.8c-7.1-7.1-7.1-18.62,0.01-25.72
	L23.48,159.93c7.1-7.1,18.62-7.1,25.72,0.01l15.79,15.8C72.09,182.84,72.09,194.36,64.99,201.46z"/>
<path class="st2" d="M148.16,156.88L50.19,254.8c-13.45,13.45-35.26,13.44-48.71-0.01l-31.54-31.55
	c-13.45-13.45-13.44-35.26,0.01-48.71l97.97-97.92c13.45-13.45,35.26-13.44,48.71,0.01l31.54,31.55
	C161.61,121.63,161.61,143.44,148.16,156.88z"/>
<path class="st2" d="M246.83,133.92l-89.64,89.6c-13.45,13.45-35.26,13.44-48.71-0.01L2.38,117.34
	c-13.45-13.45-13.44-35.26,0.01-48.71l89.64-89.6c13.45-13.45,35.26-13.44,48.71,0.01L246.85,85.21
	C260.29,98.67,260.29,120.47,246.83,133.92z"/>
<path class="st2" d="M1074.12-611.17L281.05,181.54c-16.45,16.44-43.12,16.44-59.56-0.01L46.08,6.05
	C29.64-10.4,29.65-37.07,46.1-53.51l793.08-792.71c16.45-16.44,43.12-16.44,59.56,0.01l175.4,175.48
	C1090.58-654.28,1090.58-627.61,1074.12-611.17z"/>
<path class="st2" d="M845.99-794.61L718.12-666.8c-11.74,11.74-30.78,11.73-42.52-0.01l-16.47-16.48
	c-11.74-11.74-11.73-30.78,0.01-42.52L787-853.61c11.74-11.74,30.78-11.73,42.52,0.01L846-837.12
	C857.73-825.38,857.73-806.34,845.99-794.61z"/>
<path class="st2" d="M889.81-838.41l-48.69,48.67c-4.8,4.8-12.59,4.8-17.39,0L720.92-892.6c-4.8-4.8-4.8-12.59,0-17.39l0,0
	c16.21-16.2,41.27-19.53,61.14-8.13l107.45,64.77C896.54-849.32,895.54-844.14,889.81-838.41z"/>
<path class="st2" d="M1310.63-911.19L1310.63-911.19c-13.83,13.82-36.24,13.81-50.06-0.01l-123.52-123.58
	c-13.82-13.83-13.81-36.24,0.01-50.06l0,0c13.83-13.82,36.24-13.81,50.06,0.01l123.52,123.58
	C1324.46-947.42,1324.46-925.01,1310.63-911.19z"/>
<path class="st5" d="M734.34-429.03L445.62-140.44c-8.16,8.16-21.39,8.15-29.54-0.01l-50.69-50.72c-8.16-8.16-8.15-21.39,0.01-29.54
	L654.12-509.3c8.16-8.16,21.39-8.15,29.54,0.01l50.69,50.72C742.5-450.41,742.5-437.18,734.34-429.03z"/>
<g>
	<path class="st1" d="M1073.66-269.82c0,0-145.33,103.77-61.72,331.11c81.63,221.98-24.49,304.47-24.49,304.47
		S905,459.41,695.69,382.29s-332.95,80.3-332.95,80.3"/>
	<path class="st1" d="M1345.36,2.01c0,0-103.83,145.28-331.14,61.57C792.28-18.16,709.74,87.93,709.74,87.93
		s-93.7,82.4-16.67,291.75s-80.46,332.91-80.46,332.91"/>
	<line class="st6" x1="1134.08" y1="-137.22" x2="1313.76" y2="42.54"/>
	<line class="st6" x1="1154.4" y1="2.38" x2="987.56" y2="-164.53"/>
	<line class="st6" x1="950.96" y1="197.72" x2="784.13" y2="30.81"/>
	<line class="st6" x1="820.09" y1="182.62" x2="1001.22" y2="363.83"/>
	<line class="st6" x1="841.71" y1="314.92" x2="664.58" y2="137.71"/>
	<line class="st6" x1="557.8" y1="444.78" x2="706.6" y2="593.65"/>
	<line class="st6" x1="572.51" y1="579.77" x2="405.41" y2="412.59"/>
</g>
<rect x="-767.29" y="988.02" class="st7" width="2425.03" height="680.54"/>
<text transform="matrix(1 0 0 1 -643.0795 1643.2161)" class="st0" style="font-family:'Rubik-Bold'; font-size:900px;">ISBA</text>
</svg>
