<?xml version="1.0" encoding="UTF-8" standalone="no"?>
<!-- Generator: Adobe Illustrator 24.3.1, SVG Export Plug-In . SVG Version: 6.00 Build 0)  -->

<svg
   version="1.1"
   id="Layer_1"
   x="0px"
   y="0px"
   viewBox="0 0 2814.5299 3198.02"
   xml:space="preserve"
   sodipodi:docname="ISBA_logo-9_FINAL_whiteback_thickDNA.svg"
   width="2814.53"
   height="3198.02"
   inkscape:version="1.2 (1:1.2.1+202207142221+cd75a1ee6d)"
   xmlns:inkscape="http://www.inkscape.org/namespaces/inkscape"
   xmlns:sodipodi="http://sodipodi.sourceforge.net/DTD/sodipodi-0.dtd"
   xmlns="http://www.w3.org/2000/svg"
   xmlns:svg="http://www.w3.org/2000/svg"><defs
   id="defs79" /><sodipodi:namedview
   id="namedview77"
   pagecolor="#ffffff"
   bordercolor="#666666"
   borderopacity="1.0"
   inkscape:showpageshadow="2"
   inkscape:pageopacity="0.0"
   inkscape:pagecheckerboard="0"
   inkscape:deskcolor="#d1d1d1"
   showgrid="false"
   inkscape:zoom="1.0702111"
   inkscape:cx="1336.185"
   inkscape:cy="1607.1596"
   inkscape:window-width="1920"
   inkscape:window-height="1163"
   inkscape:window-x="1920"
   inkscape:window-y="0"
   inkscape:window-maximized="1"
   inkscape:current-layer="Layer_1" />
<style
   type="text/css"
   id="style2">
	.st0{fill:#FFFFFF;}
	.st1{fill:#6699FF;}
	.st2{fill:none;stroke:#FFFFFF;stroke-width:28;stroke-miterlimit:10;}
	.st3{fill:#FFFFFF;stroke:#6699FF;stroke-width:28;stroke-miterlimit:10;}
	.st4{fill:#FFFFFF;stroke:#6699FF;stroke-width:14;stroke-miterlimit:10;}
	.st5{fill:#6699FF;stroke:#6699FF;stroke-width:28;stroke-miterlimit:10;}
	.st6{fill:none;stroke:#6699FF;stroke-width:28;stroke-linecap:round;stroke-miterlimit:10;}
</style>
<rect
   x="0"
   y="0"
   class="st0"
   width="2814.53"
   height="3198.02"
   id="rect4" />
<rect
   x="199.49005"
   y="2364.6299"
   style="fill:none"
   width="2425.03"
   height="680.53998"
   id="rect6" />
<text
   class="st1"
   style="font-size:900px;font-family:ArialRoundedMTBold"
   id="text8"
   x="323.69662"
   y="3019.8301">ISBA</text>
<path
   class="st1"
   d="m 2447.91,274.92998 v -85.89 c 0,-17.99 -14.58,-32.57 -32.57,-32.57 H 389.05003 c -17.99,0 -32.57,14.58 -32.57,32.57 v 75.5 l 13.51,37.64 c 0,0 118.26,189.73 0,523.75 0,0 -598.03,1449.38002 1037.26997,1450.88002 1635.31,-1.5 1037.27,-1450.88002 1037.27,-1450.88002 h 0.95 c -118.26,-334.02 0,-523.75 0,-523.75 z"
   id="path10" />
<line
   class="st2"
   x1="626.41003"
   y1="575.39996"
   x2="1055.98"
   y2="738.92993"
   id="line12" />
<line
   class="st2"
   x1="765.05005"
   y1="1031.21"
   x2="1430.0701"
   y2="363.12"
   id="line14" />
<circle
   class="st3"
   cx="765.05005"
   cy="1031.21"
   r="101.19"
   id="circle16" />
<circle
   class="st3"
   cx="1358.8101"
   cy="434.95996"
   r="101.19"
   id="circle18" />
<circle
   class="st3"
   cx="1055.98"
   cy="738.92993"
   r="151.78999"
   id="circle20" />
<circle
   class="st3"
   cx="626.41003"
   cy="575.39996"
   r="101.19"
   id="circle22" />
<g
   id="g30"
   transform="translate(1109.53,1186.6)">
	<path
   class="st0"
   d="m 223.91,671.22 c 0,0 123.64,-157.42 332.95,-80.3 l -2.61,-2.62 c 77.02,209.35 -80.46,332.91 -80.46,332.91"
   id="path24" />
	<path
   class="st0"
   d="m 873.11,269.92 c 81.63,221.98 -24.49,304.47 -24.49,304.47 0,0 -82.44,93.66 -291.76,16.54 l -2.61,-2.62 c -77.02,-209.35 16.67,-291.75 16.67,-291.75 0,0 82.54,-106.09 304.48,-24.35 z"
   id="path26" />
	<path
   class="st0"
   d="m 934.84,-61.19 c 0,0 -145.33,103.77 -61.72,331.11 l 2.29,2.29 c 227.3,83.71 331.14,-61.57 331.14,-61.57"
   id="path28" />
</g>
<g
   id="g54"
   transform="translate(1109.53,1186.6)">
	<path
   class="st3"
   d="m 913.7,-460.36 c 0,0 169.6,166.2 62.4,277.28 0,0 -50.17,50.25 -93.4,10.93 -43.23,-39.32 16.82,-87.55 16.82,-87.55 0,0 34.99,-19.44 -56.89,-112.11"
   id="path32" />
	<path
   class="st3"
   d="m 1116.34,-724.79 -237.4,237.29 c -7.48,7.47 -19.59,7.47 -27.07,-0.01 l -73.34,-73.38 c -7.47,-7.48 -7.47,-19.59 0.01,-27.07 l 237.4,-237.29 c 7.48,-7.47 19.59,-7.47 27.07,0.01 l 73.34,73.38 c 7.47,7.48 7.46,19.6 -0.01,27.07 z"
   id="path34" />
	<polyline
   class="st4"
   points="-324.95,638.01 -488.61,780.7 -342.7,610.98  "
   id="polyline36" />
	<path
   class="st3"
   d="m -79.5,410.38 -222.57,222.47 c -7.1,7.1 -18.62,7.1 -25.72,-0.01 l -15.79,-15.8 c -7.1,-7.1 -7.1,-18.62 0.01,-25.72 L -121,368.86 c 7.1,-7.1 18.62,-7.1 25.72,0.01 l 15.79,15.8 c 7.1,7.1 7.1,18.61 -0.01,25.71 z"
   id="path38" />
	<path
   class="st3"
   d="m 3.67,365.81 -97.97,97.92 c -13.45,13.45 -35.26,13.44 -48.71,-0.01 l -31.54,-31.55 c -13.45,-13.45 -13.44,-35.26 0.01,-48.71 l 97.97,-97.92 c 13.45,-13.45 35.26,-13.44 48.71,0.01 L 3.68,317.1 c 13.45,13.46 13.45,35.26 -0.01,48.71 z"
   id="path40" />
	<path
   class="st3"
   d="m 102.35,342.85 -89.64,89.6 C -0.74,445.9 -22.55,445.89 -36,432.44 L -142.1,326.27 c -13.45,-13.45 -13.44,-35.26 0.01,-48.71 l 89.64,-89.6 c 13.45,-13.45 35.26,-13.44 48.71,0.01 l 106.11,106.16 c 13.44,13.46 13.43,35.27 -0.02,48.72 z"
   id="path42" />
	<path
   class="st3"
   d="M 929.64,-402.24 136.56,390.47 C 120.11,406.91 93.44,406.91 77,390.46 L -98.4,214.97 c -16.44,-16.45 -16.44,-43.12 0.01,-59.56 L 694.69,-637.3 c 16.45,-16.44 43.12,-16.44 59.56,0.01 l 175.4,175.48 c 16.45,16.46 16.44,43.13 -0.01,59.57 z"
   id="path44" />
	<path
   class="st3"
   d="m 701.5,-585.68 -127.86,127.8 c -11.74,11.74 -30.78,11.73 -42.52,-0.01 l -16.47,-16.48 c -11.74,-11.74 -11.73,-30.78 0.01,-42.52 l 127.86,-127.8 c 11.74,-11.74 30.78,-11.73 42.52,0.01 l 16.47,16.48 c 11.74,11.75 11.73,30.78 -0.01,42.52 z"
   id="path46" />
	<path
   class="st3"
   d="m 745.33,-629.48 -48.69,48.67 c -4.8,4.8 -12.59,4.8 -17.39,0 L 576.43,-683.67 c -4.8,-4.8 -4.8,-12.59 0,-17.39 v 0 c 16.21,-16.2 41.27,-19.53 61.14,-8.13 l 107.45,64.77 c 7.04,4.03 6.04,9.21 0.31,14.94 z"
   id="path48" />
	<path
   class="st3"
   d="m 1166.15,-702.27 v 0 c -13.83,13.82 -36.24,13.81 -50.06,-0.01 L 992.57,-825.86 c -13.82,-13.83 -13.81,-36.24 0.01,-50.06 v 0 c 13.83,-13.82 36.24,-13.81 50.06,0.01 l 123.52,123.58 c 13.82,13.83 13.82,36.25 -0.01,50.06 z"
   id="path50" />
	<path
   class="st5"
   d="M 589.86,-220.1 301.14,68.49 c -8.16,8.16 -21.39,8.15 -29.54,-0.01 L 220.9,17.76 c -8.16,-8.16 -8.15,-21.39 0.01,-29.54 l 288.72,-288.59 c 8.16,-8.16 21.39,-8.15 29.54,0.01 l 50.69,50.72 c 8.16,8.16 8.16,21.38 0,29.54 z"
   id="path52" />
</g>
<g
   id="g74"
   transform="translate(1109.53,1186.6)">
	<path
   class="st2"
   d="m 936.17,-60.9 c 0,0 -145.33,103.77 -61.72,331.11 81.63,221.98 -24.49,304.47 -24.49,304.47 0,0 -82.44,93.66 -291.76,16.54 -209.32,-77.12 -332.95,80.3 -332.95,80.3"
   id="path56" />
	<path
   class="st2"
   d="m 1207.88,210.93 c 0,0 -103.83,145.28 -331.14,61.57 -221.94,-81.74 -304.48,24.35 -304.48,24.35 0,0 -93.7,82.4 -16.67,291.75 77.03,209.35 -80.46,332.91 -80.46,332.91"
   id="path58" />
	<line
   class="st6"
   x1="1011.62"
   y1="88.43"
   x2="1191.3101"
   y2="268.20001"
   id="line60" />
	<line
   class="st6"
   x1="1010.54"
   y1="201.96001"
   x2="843.71002"
   y2="35.049999"
   id="line62" />
	<line
   class="st6"
   x1="805.89001"
   y1="393.66"
   x2="639.06"
   y2="226.75"
   id="line64" />
	<line
   class="st6"
   x1="698.23999"
   y1="410.25"
   x2="879.37"
   y2="591.46002"
   id="line66" />
	<line
   class="st6"
   x1="687.02002"
   y1="509.25"
   x2="509.89999"
   y2="332.04999"
   id="line68" />
	<line
   class="st6"
   x1="435.5"
   y1="671"
   x2="584.29999"
   y2="819.87"
   id="line70" />
	<line
   class="st6"
   x1="426.66"
   y1="779.42999"
   x2="259.56"
   y2="612.25"
   id="line72" />
</g>
</svg>
