<?xml version="1.0" encoding="UTF-8" standalone="no"?>
<!-- Generator: Adobe Illustrator 24.3.1, SVG Export Plug-In . SVG Version: 6.00 Build 0)  -->

<svg
   version="1.1"
   id="Layer_1"
   x="0px"
   y="0px"
   viewBox="0 0 2425.0299 2907.6201"
   xml:space="preserve"
   sodipodi:docname="ISBA_logo-9_FINAL_transparentwhite-r.svg"
   width="2425.03"
   height="2907.6201"
   inkscape:version="1.2 (1:1.2.1+202207142221+cd75a1ee6d)"
   xmlns:inkscape="http://www.inkscape.org/namespaces/inkscape"
   xmlns:sodipodi="http://sodipodi.sourceforge.net/DTD/sodipodi-0.dtd"
   xmlns="http://www.w3.org/2000/svg"
   xmlns:svg="http://www.w3.org/2000/svg"><defs
   id="defs75" /><sodipodi:namedview
   id="namedview73"
   pagecolor="#ffffff"
   bordercolor="#666666"
   borderopacity="1.0"
   inkscape:showpageshadow="2"
   inkscape:pageopacity="0.0"
   inkscape:pagecheckerboard="0"
   inkscape:deskcolor="#d1d1d1"
   showgrid="false"
   inkscape:zoom="0.37837675"
   inkscape:cx="1147.0049"
   inkscape:cy="1791.8649"
   inkscape:window-width="1920"
   inkscape:window-height="1163"
   inkscape:window-x="1920"
   inkscape:window-y="0"
   inkscape:window-maximized="1"
   inkscape:current-layer="Layer_1" />
<style
   type="text/css"
   id="style2">
	.st0{fill:#FFFFFF;}
	.st1{fill:none;stroke:#6699FF;stroke-width:28;stroke-miterlimit:10;}
	.st2{fill:#6699FF;stroke:#FFFFFF;stroke-width:28;stroke-miterlimit:10;}
	.st3{fill:#6699FF;}
	.st4{fill:#6699FF;stroke:#FFFFFF;stroke-width:8;stroke-miterlimit:10;}
	.st5{fill:#FFFFFF;stroke:#FFFFFF;stroke-width:28;stroke-miterlimit:10;}
	.st6{fill:none;stroke:#FFFFFF;stroke-width:28;stroke-linecap:round;stroke-miterlimit:10;}
	.st7{fill:none;}
</style>
<path
   class="st0"
   d="M 2251.85,118.46 V 32.57 C 2251.85,14.58 2237.27,0 2219.28,0 H 192.98998 c -17.99,0 -32.57,14.58 -32.57,32.57 v 75.5 l 13.51,37.64 c 0,0 118.26,189.73 0,523.75 0,0 -598.03,1449.38 1037.27002,1450.88 1635.3,-1.5 1037.27,-1450.88 1037.27,-1450.88 h 0.95 c -118.26,-334.02 0,-523.75 0,-523.75 z"
   id="path4" />
<line
   class="st1"
   x1="428.64996"
   y1="418.92999"
   x2="858.22998"
   y2="582.46997"
   id="line6" />
<line
   class="st1"
   x1="567.28998"
   y1="874.73999"
   x2="1232.3099"
   y2="206.64996"
   id="line8" />
<circle
   class="st2"
   cx="567.28998"
   cy="874.73999"
   r="101.19"
   id="circle10" />
<circle
   class="st2"
   cx="1161.05"
   cy="278.5"
   r="101.19"
   id="circle12" />
<circle
   class="st2"
   cx="858.22998"
   cy="582.46997"
   r="151.78999"
   id="circle14" />
<circle
   class="st2"
   cx="428.64996"
   cy="418.92999"
   r="101.19"
   id="circle16" />
<g
   id="g24"
   transform="translate(767.28998,1239.06)">
	<path
   class="st3"
   d="m 363.4,462.3 c 0,0 123.64,-157.42 332.95,-80.3 l -2.61,-2.62 c 77.02,209.35 -80.46,332.91 -80.46,332.91"
   id="path18" />
	<path
   class="st3"
   d="m 1012.6,60.99 c 81.63,221.98 -24.49,304.47 -24.49,304.47 0,0 -82.44,93.66 -291.76,16.54 l -2.61,-2.62 C 616.72,170.03 710.41,87.63 710.41,87.63 c 0,0 82.54,-106.09 304.48,-24.35 z"
   id="path20" />
	<path
   class="st3"
   d="m 1074.32,-270.12 c 0,0 -145.33,103.77 -61.72,331.11 l 2.29,2.29 c 227.3,83.71 331.14,-61.57 331.14,-61.57"
   id="path22" />
</g>
<path
   class="st2"
   d="m 1825.48,569.77 c 0,0 169.6,166.2 62.4,277.28 0,0 -50.17,50.25 -93.4,10.93 -43.23,-39.32 16.82,-87.55 16.82,-87.55 0,0 34.99,-19.44 -56.89,-112.11"
   id="path26" />
<path
   class="st2"
   d="m 2028.11,305.34 -237.4,237.29 c -7.48,7.47 -19.59,7.47 -27.07,-0.01 l -73.34,-73.38 c -7.47,-7.48 -7.47,-19.59 0.01,-27.07 l 237.4,-237.29 c 7.48,-7.47 19.59,-7.47 27.07,0.01 l 73.34,73.38 c 7.47,7.48 7.47,19.6 -0.01,27.07 z"
   id="path28" />
<polyline
   class="st4"
   points="-180.47,429.08 -344.12,571.78 -198.21,402.05 "
   id="polyline30"
   transform="translate(767.28998,1239.06)" />
<path
   class="st2"
   d="m 832.27998,1440.52 -222.57,222.47 c -7.1,7.1 -18.62,7.1 -25.72,-0.01 l -15.79,-15.8 c -7.1,-7.1 -7.1,-18.62 0.01,-25.72 l 222.56,-222.47 c 7.1,-7.1 18.62,-7.1 25.72,0.01 l 15.79,15.8 c 7.1,7.1 7.1,18.62 0,25.72 z"
   id="path32" />
<path
   class="st2"
   d="m 915.44998,1395.94 -97.97,97.92 c -13.45,13.45 -35.26,13.44 -48.71,-0.01 l -31.54,-31.55 c -13.45,-13.45 -13.44,-35.26 0.01,-48.71 l 97.97,-97.92 c 13.45,-13.45 35.26,-13.44 48.71,0.01 l 31.54,31.55 c 13.44,13.46 13.44,35.27 -0.01,48.71 z"
   id="path34" />
<path
   class="st2"
   d="m 1014.12,1372.98 -89.64002,89.6 c -13.45,13.45 -35.26,13.44 -48.71,-0.01 l -106.1,-106.17 c -13.45,-13.45 -13.44,-35.26 0.01,-48.71 l 89.64,-89.6 c 13.45,-13.45 35.26,-13.44 48.71,0.01 L 1014.14,1324.27 c 13.44,13.46 13.44,35.26 -0.02,48.71 z"
   id="path36" />
<path
   class="st2"
   d="m 1841.41,627.89 -793.07,792.71 c -16.45,16.44 -43.12,16.44 -59.56002,-0.01 l -175.41,-175.48 c -16.44,-16.45 -16.43,-43.12 0.02,-59.56 L 1606.47,392.84 c 16.45,-16.44 43.12,-16.44 59.56,0.01 l 175.4,175.48 c 16.44,16.45 16.44,43.12 -0.02,59.56 z"
   id="path38" />
<path
   class="st2"
   d="m 1613.28,444.45 -127.87,127.81 c -11.74,11.74 -30.78,11.73 -42.52,-0.01 l -16.47,-16.48 c -11.74,-11.74 -11.73,-30.78 0.01,-42.52 l 127.86,-127.8 c 11.74,-11.74 30.78,-11.73 42.52,0.01 l 16.48,16.48 c 11.73,11.74 11.73,30.78 -0.01,42.51 z"
   id="path40" />
<path
   class="st2"
   d="m 1657.1,400.65 -48.69,48.67 c -4.8,4.8 -12.59,4.8 -17.39,0 L 1488.21,346.46 c -4.8,-4.8 -4.8,-12.59 0,-17.39 v 0 c 16.21,-16.2 41.27,-19.53 61.14,-8.13 l 107.45,64.77 c 7.03,4.03 6.03,9.21 0.3,14.94 z"
   id="path42" />
<path
   class="st2"
   d="m 2077.92,327.87 v 0 c -13.83,13.82 -36.24,13.81 -50.06,-0.01 L 1904.34,204.28 c -13.82,-13.83 -13.81,-36.24 0.01,-50.06 v 0 c 13.83,-13.82 36.24,-13.81 50.06,0.01 l 123.52,123.58 c 13.82,13.83 13.82,36.24 -0.01,50.06 z"
   id="path44" />
<path
   class="st5"
   d="m 1501.63,810.03 -288.72,288.59 c -8.16,8.16 -21.39,8.15 -29.54,-0.01 l -50.69,-50.72 c -8.16,-8.16 -8.15,-21.39 0.01,-29.54 l 288.72,-288.59 c 8.16,-8.16 21.39,-8.15 29.54,0.01 l 50.69,50.72 c 8.15,8.16 8.15,21.39 -0.01,29.54 z"
   id="path46" />
<g
   id="g66"
   transform="translate(767.28998,1239.06)">
	<path
   class="st1"
   d="m 1073.66,-269.82 c 0,0 -145.33,103.77 -61.72,331.11 81.63,221.98 -24.49,304.47 -24.49,304.47 0,0 -82.45,93.65 -291.76,16.53 -209.31,-77.12 -332.95,80.3 -332.95,80.3"
   id="path48" />
	<path
   class="st1"
   d="m 1345.36,2.01 c 0,0 -103.83,145.28 -331.14,61.57 -221.94,-81.74 -304.48,24.35 -304.48,24.35 0,0 -93.7,82.4 -16.67,291.75 77.03,209.35 -80.46,332.91 -80.46,332.91"
   id="path50" />
	<line
   class="st6"
   x1="1134.08"
   y1="-137.22"
   x2="1313.76"
   y2="42.540001"
   id="line52" />
	<line
   class="st6"
   x1="1154.4"
   y1="2.3800001"
   x2="987.56"
   y2="-164.53"
   id="line54" />
	<line
   class="st6"
   x1="950.96002"
   y1="197.72"
   x2="784.13"
   y2="30.809999"
   id="line56" />
	<line
   class="st6"
   x1="820.09003"
   y1="182.62"
   x2="1001.22"
   y2="363.82999"
   id="line58" />
	<line
   class="st6"
   x1="841.71002"
   y1="314.92001"
   x2="664.58002"
   y2="137.71001"
   id="line60" />
	<line
   class="st6"
   x1="557.79999"
   y1="444.78"
   x2="706.59998"
   y2="593.65002"
   id="line62" />
	<line
   class="st6"
   x1="572.51001"
   y1="579.77002"
   x2="405.41"
   y2="412.59"
   id="line64" />
</g>
<rect
   x="0"
   y="2227.0801"
   class="st7"
   width="2425.03"
   height="680.53998"
   id="rect68" />
<g
   aria-label="ISBA"
   id="text70"
   style="font-size:900px;font-family:Rubik-Bold;fill:#ffffff"
   class="st0"><path
     d="m 209.71048,2882.2761 q -9.9,0 -16.2,-6.3 -6.3,-6.3 -6.3,-16.2 v -585 q 0,-9.9 6.3,-16.2 6.3,-6.3 16.2,-6.3 h 120.6 q 9.9,0 16.2,6.3 6.3,6.3 6.3,16.2 v 585 q 0,9.9 -6.3,16.2 -6.3,6.3 -16.2,6.3 z"
     style="font-weight:bold;font-family:Rubik;-inkscape-font-specification:'Rubik Bold'"
     id="path339" /><path
     d="m 713.70994,2891.2761 q -90,0 -149.4,-25.2 -59.4,-26.1 -90,-67.5 -30.6,-41.4 -32.4,-88.2 0,-7.2 5.4,-12.6 6.3,-6.3 14.4,-6.3 h 113.4 q 12.6,0 18.9,4.5 7.2,4.5 12.6,11.7 7.2,13.5 19.8,26.1 13.5,12.6 34.2,20.7 21.6,7.2 53.1,7.2 52.2,0 78.3,-16.2 27,-16.2 27,-44.1 0,-19.8 -14.4,-32.4 -14.4,-13.5 -46.8,-23.4 -31.5,-10.8 -84.6,-21.6 -68.4,-14.4 -117,-36.9 -47.7,-23.4 -72.9,-60.3 -25.2,-37.8 -25.2,-93.6 0,-54.9 30.6,-98.1 31.5,-43.2 87.3,-67.5 55.8,-24.3 132.3,-24.3 62.1,0 108.9,16.2 47.7,16.2 80.1,43.2 32.4,27 48.6,57.6 17.1,29.7 18,58.5 0,7.2 -5.4,13.5 -5.4,5.4 -13.5,5.4 h -118.8 q -9.9,0 -17.1,-3.6 -7.2,-3.6 -12.6,-11.7 -5.4,-19.8 -28.8,-34.2 -22.5,-15.3 -59.4,-15.3 -39.6,0 -62.1,14.4 -21.6,13.5 -21.6,42.3 0,18 11.7,31.5 12.6,13.5 40.5,23.4 28.8,9.9 78.3,20.7 81.9,15.3 132.3,38.7 50.4,22.5 73.8,59.4 23.4,36 23.4,90.9 0,61.2 -35.1,106.2 -34.2,44.1 -95.4,67.5 -61.2,23.4 -140.4,23.4 z"
     style="font-weight:bold;font-family:Rubik;-inkscape-font-specification:'Rubik Bold'"
     id="path341" /><path
     d="m 1098.0083,2882.2761 q -9.9,0 -16.2,-6.3 -6.3,-6.3 -6.3,-16.2 v -585 q 0,-9.9 6.3,-16.2 6.3,-6.3 16.2,-6.3 h 274.5 q 77.4,0 126.9,21.6 49.5,21.6 72.9,62.1 24.3,39.6 24.3,94.5 0,32.4 -12.6,57.6 -11.7,24.3 -29.7,40.5 -17.1,16.2 -32.4,23.4 34.2,16.2 60.3,53.1 27,36.9 27,86.4 0,59.4 -27,102.6 -26.1,42.3 -77.4,65.7 -50.4,22.5 -124.2,22.5 z m 138.6,-117 h 126 q 38.7,0 58.5,-22.5 19.8,-22.5 19.8,-51.3 0,-31.5 -20.7,-53.1 -19.8,-21.6 -57.6,-21.6 h -126 z m 0,-262.8 h 117.9 q 36.9,0 54.9,-18.9 18.9,-18.9 18.9,-48.6 0,-28.8 -18.9,-46.8 -18,-18.9 -54.9,-18.9 h -117.9 z"
     style="font-weight:bold;font-family:Rubik;-inkscape-font-specification:'Rubik Bold'"
     id="path343" /><path
     d="m 1663.9936,2882.2761 q -7.2,0 -13.5,-5.4 -5.4,-6.3 -5.4,-13.5 0,-4.5 0.9,-8.1 l 211.5,-577.8 q 2.7,-9.9 10.8,-17.1 9,-8.1 24.3,-8.1 h 133.2 q 15.3,0 23.4,8.1 9,7.2 11.7,17.1 l 210.6,577.8 q 1.8,3.6 1.8,8.1 0,7.2 -6.3,13.5 -5.4,5.4 -13.5,5.4 h -110.7 q -13.5,0 -20.7,-6.3 -6.3,-7.2 -8.1,-12.6 l -35.1,-91.8 h -240.3 l -34.2,91.8 q -1.8,5.4 -8.1,12.6 -6.3,6.3 -21.6,6.3 z m 211.5,-240.3 h 167.4 l -84.6,-237.6 z"
     style="font-weight:bold;font-family:Rubik;-inkscape-font-specification:'Rubik Bold'"
     id="path345" /></g>
</svg>
