<?xml version="1.0" encoding="utf-8"?>
<!-- Generator: Adobe Illustrator 24.3.1, SVG Export Plug-In . SVG Version: 6.00 Build 0)  -->
<svg version="1.1" id="Layer_1" xmlns="http://www.w3.org/2000/svg" xmlns:xlink="http://www.w3.org/1999/xlink" x="0px" y="0px"
	 viewBox="0 0 2287.98 2961.59" style="enable-background:new 0 0 2287.98 2961.59;" xml:space="preserve">
<style type="text/css">
	.st0{fill:#FFFFFF;}
	.st1{fill:none;stroke:#6699FF;stroke-width:28;stroke-miterlimit:10;}
	.st2{fill:#6699FF;stroke:#FFFFFF;stroke-width:28;stroke-miterlimit:10;}
	.st3{fill:#6699FF;}
	.st4{fill:#6699FF;stroke:#FFFFFF;stroke-width:8;stroke-miterlimit:10;}
	.st5{fill:#FFFFFF;stroke:#FFFFFF;stroke-width:28;stroke-miterlimit:10;}
	.st6{fill:none;stroke:#FFFFFF;stroke-width:28;stroke-linecap:round;stroke-miterlimit:10;}
	.st7{fill:none;}
	.st8{font-family:'Rubik-Bold';}
	.st9{font-size:900px;}
</style>
<path class="st0" d="M2184.64,183.3V97.41c0-17.99-14.58-32.57-32.57-32.57H125.78c-17.99,0-32.57,14.58-32.57,32.57v75.5
	l13.51,37.64c0,0,118.26,189.73,0,523.75c0,0-598.03,1449.38,1037.27,1450.88c1635.3-1.5,1037.27-1450.88,1037.27-1450.88h0.95
	c-118.26-334.02,0-523.75,0-523.75L2184.64,183.3z"/>
<line class="st1" x1="361.44" y1="483.77" x2="791.02" y2="647.31"/>
<line class="st1" x1="500.08" y1="939.58" x2="1165.1" y2="271.49"/>
<circle class="st2" cx="500.08" cy="939.58" r="101.19"/>
<circle class="st2" cx="1093.84" cy="343.34" r="101.19"/>
<circle class="st2" cx="791.02" cy="647.31" r="151.79"/>
<circle class="st2" cx="361.44" cy="483.77" r="101.19"/>
<g>
	<path class="st3" d="M1063.48,1766.2c0,0,123.64-157.42,332.95-80.3l-2.61-2.62c77.02,209.35-80.46,332.91-80.46,332.91"/>
	<path class="st3" d="M1712.68,1364.89c81.63,221.98-24.49,304.47-24.49,304.47s-82.44,93.66-291.76,16.54l-2.61-2.62
		c-77.02-209.35,16.67-291.75,16.67-291.75s82.54-106.09,304.48-24.35L1712.68,1364.89z"/>
	<path class="st3" d="M1774.4,1033.78c0,0-145.33,103.77-61.72,331.11l2.29,2.29c227.3,83.71,331.14-61.57,331.14-61.57"/>
</g>
<path class="st2" d="M1758.27,634.61c0,0,169.6,166.2,62.4,277.28c0,0-50.17,50.25-93.4,10.93s16.82-87.55,16.82-87.55
	s34.99-19.44-56.89-112.11"/>
<path class="st2" d="M1960.9,370.18l-237.4,237.29c-7.48,7.47-19.59,7.47-27.07-0.01l-73.34-73.38c-7.47-7.48-7.47-19.59,0.01-27.07
	l237.4-237.29c7.48-7.47,19.59-7.47,27.07,0.01l73.34,73.38C1968.38,350.59,1968.38,362.71,1960.9,370.18z"/>
<polyline class="st4" points="519.61,1732.98 355.96,1875.68 501.87,1705.95 "/>
<path class="st2" d="M765.07,1505.36L542.5,1727.83c-7.1,7.1-18.62,7.1-25.72-0.01l-15.79-15.8c-7.1-7.1-7.1-18.62,0.01-25.72
	l222.56-222.47c7.1-7.1,18.62-7.1,25.72,0.01l15.79,15.8C772.17,1486.74,772.17,1498.26,765.07,1505.36z"/>
<path class="st2" d="M848.24,1460.78l-97.97,97.92c-13.45,13.45-35.26,13.44-48.71-0.01l-31.54-31.55
	c-13.45-13.45-13.44-35.26,0.01-48.71l97.97-97.92c13.45-13.45,35.26-13.44,48.71,0.01l31.54,31.55
	C861.69,1425.53,861.69,1447.34,848.24,1460.78z"/>
<path class="st2" d="M946.91,1437.82l-89.64,89.6c-13.45,13.45-35.26,13.44-48.71-0.01l-106.1-106.17
	c-13.45-13.45-13.44-35.26,0.01-48.71l89.64-89.6c13.45-13.45,35.26-13.44,48.71,0.01l106.11,106.17
	C960.37,1402.57,960.37,1424.37,946.91,1437.82z"/>
<path class="st2" d="M1774.2,692.73l-793.07,792.71c-16.45,16.44-43.12,16.44-59.56-0.01l-175.41-175.48
	c-16.44-16.45-16.43-43.12,0.02-59.56l793.08-792.71c16.45-16.44,43.12-16.44,59.56,0.01l175.4,175.48
	C1790.66,649.62,1790.66,676.29,1774.2,692.73z"/>
<path class="st2" d="M1546.07,509.29L1418.2,637.1c-11.74,11.74-30.78,11.73-42.52-0.01l-16.47-16.48
	c-11.74-11.74-11.73-30.78,0.01-42.52l127.86-127.8c11.74-11.74,30.78-11.73,42.52,0.01l16.48,16.48
	C1557.81,478.52,1557.81,497.56,1546.07,509.29z"/>
<path class="st2" d="M1589.89,465.49l-48.69,48.67c-4.8,4.8-12.59,4.8-17.39,0L1421,411.3c-4.8-4.8-4.8-12.59,0-17.39l0,0
	c16.21-16.2,41.27-19.53,61.14-8.13l107.45,64.77C1596.62,454.58,1595.62,459.76,1589.89,465.49z"/>
<path class="st2" d="M2010.71,392.71L2010.71,392.71c-13.83,13.82-36.24,13.81-50.06-0.01l-123.52-123.58
	c-13.82-13.83-13.81-36.24,0.01-50.06l0,0c13.83-13.82,36.24-13.81,50.06,0.01l123.52,123.58
	C2024.54,356.48,2024.54,378.89,2010.71,392.71z"/>
<path class="st5" d="M1434.42,874.87l-288.72,288.59c-8.16,8.16-21.39,8.15-29.54-0.01l-50.69-50.72
	c-8.16-8.16-8.15-21.39,0.01-29.54L1354.2,794.6c8.16-8.16,21.39-8.15,29.54,0.01l50.69,50.72
	C1442.58,853.49,1442.58,866.72,1434.42,874.87z"/>
<g>
	<path class="st1" d="M1773.74,1034.08c0,0-145.33,103.77-61.72,331.11c81.63,221.98-24.49,304.47-24.49,304.47
		s-82.45,93.65-291.76,16.53s-332.95,80.3-332.95,80.3"/>
	<path class="st1" d="M2045.44,1305.91c0,0-103.83,145.28-331.14,61.57c-221.94-81.74-304.48,24.35-304.48,24.35
		s-93.7,82.4-16.67,291.75s-80.46,332.91-80.46,332.91"/>
	<line class="st6" x1="1834.16" y1="1166.68" x2="2013.84" y2="1346.44"/>
	<line class="st6" x1="1854.48" y1="1306.28" x2="1687.64" y2="1139.37"/>
	<line class="st6" x1="1651.04" y1="1501.62" x2="1484.21" y2="1334.71"/>
	<line class="st6" x1="1520.17" y1="1486.52" x2="1701.3" y2="1667.73"/>
	<line class="st6" x1="1541.79" y1="1618.82" x2="1364.66" y2="1441.61"/>
	<line class="st6" x1="1257.88" y1="1748.68" x2="1406.68" y2="1897.55"/>
	<line class="st6" x1="1272.59" y1="1883.67" x2="1105.49" y2="1716.49"/>
</g>
<rect x="-67.21" y="2291.92" class="st7" width="2425.03" height="680.54"/>
<text transform="matrix(1 0 0 1 56.9987 2947.1121)" class="st0 st8 st9">ISBA</text>
</svg>
