<?xml version="1.0" encoding="UTF-8" standalone="no"?>
<!-- Generator: Adobe Illustrator 24.3.1, SVG Export Plug-In . SVG Version: 6.00 Build 0)  -->

<svg
   version="1.1"
   id="Layer_1"
   x="0px"
   y="0px"
   viewBox="0 0 4567.9895 4567.9897"
   xml:space="preserve"
   sodipodi:docname="ISBA_logo-9_FINAL_whiteback_thickDNA-r.svg"
   width="4567.9897"
   height="4567.9897"
   inkscape:version="1.2.2 (1:1.2.2+202305151914+b0a8486541)"
   xmlns:inkscape="http://www.inkscape.org/namespaces/inkscape"
   xmlns:sodipodi="http://sodipodi.sourceforge.net/DTD/sodipodi-0.dtd"
   xmlns="http://www.w3.org/2000/svg"
   xmlns:svg="http://www.w3.org/2000/svg"><defs
   id="defs79" /><sodipodi:namedview
   id="namedview77"
   pagecolor="#ffffff"
   bordercolor="#666666"
   borderopacity="1.0"
   inkscape:showpageshadow="2"
   inkscape:pageopacity="0"
   inkscape:pagecheckerboard="true"
   inkscape:deskcolor="#d1d1d1"
   showgrid="false"
   inkscape:zoom="0.18918837"
   inkscape:cx="2058.7946"
   inkscape:cy="2042.9374"
   inkscape:window-width="1920"
   inkscape:window-height="1136"
   inkscape:window-x="0"
   inkscape:window-y="0"
   inkscape:window-maximized="1"
   inkscape:current-layer="Layer_1" />
<style
   type="text/css"
   id="style2">
	.st0{fill:#FFFFFF;}
	.st1{fill:none;}
	.st2{fill:#6699FF;}
	.st3{fill:none;stroke:#FFFFFF;stroke-width:28;stroke-miterlimit:10;}
	.st4{fill:#FFFFFF;stroke:#6699FF;stroke-width:28;stroke-miterlimit:10;}
	.st5{fill:#FFFFFF;stroke:#6699FF;stroke-width:14;stroke-miterlimit:10;}
	.st6{fill:#6699FF;stroke:#6699FF;stroke-width:28;stroke-miterlimit:10;}
	.st7{fill:none;stroke:#6699FF;stroke-width:28;stroke-linecap:round;stroke-miterlimit:10;}
</style>

<circle
   style="fill:#ffffff;stroke-width:10.0006;stroke-linecap:round;stop-color:#000000"
   id="path368"
   cx="2283.9949"
   cy="2283.9949"
   r="2283.9949" /><rect
   x="1076.22"
   y="3049.6147"
   class="st1"
   width="2425.03"
   height="680.53998"
   id="rect6" />
<g
   aria-label="ISBA"
   id="text8"
   style="font-size:900px;font-family:Rubik-Bold;fill:#6699ff"
   class="st2"
   transform="translate(876.72986,684.98486)"><path
     d="m 409.19662,3019.8301 q -9.9,0 -16.2,-6.3 -6.3,-6.3 -6.3,-16.2 v -585 q 0,-9.9 6.3,-16.2 6.3,-6.3 16.2,-6.3 h 120.6 q 9.9,0 16.2,6.3 6.3,6.3 6.3,16.2 v 585 q 0,9.9 -6.3,16.2 -6.3,6.3 -16.2,6.3 z"
     style="font-weight:bold;font-family:Rubik;-inkscape-font-specification:'Rubik Bold'"
     id="path201" /><path
     d="m 913.19608,3028.8301 q -90,0 -149.4,-25.2 -59.4,-26.1 -90,-67.5 -30.6,-41.4 -32.4,-88.2 0,-7.2 5.4,-12.6 6.3,-6.3 14.4,-6.3 h 113.4 q 12.6,0 18.9,4.5 7.2,4.5 12.6,11.7 7.2,13.5 19.8,26.1 13.5,12.6 34.2,20.7 21.6,7.2 53.1,7.2 52.2,0 78.3,-16.2 27.00002,-16.2 27.00002,-44.1 0,-19.8 -14.4,-32.4 -14.40002,-13.5 -46.80002,-23.4 -31.5,-10.8 -84.6,-21.6 -68.4,-14.4 -117,-36.9 -47.7,-23.4 -72.9,-60.3 -25.2,-37.8 -25.2,-93.6 0,-54.9 30.6,-98.1 31.5,-43.2 87.3,-67.5 55.8,-24.3 132.3,-24.3 62.1,0 108.90002,16.2 47.7,16.2 80.1,43.2 32.4,27 48.6,57.6 17.1,29.7 18,58.5 0,7.2 -5.4,13.5 -5.4,5.4 -13.5,5.4 h -118.8 q -9.9,0 -17.1,-3.6 -7.2,-3.6 -12.60002,-11.7 -5.4,-19.8 -28.8,-34.2 -22.5,-15.3 -59.4,-15.3 -39.6,0 -62.1,14.4 -21.6,13.5 -21.6,42.3 0,18 11.7,31.5 12.6,13.5 40.5,23.4 28.8,9.9 78.3,20.7 81.90002,15.3 132.30002,38.7 50.4,22.5 73.8,59.4 23.4,36 23.4,90.9 0,61.2 -35.1,106.2 -34.2,44.1 -95.4,67.5 -61.20002,23.4 -140.40002,23.4 z"
     style="font-weight:bold;font-family:Rubik;-inkscape-font-specification:'Rubik Bold'"
     id="path203" /><path
     d="m 1297.4945,3019.8301 q -9.9,0 -16.2,-6.3 -6.3,-6.3 -6.3,-16.2 v -585 q 0,-9.9 6.3,-16.2 6.3,-6.3 16.2,-6.3 h 274.5 q 77.4,0 126.9,21.6 49.5,21.6 72.9,62.1 24.3,39.6 24.3,94.5 0,32.4 -12.6,57.6 -11.7,24.3 -29.7,40.5 -17.1,16.2 -32.4,23.4 34.2,16.2 60.3,53.1 27,36.9 27,86.4 0,59.4 -27,102.6 -26.1,42.3 -77.4,65.7 -50.4,22.5 -124.2,22.5 z m 138.6,-117 h 126 q 38.7,0 58.5,-22.5 19.8,-22.5 19.8,-51.3 0,-31.5 -20.7,-53.1 -19.8,-21.6 -57.6,-21.6 h -126 z m 0,-262.8 h 117.9 q 36.9,0 54.9,-18.9 18.9,-18.9 18.9,-48.6 0,-28.8 -18.9,-46.8 -18,-18.9 -54.9,-18.9 h -117.9 z"
     style="font-weight:bold;font-family:Rubik;-inkscape-font-specification:'Rubik Bold'"
     id="path205" /><path
     d="m 1863.4797,3019.8301 q -7.2,0 -13.5,-5.4 -5.4,-6.3 -5.4,-13.5 0,-4.5 0.9,-8.1 l 211.5,-577.8 q 2.7,-9.9 10.8,-17.1 9,-8.1 24.3,-8.1 h 133.2 q 15.3,0 23.4,8.1 9,7.2 11.7,17.1 l 210.6,577.8 q 1.8,3.6 1.8,8.1 0,7.2 -6.3,13.5 -5.4,5.4 -13.5,5.4 h -110.7 q -13.5,0 -20.7,-6.3 -6.3,-7.2 -8.1,-12.6 l -35.1,-91.8 h -240.3 l -34.2,91.8 q -1.8,5.4 -8.1,12.6 -6.3,6.3 -21.6,6.3 z m 211.5,-240.3 h 167.4 l -84.6,-237.6 z"
     style="font-weight:bold;font-family:Rubik;-inkscape-font-specification:'Rubik Bold'"
     id="path207" /></g>
<path
   class="st2"
   d="m 3324.6399,959.91484 v -85.89 c 0,-17.99 -14.58,-32.57 -32.57,-32.57 h -2026.29 c -17.99,0 -32.57,14.58 -32.57,32.57 v 75.5 l 13.51,37.64 c 0,0 118.26,189.72996 0,523.74996 0,0 -598.03001,1449.3801 1037.27,1450.8801 1635.31,-1.5 1037.27,-1450.8801 1037.27,-1450.8801 h 0.95 c -118.26,-334.02 0,-523.74996 0,-523.74996 z"
   id="path10" />
<line
   class="st3"
   x1="1503.1399"
   y1="1260.3848"
   x2="1932.7098"
   y2="1423.9148"
   id="line12" />
<line
   class="st3"
   x1="1641.7799"
   y1="1716.1948"
   x2="2306.7998"
   y2="1048.1049"
   id="line14" />
<circle
   class="st4"
   cx="1641.7799"
   cy="1716.1948"
   r="101.19"
   id="circle16" />
<circle
   class="st4"
   cx="2235.54"
   cy="1119.9448"
   r="101.19"
   id="circle18" />
<circle
   class="st4"
   cx="1932.7098"
   cy="1423.9148"
   r="151.78999"
   id="circle20" />
<circle
   class="st4"
   cx="1503.1399"
   cy="1260.3848"
   r="101.19"
   id="circle22" />
<g
   id="g30"
   transform="translate(1986.2599,1871.5849)">
	<path
   class="st0"
   d="m 223.91,671.22 c 0,0 123.64,-157.42 332.95,-80.3 l -2.61,-2.62 c 77.02,209.35 -80.46,332.91 -80.46,332.91"
   id="path24" />
	<path
   class="st0"
   d="m 873.11,269.92 c 81.63,221.98 -24.49,304.47 -24.49,304.47 0,0 -82.44,93.66 -291.76,16.54 l -2.61,-2.62 c -77.02,-209.35 16.67,-291.75 16.67,-291.75 0,0 82.54,-106.09 304.48,-24.35 z"
   id="path26" />
	<path
   class="st0"
   d="m 934.84,-61.19 c 0,0 -145.33,103.77 -61.72,331.11 l 2.29,2.29 c 227.3,83.71 331.14,-61.57 331.14,-61.57"
   id="path28" />
</g>
<g
   id="g54"
   transform="translate(1986.2599,1871.5849)">
	<path
   class="st4"
   d="m 913.7,-460.36 c 0,0 169.6,166.2 62.4,277.28 0,0 -50.17,50.25 -93.4,10.93 -43.23,-39.32 16.82,-87.55 16.82,-87.55 0,0 34.99,-19.44 -56.89,-112.11"
   id="path32" />
	<path
   class="st4"
   d="m 1116.34,-724.79 -237.4,237.29 c -7.48,7.47 -19.59,7.47 -27.07,-0.01 l -73.34,-73.38 c -7.47,-7.48 -7.47,-19.59 0.01,-27.07 l 237.4,-237.29 c 7.48,-7.47 19.59,-7.47 27.07,0.01 l 73.34,73.38 c 7.47,7.48 7.46,19.6 -0.01,27.07 z"
   id="path34" />
	<polyline
   class="st5"
   points="-324.95,638.01 -488.61,780.7 -342.7,610.98  "
   id="polyline36" />
	<path
   class="st4"
   d="m -79.5,410.38 -222.57,222.47 c -7.1,7.1 -18.62,7.1 -25.72,-0.01 l -15.79,-15.8 c -7.1,-7.1 -7.1,-18.62 0.01,-25.72 L -121,368.86 c 7.1,-7.1 18.62,-7.1 25.72,0.01 l 15.79,15.8 c 7.1,7.1 7.1,18.61 -0.01,25.71 z"
   id="path38" />
	<path
   class="st4"
   d="m 3.67,365.81 -97.97,97.92 c -13.45,13.45 -35.26,13.44 -48.71,-0.01 l -31.54,-31.55 c -13.45,-13.45 -13.44,-35.26 0.01,-48.71 l 97.97,-97.92 c 13.45,-13.45 35.26,-13.44 48.71,0.01 L 3.68,317.1 c 13.45,13.46 13.45,35.26 -0.01,48.71 z"
   id="path40" />
	<path
   class="st4"
   d="m 102.35,342.85 -89.64,89.6 C -0.74,445.9 -22.55,445.89 -36,432.44 L -142.1,326.27 c -13.45,-13.45 -13.44,-35.26 0.01,-48.71 l 89.64,-89.6 c 13.45,-13.45 35.26,-13.44 48.71,0.01 l 106.11,106.16 c 13.44,13.46 13.43,35.27 -0.02,48.72 z"
   id="path42" />
	<path
   class="st4"
   d="M 929.64,-402.24 136.56,390.47 C 120.11,406.91 93.44,406.91 77,390.46 L -98.4,214.97 c -16.44,-16.45 -16.44,-43.12 0.01,-59.56 L 694.69,-637.3 c 16.45,-16.44 43.12,-16.44 59.56,0.01 l 175.4,175.48 c 16.45,16.46 16.44,43.13 -0.01,59.57 z"
   id="path44" />
	<path
   class="st4"
   d="m 701.5,-585.68 -127.86,127.8 c -11.74,11.74 -30.78,11.73 -42.52,-0.01 l -16.47,-16.48 c -11.74,-11.74 -11.73,-30.78 0.01,-42.52 l 127.86,-127.8 c 11.74,-11.74 30.78,-11.73 42.52,0.01 l 16.47,16.48 c 11.74,11.75 11.73,30.78 -0.01,42.52 z"
   id="path46" />
	<path
   class="st4"
   d="m 745.33,-629.48 -48.69,48.67 c -4.8,4.8 -12.59,4.8 -17.39,0 L 576.43,-683.67 c -4.8,-4.8 -4.8,-12.59 0,-17.39 v 0 c 16.21,-16.2 41.27,-19.53 61.14,-8.13 l 107.45,64.77 c 7.04,4.03 6.04,9.21 0.31,14.94 z"
   id="path48" />
	<path
   class="st4"
   d="m 1166.15,-702.27 v 0 c -13.83,13.82 -36.24,13.81 -50.06,-0.01 L 992.57,-825.86 c -13.82,-13.83 -13.81,-36.24 0.01,-50.06 v 0 c 13.83,-13.82 36.24,-13.81 50.06,0.01 l 123.52,123.58 c 13.82,13.83 13.82,36.25 -0.01,50.06 z"
   id="path50" />
	<path
   class="st6"
   d="M 589.86,-220.1 301.14,68.49 c -8.16,8.16 -21.39,8.15 -29.54,-0.01 L 220.9,17.76 c -8.16,-8.16 -8.15,-21.39 0.01,-29.54 l 288.72,-288.59 c 8.16,-8.16 21.39,-8.15 29.54,0.01 l 50.69,50.72 c 8.16,8.16 8.16,21.38 0,29.54 z"
   id="path52" />
</g>
<g
   id="g74"
   transform="translate(1986.2599,1871.5849)">
	<path
   class="st3"
   d="m 936.17,-60.9 c 0,0 -145.33,103.77 -61.72,331.11 81.63,221.98 -24.49,304.47 -24.49,304.47 0,0 -82.44,93.66 -291.76,16.54 -209.32,-77.12 -332.95,80.3 -332.95,80.3"
   id="path56" />
	<path
   class="st3"
   d="m 1207.88,210.93 c 0,0 -103.83,145.28 -331.14,61.57 -221.94,-81.74 -304.48,24.35 -304.48,24.35 0,0 -93.7,82.4 -16.67,291.75 77.03,209.35 -80.46,332.91 -80.46,332.91"
   id="path58" />
	<line
   class="st7"
   x1="1011.62"
   y1="88.43"
   x2="1191.3101"
   y2="268.20001"
   id="line60" />
	<line
   class="st7"
   x1="1010.54"
   y1="201.96001"
   x2="843.71002"
   y2="35.049999"
   id="line62" />
	<line
   class="st7"
   x1="805.89001"
   y1="393.66"
   x2="639.06"
   y2="226.75"
   id="line64" />
	<line
   class="st7"
   x1="698.23999"
   y1="410.25"
   x2="879.37"
   y2="591.46002"
   id="line66" />
	<line
   class="st7"
   x1="687.02002"
   y1="509.25"
   x2="509.89999"
   y2="332.04999"
   id="line68" />
	<line
   class="st7"
   x1="435.5"
   y1="671"
   x2="584.29999"
   y2="819.87"
   id="line70" />
	<line
   class="st7"
   x1="426.66"
   y1="779.42999"
   x2="259.56"
   y2="612.25"
   id="line72" />
</g>
</svg>
