<?xml version="1.0" encoding="UTF-8" standalone="no"?>
<!-- Generator: Adobe Illustrator 24.3.1, SVG Export Plug-In . SVG Version: 6.00 Build 0)  -->

<svg
   version="1.1"
   id="Layer_1"
   x="0px"
   y="0px"
   viewBox="0 0 2814.5299 3198.02"
   xml:space="preserve"
   sodipodi:docname="ISBA_logo-9_FINAL_blueback_whitectr.svg"
   width="2814.53"
   height="3198.02"
   inkscape:version="1.2 (1:1.2.1+202207142221+cd75a1ee6d)"
   xmlns:inkscape="http://www.inkscape.org/namespaces/inkscape"
   xmlns:sodipodi="http://sodipodi.sourceforge.net/DTD/sodipodi-0.dtd"
   xmlns="http://www.w3.org/2000/svg"
   xmlns:svg="http://www.w3.org/2000/svg"><defs
   id="defs77" /><sodipodi:namedview
   id="namedview75"
   pagecolor="#ffffff"
   bordercolor="#666666"
   borderopacity="1.0"
   inkscape:showpageshadow="2"
   inkscape:pageopacity="0.0"
   inkscape:pagecheckerboard="0"
   inkscape:deskcolor="#d1d1d1"
   showgrid="false"
   inkscape:zoom="0.094594187"
   inkscape:cx="3044.5846"
   inkscape:cy="3483.3007"
   inkscape:window-width="1920"
   inkscape:window-height="1016"
   inkscape:window-x="1137"
   inkscape:window-y="1227"
   inkscape:window-maximized="1"
   inkscape:current-layer="Layer_1" />
<style
   type="text/css"
   id="style2">
	.st0{fill:#6699FF;}
	.st1{fill:#FFFFFF;}
	.st2{fill:none;stroke:#6699FF;stroke-width:28;stroke-miterlimit:10;}
	.st3{fill:#6699FF;stroke:#FFFFFF;stroke-width:28;stroke-miterlimit:10;}
	.st4{fill:#6699FF;stroke:#FFFFFF;stroke-width:8;stroke-miterlimit:10;}
	.st5{fill:#FFFFFF;stroke:#FFFFFF;stroke-width:28;stroke-miterlimit:10;}
	.st6{fill:none;stroke:#FFFFFF;stroke-width:28;stroke-linecap:round;stroke-miterlimit:10;}
</style>
<rect
   x="0"
   y="0"
   class="st0"
   width="2814.53"
   height="3198.02"
   id="rect4" />
<path
   class="st1"
   d="m 2459.08,253.49997 v -85.89 c 0,-17.99 -14.58,-32.57 -32.57,-32.57 H 400.21995 c -17.99,0 -32.57,14.58 -32.57,32.57 v 75.5 l 13.51,37.64 c 0,0 118.26,189.73 0,523.75 0,0 -598.03,1449.38003 1037.27005,1450.88003 C 3053.74,2253.88 2455.7,804.50997 2455.7,804.50997 h 0.95 c -118.26,-334.02 0,-523.75 0,-523.75 z"
   id="path6" />
<line
   class="st2"
   x1="635.87994"
   y1="553.96997"
   x2="1065.46"
   y2="717.51001"
   id="line8" />
<line
   class="st2"
   x1="774.51996"
   y1="1009.78"
   x2="1439.5499"
   y2="341.68994"
   id="line10" />
<circle
   class="st3"
   cx="774.51996"
   cy="1009.78"
   r="101.19"
   id="circle12" />
<circle
   class="st3"
   cx="1368.2799"
   cy="413.52997"
   r="101.19"
   id="circle14" />
<circle
   class="st3"
   cx="1065.46"
   cy="717.51001"
   r="151.78999"
   id="circle16" />
<circle
   class="st3"
   cx="635.87994"
   cy="553.96997"
   r="101.19"
   id="circle18" />
<g
   id="g26"
   transform="translate(1120.7,1185.34)">
	<path
   class="st0"
   d="m 217.22,651.05 c 0,0 123.64,-157.42 332.95,-80.3 l -2.61,-2.62 C 624.58,777.48 467.1,901.04 467.1,901.04"
   id="path20" />
	<path
   class="st0"
   d="m 866.42,249.75 c 81.63,221.98 -24.49,304.47 -24.49,304.47 0,0 -82.44,93.66 -291.76,16.54 l -2.61,-2.62 c -77.02,-209.35 16.67,-291.75 16.67,-291.75 0,0 82.54,-106.09 304.48,-24.35 z"
   id="path22" />
	<path
   class="st0"
   d="m 928.14,-81.36 c 0,0 -145.33,103.77 -61.72,331.11 l 2.29,2.29 c 227.3,83.71 331.14,-61.57 331.14,-61.57"
   id="path24" />
</g>
<path
   class="st3"
   d="m 2032.71,704.80997 c 0,0 169.6,166.2 62.4,277.28 0,0 -50.17,50.25003 -93.4,10.93 -43.23,-39.32 16.82,-87.55 16.82,-87.55 0,0 34.99,-19.44 -56.89,-112.11"
   id="path28" />
<path
   class="st3"
   d="m 2235.35,440.37997 -237.4,237.29 c -7.48,7.47 -19.59,7.47 -27.07,-0.01 l -73.34,-73.38 c -7.47,-7.48 -7.47,-19.59 0.01,-27.07 l 237.4,-237.29 c 7.48,-7.47 19.59,-7.47 27.07,0.01 l 73.34,73.38 c 7.46,7.48 7.46,19.6 -0.01,27.07 z"
   id="path30" />
<polyline
   class="st4"
   points="-326.64,617.84 -490.3,760.53 -344.39,590.81 "
   id="polyline32"
   transform="translate(1120.7,1185.34)" />
<path
   class="st3"
   d="m 1039.51,1575.55 -222.57005,222.47 c -7.1,7.1 -18.62,7.1 -25.72,-0.01 l -15.79,-15.8 c -7.1,-7.1 -7.1,-18.62 0.01,-25.72 l 222.57,-222.47 c 7.10005,-7.1 18.62005,-7.1 25.72005,0.01 l 15.79,15.8 c 7.1,7.11 7.09,18.62 -0.01,25.72 z"
   id="path34" />
<path
   class="st3"
   d="m 1122.68,1530.98 -97.97,97.92 c -13.45,13.45 -35.26005,13.44 -48.71005,-0.01 l -31.53,-31.55 c -13.45,-13.45 -13.44,-35.26 0.01,-48.71 l 97.97005,-97.92 c 13.45,-13.45 35.26,-13.44 48.71,0.01 l 31.54,31.55 c 13.44,13.46 13.43,35.27 -0.02,48.71 z"
   id="path36" />
<path
   class="st3"
   d="m 1221.36,1508.02 -89.64,89.6 c -13.45,13.45 -35.26,13.44 -48.71,-0.01 L 976.90995,1491.44 c -13.45,-13.45 -13.44,-35.26 0.01,-48.71 l 89.64005,-89.6 c 13.45,-13.45 35.26,-13.44 48.71,0.01 l 106.11,106.16 c 13.44,13.46 13.43,35.27 -0.02,48.72 z"
   id="path38" />
<path
   class="st3"
   d="M 2048.65,762.92997 1255.57,1555.64 c -16.45,16.44 -43.12,16.44 -59.56,-0.01 l -175.4,-175.48 c -16.44,-16.45 -16.44,-43.12 0.01,-59.56 L 1813.7,527.86997 c 16.45,-16.44 43.12,-16.44 59.56,0.01 l 175.4,175.48 c 16.44,16.46 16.44,43.13 -0.01,59.57 z"
   id="path40" />
<path
   class="st3"
   d="m 1820.51,579.48997 -127.86,127.8 c -11.74,11.74 -30.78,11.73 -42.52,-0.01 l -16.47,-16.48 c -11.74,-11.74 -11.73,-30.78 0.01,-42.52 l 127.86,-127.8 c 11.74,-11.74 30.78,-11.73 42.52,0.01 l 16.47,16.48 c 11.74,11.75 11.73,30.78 -0.01,42.52 z"
   id="path42" />
<path
   class="st3"
   d="m 1864.33,535.68997 -48.69,48.67 c -4.8,4.8 -12.59,4.8 -17.39,0 l -102.81,-102.86 c -4.8,-4.8 -4.8,-12.59 0,-17.39 v 0 c 16.21,-16.2 41.27,-19.53 61.14,-8.13 l 107.45,64.77 c 7.04,4.03 6.03,9.21 0.3,14.94 z"
   id="path44" />
<path
   class="st3"
   d="m 2285.16,462.89997 v 0 c -13.83,13.82 -36.24,13.81 -50.06,-0.01 l -123.52,-123.58 c -13.82,-13.83 -13.81,-36.24 0.01,-50.06 v 0 c 13.83,-13.82 36.24,-13.81 50.06,0.01 l 123.52,123.58 c 13.82,13.83 13.81,36.25 -0.01,50.06 z"
   id="path46" />
<path
   class="st5"
   d="M 1708.86,945.06997 1420.14,1233.66 c -8.16,8.16 -21.39,8.15 -29.54,-0.01 l -50.69,-50.72 c -8.16,-8.16 -8.15,-21.39 0.01,-29.54 l 288.72,-288.59003 c 8.16,-8.16 21.39,-8.15 29.54,0.01 l 50.69,50.72 c 8.16,8.16 8.15,21.38 -0.01,29.54 z"
   id="path48" />
<g
   id="g68"
   transform="translate(1120.7,1185.34)">
	<path
   class="st2"
   d="m 927.48,-81.07 c 0,0 -145.33,103.77 -61.72,331.11 81.63,221.98 -24.49,304.47 -24.49,304.47 0,0 -82.44,93.66 -291.76,16.54 -209.32,-77.12 -332.95,80.3 -332.95,80.3"
   id="path50" />
	<path
   class="st2"
   d="m 1199.19,190.76 c 0,0 -103.83,145.28 -331.14,61.57 -221.94,-81.74 -304.48,24.35 -304.48,24.35 0,0 -93.7,82.4 -16.67,291.75 77.03,209.35 -80.46,332.91 -80.46,332.91"
   id="path52" />
	<line
   class="st6"
   x1="987.90002"
   y1="51.540001"
   x2="1167.58"
   y2="231.3"
   id="line54" />
	<line
   class="st6"
   x1="1008.22"
   y1="191.14"
   x2="841.39001"
   y2="24.23"
   id="line56" />
	<line
   class="st6"
   x1="804.78003"
   y1="386.48001"
   x2="637.95001"
   y2="219.57001"
   id="line58" />
	<line
   class="st6"
   x1="673.90997"
   y1="371.37"
   x2="855.03998"
   y2="552.59003"
   id="line60" />
	<line
   class="st6"
   x1="695.53003"
   y1="503.67999"
   x2="518.40997"
   y2="326.47"
   id="line62" />
	<line
   class="st6"
   x1="411.63"
   y1="633.53998"
   x2="560.42999"
   y2="782.40997"
   id="line64" />
	<line
   class="st6"
   x1="426.34"
   y1="768.53003"
   x2="259.23999"
   y2="601.34998"
   id="line66" />
</g>
<rect
   x="207.22998"
   y="2362.1201"
   style="fill:none"
   width="2425.03"
   height="680.53998"
   id="rect70" />
<text
   class="st1"
   style="font-size:900px;font-family:ArialRoundedMTBold"
   id="text72"
   x="331.44366"
   y="3017.313">ISBA</text>
</svg>
